G04 Layer: TopSolderMaskLayer*
G04 EasyEDA v6.4.25, 2021-10-11T08:22:16+08:00*
G04 810a2c9a40b449618898816b7f75cef1,119f753a6ce64b8d841f2ad33262ab0c,10*
G04 Gerber Generator version 0.2*
G04 Scale: 100 percent, Rotated: No, Reflected: No *
G04 Dimensions in millimeters *
G04 leading zeros omitted , absolute positions ,4 integer and 5 decimal *
%FSLAX45Y45*%
%MOMM*%

%ADD16C,6.6032*%
%ADD17C,0.4000*%
%ADD18C,0.1999*%

%LPD*%
G36*
X9931400Y-12430810D02*
G01*
X9931400Y-12461189D01*
X9896348Y-12461189D01*
X9896348Y-12496139D01*
X9865258Y-12497054D01*
X9865258Y-12530531D01*
X9896348Y-12531445D01*
X9896348Y-12544044D01*
X9864344Y-12544044D01*
X9865258Y-12578334D01*
X9896348Y-12579248D01*
X9896348Y-12590170D01*
X9865258Y-12591084D01*
X9865258Y-12624562D01*
X9896551Y-12625476D01*
X9895535Y-12637262D01*
X9864445Y-12638176D01*
X9864445Y-12671450D01*
X9895535Y-12672364D01*
X9896551Y-12684201D01*
X9865258Y-12685115D01*
X9865258Y-12718542D01*
X9896348Y-12719456D01*
X9896348Y-12730378D01*
X9865258Y-12731292D01*
X9864344Y-12765582D01*
X9896348Y-12765582D01*
X9896348Y-12800634D01*
X9942423Y-12800634D01*
X9943338Y-12831724D01*
X9976815Y-12831724D01*
X9977729Y-12800634D01*
X9988651Y-12800634D01*
X9989566Y-12831724D01*
X10023043Y-12831724D01*
X10023957Y-12800634D01*
X10036454Y-12800634D01*
X10037368Y-12831724D01*
X10060584Y-12832283D01*
X10065715Y-12832080D01*
X10068864Y-12831521D01*
X10070287Y-12830556D01*
X10070795Y-12828676D01*
X10071506Y-12820142D01*
X10071658Y-12800634D01*
X10082682Y-12800634D01*
X10083596Y-12831724D01*
X10117074Y-12831724D01*
X10117988Y-12800634D01*
X10130485Y-12800634D01*
X10131399Y-12831724D01*
X10163251Y-12831724D01*
X10164165Y-12800634D01*
X10196779Y-12800634D01*
X10235793Y-12761518D01*
X10235793Y-12730530D01*
X10254894Y-12730429D01*
X10261854Y-12730022D01*
X10262616Y-12729718D01*
X10260634Y-12728905D01*
X10250170Y-12725958D01*
X10236555Y-12722656D01*
X10226192Y-12720523D01*
X10224211Y-12720421D01*
X10223754Y-12722148D01*
X10223144Y-12732512D01*
X10223042Y-12758470D01*
X10191953Y-12789408D01*
X10153700Y-12790271D01*
X10152786Y-12824561D01*
X10141864Y-12824561D01*
X10140950Y-12790271D01*
X10106710Y-12789357D01*
X10106710Y-12824561D01*
X10093960Y-12824561D01*
X10093960Y-12789458D01*
X10060482Y-12789458D01*
X10060482Y-12824561D01*
X10047732Y-12824561D01*
X10047732Y-12789458D01*
X10012680Y-12789458D01*
X10012680Y-12824561D01*
X10001605Y-12824561D01*
X10000742Y-12790271D01*
X9966452Y-12789357D01*
X9966452Y-12824561D01*
X9953701Y-12824561D01*
X9953701Y-12789458D01*
X9907625Y-12789458D01*
X9906711Y-12755219D01*
X9872421Y-12754305D01*
X9872421Y-12743383D01*
X9906711Y-12742468D01*
X9907625Y-12708178D01*
X9872421Y-12708178D01*
X9872421Y-12695478D01*
X9907625Y-12695478D01*
X9906711Y-12661188D01*
X9872421Y-12660274D01*
X9872421Y-12649352D01*
X9906711Y-12648438D01*
X9907625Y-12614198D01*
X9872421Y-12614198D01*
X9872421Y-12601448D01*
X9907625Y-12601448D01*
X9906711Y-12567158D01*
X9872421Y-12566243D01*
X9872421Y-12555321D01*
X9906711Y-12554407D01*
X9907625Y-12520168D01*
X9872421Y-12520168D01*
X9872421Y-12507417D01*
X9907473Y-12507417D01*
X9907473Y-12472365D01*
X9942576Y-12472365D01*
X9942576Y-12437262D01*
X9953701Y-12437262D01*
X9953701Y-12472365D01*
X9988753Y-12472365D01*
X9988753Y-12437262D01*
X10001504Y-12437262D01*
X10001504Y-12472365D01*
X10034981Y-12472365D01*
X10034981Y-12437262D01*
X10047732Y-12437262D01*
X10047732Y-12472365D01*
X10082784Y-12472365D01*
X10082784Y-12437262D01*
X10093960Y-12437262D01*
X10093960Y-12472365D01*
X10129012Y-12472365D01*
X10129012Y-12437262D01*
X10141762Y-12437262D01*
X10141762Y-12472365D01*
X10176814Y-12472365D01*
X10176814Y-12437262D01*
X10187990Y-12437262D01*
X10187990Y-12472365D01*
X10222941Y-12472365D01*
X10223855Y-12519355D01*
X10259669Y-12520269D01*
X10259669Y-12531191D01*
X10223855Y-12532106D01*
X10222941Y-12566396D01*
X10259669Y-12566396D01*
X10259669Y-12579096D01*
X10223042Y-12579096D01*
X10223144Y-12604038D01*
X10223500Y-12609271D01*
X10224262Y-12612065D01*
X10225532Y-12613233D01*
X10231983Y-12613894D01*
X10243870Y-12614198D01*
X10259669Y-12614198D01*
X10259669Y-12625222D01*
X10223855Y-12626136D01*
X10223855Y-12659614D01*
X10259669Y-12660477D01*
X10259669Y-12671450D01*
X10223855Y-12672364D01*
X10222941Y-12706604D01*
X10259669Y-12706604D01*
X10259822Y-12717119D01*
X10260228Y-12719354D01*
X10260939Y-12720574D01*
X10262057Y-12720929D01*
X10263276Y-12720421D01*
X10263987Y-12718440D01*
X10264343Y-12714528D01*
X10264444Y-12695478D01*
X10235793Y-12695478D01*
X10235793Y-12684302D01*
X10264444Y-12684302D01*
X10264444Y-12649250D01*
X10235793Y-12649250D01*
X10235793Y-12636500D01*
X10264444Y-12636500D01*
X10264444Y-12603022D01*
X10235793Y-12603022D01*
X10235793Y-12590272D01*
X10264444Y-12590272D01*
X10264444Y-12555220D01*
X10235793Y-12555220D01*
X10235793Y-12544044D01*
X10264444Y-12544044D01*
X10264444Y-12508992D01*
X10235895Y-12508992D01*
X10234980Y-12462002D01*
X10200843Y-12461087D01*
X10199928Y-12431725D01*
X10165689Y-12430810D01*
X10165689Y-12461189D01*
X10152938Y-12461189D01*
X10152938Y-12430810D01*
X10118648Y-12431725D01*
X10117734Y-12461189D01*
X10106710Y-12461189D01*
X10106710Y-12430912D01*
X10071658Y-12430912D01*
X10071658Y-12461189D01*
X10058908Y-12461189D01*
X10058908Y-12430912D01*
X10025430Y-12430912D01*
X10025430Y-12461189D01*
X10012680Y-12461189D01*
X10012680Y-12430912D01*
X9977628Y-12430912D01*
X9977628Y-12461189D01*
X9966604Y-12461189D01*
X9965690Y-12431725D01*
G37*
G36*
X9931400Y-12496241D02*
G01*
X9931400Y-12765582D01*
X10173919Y-12765582D01*
X10191750Y-12747853D01*
X10195712Y-12743637D01*
X10198201Y-12740640D01*
X10198862Y-12739268D01*
X10194594Y-12739420D01*
X10186771Y-12741960D01*
X10178491Y-12745770D01*
X10172852Y-12749580D01*
X10168280Y-12754406D01*
X9942576Y-12754406D01*
X9942576Y-12507417D01*
X10187990Y-12507417D01*
X10187990Y-12735306D01*
X10200741Y-12735306D01*
X10199928Y-12497054D01*
G37*
D17*
X8128076Y-12473533D02*
G01*
X8128076Y-12759791D01*
X8318830Y-12473533D02*
G01*
X8128076Y-12664287D01*
X8196148Y-12596215D02*
G01*
X8318830Y-12759791D01*
X8613470Y-12541605D02*
G01*
X8599754Y-12514427D01*
X8572576Y-12486995D01*
X8545398Y-12473533D01*
X8490788Y-12473533D01*
X8463356Y-12486995D01*
X8436178Y-12514427D01*
X8422462Y-12541605D01*
X8409000Y-12582499D01*
X8409000Y-12650825D01*
X8422462Y-12691719D01*
X8436178Y-12718897D01*
X8463356Y-12746075D01*
X8490788Y-12759791D01*
X8545398Y-12759791D01*
X8572576Y-12746075D01*
X8599754Y-12718897D01*
X8613470Y-12691719D01*
X8785174Y-12473533D02*
G01*
X8757996Y-12486995D01*
X8730818Y-12514427D01*
X8717102Y-12541605D01*
X8703386Y-12582499D01*
X8703386Y-12650825D01*
X8717102Y-12691719D01*
X8730818Y-12718897D01*
X8757996Y-12746075D01*
X8785174Y-12759791D01*
X8839784Y-12759791D01*
X8867216Y-12746075D01*
X8894394Y-12718897D01*
X8908110Y-12691719D01*
X8921572Y-12650825D01*
X8921572Y-12582499D01*
X8908110Y-12541605D01*
X8894394Y-12514427D01*
X8867216Y-12486995D01*
X8839784Y-12473533D01*
X8785174Y-12473533D01*
X9011742Y-12473533D02*
G01*
X9011742Y-12759791D01*
X9011742Y-12473533D02*
G01*
X9134424Y-12473533D01*
X9175318Y-12486995D01*
X9189034Y-12500711D01*
X9202496Y-12528143D01*
X9202496Y-12555321D01*
X9189034Y-12582499D01*
X9175318Y-12596215D01*
X9134424Y-12609931D01*
X9011742Y-12609931D01*
X9106992Y-12609931D02*
G01*
X9202496Y-12759791D01*
X9292666Y-12473533D02*
G01*
X9292666Y-12759791D01*
X9292666Y-12473533D02*
G01*
X9469704Y-12473533D01*
X9292666Y-12609931D02*
G01*
X9401632Y-12609931D01*
X9292666Y-12759791D02*
G01*
X9469704Y-12759791D01*
X9750628Y-12514427D02*
G01*
X9723450Y-12486995D01*
X9682556Y-12473533D01*
X9627946Y-12473533D01*
X9587052Y-12486995D01*
X9559874Y-12514427D01*
X9559874Y-12541605D01*
X9573336Y-12569037D01*
X9587052Y-12582499D01*
X9614484Y-12596215D01*
X9696272Y-12623393D01*
X9723450Y-12637109D01*
X9737166Y-12650825D01*
X9750628Y-12678003D01*
X9750628Y-12718897D01*
X9723450Y-12746075D01*
X9682556Y-12759791D01*
X9627946Y-12759791D01*
X9587052Y-12746075D01*
X9559874Y-12718897D01*
D18*
X8128000Y-12924536D02*
G01*
X8128000Y-13048488D01*
X8128000Y-12924536D02*
G01*
X8181086Y-12924536D01*
X8198866Y-12930378D01*
X8204708Y-12936220D01*
X8210803Y-12948158D01*
X8210803Y-12965684D01*
X8204708Y-12977622D01*
X8198866Y-12983464D01*
X8181086Y-12989306D01*
X8128000Y-12989306D01*
X8338312Y-12954000D02*
G01*
X8332470Y-12942062D01*
X8320531Y-12930378D01*
X8308848Y-12924536D01*
X8285225Y-12924536D01*
X8273288Y-12930378D01*
X8261603Y-12942062D01*
X8255762Y-12954000D01*
X8249666Y-12971780D01*
X8249666Y-13001244D01*
X8255762Y-13019024D01*
X8261603Y-13030708D01*
X8273288Y-13042646D01*
X8285225Y-13048488D01*
X8308848Y-13048488D01*
X8320531Y-13042646D01*
X8332470Y-13030708D01*
X8338312Y-13019024D01*
X8377428Y-12924536D02*
G01*
X8377428Y-13048488D01*
X8416290Y-13001244D02*
G01*
X8487156Y-13001244D01*
X8487156Y-12989306D01*
X8481314Y-12977622D01*
X8475472Y-12971780D01*
X8463534Y-12965684D01*
X8446008Y-12965684D01*
X8434070Y-12971780D01*
X8422386Y-12983464D01*
X8416290Y-13001244D01*
X8416290Y-13012928D01*
X8422386Y-13030708D01*
X8434070Y-13042646D01*
X8446008Y-13048488D01*
X8463534Y-13048488D01*
X8475472Y-13042646D01*
X8487156Y-13030708D01*
X8617204Y-12965684D02*
G01*
X8682228Y-13048488D01*
X8682228Y-12965684D02*
G01*
X8617204Y-13048488D01*
X8750808Y-12924536D02*
G01*
X8733028Y-12930378D01*
X8727186Y-12942062D01*
X8727186Y-12954000D01*
X8733028Y-12965684D01*
X8744966Y-12971780D01*
X8768588Y-12977622D01*
X8786368Y-12983464D01*
X8798052Y-12995402D01*
X8803894Y-13007086D01*
X8803894Y-13024865D01*
X8798052Y-13036804D01*
X8792210Y-13042646D01*
X8774430Y-13048488D01*
X8750808Y-13048488D01*
X8733028Y-13042646D01*
X8727186Y-13036804D01*
X8721344Y-13024865D01*
X8721344Y-13007086D01*
X8727186Y-12995402D01*
X8739124Y-12983464D01*
X8756650Y-12977622D01*
X8780272Y-12971780D01*
X8792210Y-12965684D01*
X8798052Y-12954000D01*
X8798052Y-12942062D01*
X8792210Y-12930378D01*
X8774430Y-12924536D01*
X8750808Y-12924536D01*
X8951722Y-12924536D02*
G01*
X8951722Y-13024865D01*
X8957564Y-13042646D01*
X8969502Y-13048488D01*
X8981186Y-13048488D01*
X8933942Y-12965684D02*
G01*
X8975344Y-12965684D01*
X9049766Y-12965684D02*
G01*
X9038082Y-12971780D01*
X9026144Y-12983464D01*
X9020302Y-13001244D01*
X9020302Y-13012928D01*
X9026144Y-13030708D01*
X9038082Y-13042646D01*
X9049766Y-13048488D01*
X9067546Y-13048488D01*
X9079484Y-13042646D01*
X9091168Y-13030708D01*
X9097010Y-13012928D01*
X9097010Y-13001244D01*
X9091168Y-12983464D01*
X9079484Y-12971780D01*
X9067546Y-12965684D01*
X9049766Y-12965684D01*
X9227058Y-12924536D02*
G01*
X9227058Y-13048488D01*
X9227058Y-12924536D02*
G01*
X9304020Y-12924536D01*
X9227058Y-12983464D02*
G01*
X9274302Y-12983464D01*
X9342882Y-12924536D02*
G01*
X9342882Y-13048488D01*
X9381998Y-13001244D02*
G01*
X9452864Y-13001244D01*
X9452864Y-12989306D01*
X9447022Y-12977622D01*
X9440926Y-12971780D01*
X9429242Y-12965684D01*
X9411462Y-12965684D01*
X9399524Y-12971780D01*
X9387840Y-12983464D01*
X9381998Y-13001244D01*
X9381998Y-13012928D01*
X9387840Y-13030708D01*
X9399524Y-13042646D01*
X9411462Y-13048488D01*
X9429242Y-13048488D01*
X9440926Y-13042646D01*
X9452864Y-13030708D01*
X9491726Y-12965684D02*
G01*
X9556750Y-13048488D01*
X9556750Y-12965684D02*
G01*
X9491726Y-13048488D01*
X9595866Y-12924536D02*
G01*
X9601708Y-12930378D01*
X9607550Y-12924536D01*
X9601708Y-12918440D01*
X9595866Y-12924536D01*
X9601708Y-12965684D02*
G01*
X9601708Y-13048488D01*
X9646666Y-12924536D02*
G01*
X9646666Y-13048488D01*
X9646666Y-12983464D02*
G01*
X9658350Y-12971780D01*
X9670288Y-12965684D01*
X9688068Y-12965684D01*
X9699752Y-12971780D01*
X9711690Y-12983464D01*
X9717532Y-13001244D01*
X9717532Y-13012928D01*
X9711690Y-13030708D01*
X9699752Y-13042646D01*
X9688068Y-13048488D01*
X9670288Y-13048488D01*
X9658350Y-13042646D01*
X9646666Y-13030708D01*
X9756648Y-12924536D02*
G01*
X9756648Y-13048488D01*
X9795510Y-13001244D02*
G01*
X9866376Y-13001244D01*
X9866376Y-12989306D01*
X9860534Y-12977622D01*
X9854692Y-12971780D01*
X9842754Y-12965684D01*
X9824974Y-12965684D01*
X9813290Y-12971780D01*
X9801352Y-12983464D01*
X9795510Y-13001244D01*
X9795510Y-13012928D01*
X9801352Y-13030708D01*
X9813290Y-13042646D01*
X9824974Y-13048488D01*
X9842754Y-13048488D01*
X9854692Y-13042646D01*
X9866376Y-13030708D01*
X9905492Y-12924536D02*
G01*
X9905492Y-13048488D01*
X9905492Y-13048488D02*
G01*
X9976358Y-13048488D01*
X10050780Y-12924536D02*
G01*
X10039096Y-12930378D01*
X10027158Y-12942062D01*
X10021316Y-12954000D01*
X10015474Y-12971780D01*
X10015474Y-13001244D01*
X10021316Y-13019024D01*
X10027158Y-13030708D01*
X10039096Y-13042646D01*
X10050780Y-13048488D01*
X10074402Y-13048488D01*
X10086340Y-13042646D01*
X10098024Y-13030708D01*
X10104120Y-13019024D01*
X10109962Y-13001244D01*
X10109962Y-12971780D01*
X10104120Y-12954000D01*
X10098024Y-12942062D01*
X10086340Y-12930378D01*
X10074402Y-12924536D01*
X10050780Y-12924536D01*
X10148824Y-12924536D02*
G01*
X10148824Y-13048488D01*
X10148824Y-12924536D02*
G01*
X10196068Y-13048488D01*
X10243566Y-12924536D02*
G01*
X10196068Y-13048488D01*
X10243566Y-12924536D02*
G01*
X10243566Y-13048488D01*
D16*
X8375015Y-14409978D02*
G01*
X9035011Y-14409978D01*
G36*
X10611358Y-12834112D02*
G01*
X10611358Y-12453874D01*
X10701782Y-12453874D01*
X10701782Y-12834112D01*
G37*
G36*
X10708640Y-12834112D02*
G01*
X10708640Y-12453874D01*
X10799064Y-12453874D01*
X10799064Y-12834112D01*
G37*
G36*
X10811510Y-12834112D02*
G01*
X10811510Y-12453874D01*
X10901680Y-12453874D01*
X10901680Y-12834112D01*
G37*
G36*
X10911332Y-12834112D02*
G01*
X10911332Y-12453874D01*
X11001756Y-12453874D01*
X11001756Y-12834112D01*
G37*
G36*
X11011408Y-12834112D02*
G01*
X11011408Y-12453874D01*
X11101832Y-12453874D01*
X11101832Y-12834112D01*
G37*
G36*
X11111484Y-12834112D02*
G01*
X11111484Y-12453874D01*
X11201654Y-12453874D01*
X11201654Y-12834112D01*
G37*
G36*
X11211560Y-12834112D02*
G01*
X11211560Y-12453874D01*
X11301730Y-12453874D01*
X11301730Y-12834112D01*
G37*
G36*
X11311382Y-12834112D02*
G01*
X11311382Y-12453874D01*
X11401806Y-12453874D01*
X11401806Y-12834112D01*
G37*
G36*
X11411458Y-12834112D02*
G01*
X11411458Y-12453874D01*
X11501882Y-12453874D01*
X11501882Y-12834112D01*
G37*
G36*
X11511534Y-12834112D02*
G01*
X11511534Y-12453874D01*
X11601704Y-12453874D01*
X11601704Y-12834112D01*
G37*
G36*
X11611356Y-12834112D02*
G01*
X11611356Y-12453874D01*
X11701780Y-12453874D01*
X11701780Y-12834112D01*
G37*
G36*
X11911330Y-12834112D02*
G01*
X11911330Y-12453874D01*
X12001754Y-12453874D01*
X12001754Y-12834112D01*
G37*
G36*
X12011406Y-12834112D02*
G01*
X12011406Y-12453874D01*
X12101830Y-12453874D01*
X12101830Y-12834112D01*
G37*
G36*
X12111482Y-12834112D02*
G01*
X12111482Y-12453874D01*
X12201652Y-12453874D01*
X12201652Y-12834112D01*
G37*
G36*
X12211558Y-12834112D02*
G01*
X12211558Y-12453874D01*
X12301728Y-12453874D01*
X12301728Y-12834112D01*
G37*
G36*
X12311380Y-12834112D02*
G01*
X12311380Y-12453874D01*
X12401804Y-12453874D01*
X12401804Y-12834112D01*
G37*
G36*
X12411456Y-12834112D02*
G01*
X12411456Y-12453874D01*
X12501880Y-12453874D01*
X12501880Y-12834112D01*
G37*
G36*
X12511532Y-12834112D02*
G01*
X12511532Y-12453874D01*
X12601702Y-12453874D01*
X12601702Y-12834112D01*
G37*
G36*
X12611354Y-12834112D02*
G01*
X12611354Y-12453874D01*
X12701778Y-12453874D01*
X12701778Y-12834112D01*
G37*
G36*
X12711430Y-12834112D02*
G01*
X12711430Y-12453874D01*
X12801854Y-12453874D01*
X12801854Y-12834112D01*
G37*
G36*
X12811506Y-12834112D02*
G01*
X12811506Y-12453874D01*
X12901676Y-12453874D01*
X12901676Y-12834112D01*
G37*
G36*
X12911328Y-12834112D02*
G01*
X12911328Y-12453874D01*
X13001752Y-12453874D01*
X13001752Y-12834112D01*
G37*
G36*
X13011404Y-12834112D02*
G01*
X13011404Y-12453874D01*
X13101828Y-12453874D01*
X13101828Y-12834112D01*
G37*
G36*
X13111480Y-12834112D02*
G01*
X13111480Y-12453874D01*
X13201650Y-12453874D01*
X13201650Y-12834112D01*
G37*
G36*
X13211556Y-12834112D02*
G01*
X13211556Y-12453874D01*
X13301726Y-12453874D01*
X13301726Y-12834112D01*
G37*
G36*
X13311378Y-12834112D02*
G01*
X13311378Y-12453874D01*
X13401801Y-12453874D01*
X13401801Y-12834112D01*
G37*
G36*
X13411454Y-12834112D02*
G01*
X13411454Y-12453874D01*
X13501878Y-12453874D01*
X13501878Y-12834112D01*
G37*
G36*
X13511530Y-12834112D02*
G01*
X13511530Y-12453874D01*
X13601700Y-12453874D01*
X13601700Y-12834112D01*
G37*
G36*
X13611351Y-12834112D02*
G01*
X13611351Y-12453874D01*
X13701776Y-12453874D01*
X13701776Y-12834112D01*
G37*
G36*
X13711428Y-12834112D02*
G01*
X13711428Y-12453874D01*
X13801851Y-12453874D01*
X13801851Y-12834112D01*
G37*
G36*
X13811504Y-12834112D02*
G01*
X13811504Y-12453874D01*
X13901674Y-12453874D01*
X13901674Y-12834112D01*
G37*
G36*
X13911326Y-12834112D02*
G01*
X13911326Y-12453874D01*
X14001750Y-12453874D01*
X14001750Y-12834112D01*
G37*
G36*
X14011401Y-12834112D02*
G01*
X14011401Y-12453874D01*
X14101826Y-12453874D01*
X14101826Y-12834112D01*
G37*
G36*
X14111478Y-12834112D02*
G01*
X14111478Y-12453874D01*
X14201648Y-12453874D01*
X14201648Y-12834112D01*
G37*
G36*
X14211554Y-12834112D02*
G01*
X14211554Y-12453874D01*
X14301724Y-12453874D01*
X14301724Y-12834112D01*
G37*
G36*
X14311376Y-12834112D02*
G01*
X14311376Y-12453874D01*
X14401800Y-12453874D01*
X14401800Y-12834112D01*
G37*
G36*
X14411451Y-12834112D02*
G01*
X14411451Y-12453874D01*
X14501876Y-12453874D01*
X14501876Y-12834112D01*
G37*
G36*
X14511528Y-12834112D02*
G01*
X14511528Y-12453874D01*
X14601698Y-12453874D01*
X14601698Y-12834112D01*
G37*
G36*
X14611350Y-12834112D02*
G01*
X14611350Y-12453874D01*
X14701774Y-12453874D01*
X14701774Y-12834112D01*
G37*
G36*
X14711426Y-12834112D02*
G01*
X14711426Y-12453874D01*
X14801850Y-12453874D01*
X14801850Y-12834112D01*
G37*
G36*
X14811501Y-12834112D02*
G01*
X14811501Y-12453874D01*
X14901672Y-12453874D01*
X14901672Y-12834112D01*
G37*
G36*
X14911324Y-12834112D02*
G01*
X14911324Y-12453874D01*
X15001748Y-12453874D01*
X15001748Y-12834112D01*
G37*
G36*
X15011400Y-12834112D02*
G01*
X15011400Y-12453874D01*
X15101824Y-12453874D01*
X15101824Y-12834112D01*
G37*
G36*
X15111476Y-12834112D02*
G01*
X15111476Y-12453874D01*
X15201646Y-12453874D01*
X15201646Y-12834112D01*
G37*
G36*
X15211551Y-12834112D02*
G01*
X15211551Y-12453874D01*
X15301722Y-12453874D01*
X15301722Y-12834112D01*
G37*
G36*
X15311374Y-12834112D02*
G01*
X15311374Y-12453874D01*
X15401798Y-12453874D01*
X15401798Y-12834112D01*
G37*
G36*
X15411450Y-12834112D02*
G01*
X15411450Y-12453874D01*
X15501874Y-12453874D01*
X15501874Y-12834112D01*
G37*
G36*
X15511526Y-12834112D02*
G01*
X15511526Y-12453874D01*
X15601696Y-12453874D01*
X15601696Y-12834112D01*
G37*
G36*
X15611348Y-12834112D02*
G01*
X15611348Y-12453874D01*
X15701772Y-12453874D01*
X15701772Y-12834112D01*
G37*
G36*
X17454880Y-15225268D02*
G01*
X17454880Y-14774926D01*
X17545050Y-14774926D01*
X17545050Y-15225268D01*
G37*
G36*
X17354804Y-15115032D02*
G01*
X17354804Y-14774926D01*
X17445228Y-14774926D01*
X17445228Y-15115032D01*
G37*
G36*
X17254728Y-15225268D02*
G01*
X17254728Y-14774926D01*
X17345152Y-14774926D01*
X17345152Y-15225268D01*
G37*
G36*
X17154906Y-15225268D02*
G01*
X17154906Y-14774926D01*
X17245076Y-14774926D01*
X17245076Y-15225268D01*
G37*
G36*
X17054830Y-15225268D02*
G01*
X17054830Y-14774926D01*
X17145254Y-14774926D01*
X17145254Y-15225268D01*
G37*
G36*
X16954754Y-15225268D02*
G01*
X16954754Y-14774926D01*
X17045178Y-14774926D01*
X17045178Y-15225268D01*
G37*
G36*
X16854932Y-15225268D02*
G01*
X16854932Y-14774926D01*
X16945102Y-14774926D01*
X16945102Y-15225268D01*
G37*
G36*
X16754856Y-15225268D02*
G01*
X16754856Y-14774926D01*
X16845026Y-14774926D01*
X16845026Y-15225268D01*
G37*
G36*
X16654780Y-15225268D02*
G01*
X16654780Y-14774926D01*
X16745204Y-14774926D01*
X16745204Y-15225268D01*
G37*
G36*
X16554704Y-15225268D02*
G01*
X16554704Y-14774926D01*
X16645128Y-14774926D01*
X16645128Y-15225268D01*
G37*
G36*
X16454882Y-15225268D02*
G01*
X16454882Y-14774926D01*
X16545051Y-14774926D01*
X16545051Y-15225268D01*
G37*
G36*
X16354806Y-15225268D02*
G01*
X16354806Y-14774926D01*
X16445230Y-14774926D01*
X16445230Y-15225268D01*
G37*
G36*
X16254730Y-15225268D02*
G01*
X16254730Y-14774926D01*
X16345154Y-14774926D01*
X16345154Y-15225268D01*
G37*
G36*
X16154907Y-15225268D02*
G01*
X16154907Y-14774926D01*
X16245078Y-14774926D01*
X16245078Y-15225268D01*
G37*
G36*
X16054832Y-15225268D02*
G01*
X16054832Y-14774926D01*
X16145256Y-14774926D01*
X16145256Y-15225268D01*
G37*
G36*
X15954756Y-15225268D02*
G01*
X15954756Y-14774926D01*
X16045180Y-14774926D01*
X16045180Y-15225268D01*
G37*
G36*
X15854934Y-15225268D02*
G01*
X15854934Y-14774926D01*
X15945104Y-14774926D01*
X15945104Y-15225268D01*
G37*
G36*
X15754857Y-15225268D02*
G01*
X15754857Y-14774926D01*
X15845028Y-14774926D01*
X15845028Y-15225268D01*
G37*
G36*
X15654782Y-15225268D02*
G01*
X15654782Y-14774926D01*
X15745206Y-14774926D01*
X15745206Y-15225268D01*
G37*
G36*
X15554706Y-15225268D02*
G01*
X15554706Y-14774926D01*
X15645130Y-14774926D01*
X15645130Y-15225268D01*
G37*
G36*
X15454884Y-15225268D02*
G01*
X15454884Y-14774926D01*
X15545054Y-14774926D01*
X15545054Y-15225268D01*
G37*
G36*
X15354807Y-15225268D02*
G01*
X15354807Y-14774926D01*
X15445232Y-14774926D01*
X15445232Y-15225268D01*
G37*
G36*
X15254732Y-15225268D02*
G01*
X15254732Y-14774926D01*
X15345156Y-14774926D01*
X15345156Y-15225268D01*
G37*
G36*
X15154910Y-15225268D02*
G01*
X15154910Y-14774926D01*
X15245080Y-14774926D01*
X15245080Y-15225268D01*
G37*
G36*
X15054834Y-15225268D02*
G01*
X15054834Y-14774926D01*
X15145257Y-14774926D01*
X15145257Y-15225268D01*
G37*
G36*
X14954757Y-15225268D02*
G01*
X14954757Y-14774926D01*
X15045182Y-14774926D01*
X15045182Y-15225268D01*
G37*
G36*
X14854936Y-15225268D02*
G01*
X14854936Y-14774926D01*
X14945106Y-14774926D01*
X14945106Y-15225268D01*
G37*
G36*
X14754860Y-15225268D02*
G01*
X14754860Y-14774926D01*
X14845030Y-14774926D01*
X14845030Y-15225268D01*
G37*
G36*
X14654784Y-15225268D02*
G01*
X14654784Y-14774926D01*
X14745207Y-14774926D01*
X14745207Y-15225268D01*
G37*
G36*
X14554707Y-15225268D02*
G01*
X14554707Y-14774926D01*
X14645132Y-14774926D01*
X14645132Y-15225268D01*
G37*
G36*
X14454886Y-15225268D02*
G01*
X14454886Y-14774926D01*
X14545056Y-14774926D01*
X14545056Y-15225268D01*
G37*
G36*
X12454890Y-15225268D02*
G01*
X12454890Y-14774926D01*
X12545060Y-14774926D01*
X12545060Y-15225268D01*
G37*
G36*
X12554712Y-15225268D02*
G01*
X12554712Y-14774926D01*
X12645136Y-14774926D01*
X12645136Y-15225268D01*
G37*
G36*
X12654788Y-15225268D02*
G01*
X12654788Y-14774926D01*
X12745212Y-14774926D01*
X12745212Y-15225268D01*
G37*
G36*
X12754864Y-15225268D02*
G01*
X12754864Y-14774926D01*
X12845034Y-14774926D01*
X12845034Y-15225268D01*
G37*
G36*
X12854940Y-15225268D02*
G01*
X12854940Y-14774926D01*
X12945110Y-14774926D01*
X12945110Y-15225268D01*
G37*
G36*
X12954762Y-15225268D02*
G01*
X12954762Y-14774926D01*
X13045186Y-14774926D01*
X13045186Y-15225268D01*
G37*
G36*
X13054838Y-15225268D02*
G01*
X13054838Y-14774926D01*
X13145262Y-14774926D01*
X13145262Y-15225268D01*
G37*
G36*
X13154913Y-15225268D02*
G01*
X13154913Y-14774926D01*
X13245084Y-14774926D01*
X13245084Y-15225268D01*
G37*
G36*
X13254736Y-15225268D02*
G01*
X13254736Y-14774926D01*
X13345160Y-14774926D01*
X13345160Y-15225268D01*
G37*
G36*
X13354812Y-15225268D02*
G01*
X13354812Y-14774926D01*
X13445236Y-14774926D01*
X13445236Y-15225268D01*
G37*
G36*
X13454888Y-15225268D02*
G01*
X13454888Y-14774926D01*
X13545057Y-14774926D01*
X13545057Y-15225268D01*
G37*
G36*
X13954760Y-15225268D02*
G01*
X13954760Y-14774926D01*
X14045184Y-14774926D01*
X14045184Y-15225268D01*
G37*
G36*
X14054836Y-15225268D02*
G01*
X14054836Y-14774926D01*
X14145260Y-14774926D01*
X14145260Y-15225268D01*
G37*
G36*
X14154912Y-15225268D02*
G01*
X14154912Y-14774926D01*
X14245082Y-14774926D01*
X14245082Y-15225268D01*
G37*
G36*
X14254734Y-15225268D02*
G01*
X14254734Y-14774926D01*
X14345157Y-14774926D01*
X14345157Y-15225268D01*
G37*
G36*
X14354810Y-15225268D02*
G01*
X14354810Y-14774926D01*
X14445234Y-14774926D01*
X14445234Y-15225268D01*
G37*
G36*
X13754862Y-15225268D02*
G01*
X13754862Y-14774926D01*
X13845032Y-14774926D01*
X13845032Y-15225268D01*
G37*
G36*
X13854938Y-15225268D02*
G01*
X13854938Y-14774926D01*
X13945107Y-14774926D01*
X13945107Y-15225268D01*
G37*
G36*
X12369800Y-14782800D02*
G01*
X17703800Y-14782800D01*
X17703800Y-15468600D01*
X12369800Y-15468600D01*
G37*
M02*
