M48
METRIC,LZ,000.000
;FILE_FORMAT=3:3
;TYPE=PLATED
;Layer: Drill PTH
;EasyEDA v6.4.25, 2021-10-11T08:22:16+08:00
;810a2c9a40b449618898816b7f75cef1,119f753a6ce64b8d841f2ad33262ab0c,10
;Gerber Generator version 0.2
;Holesize 1 = 0.301 mm
T01C0.301
;Holesize 2 = 3.200 mm
T02C3.200
%
G05
G90
T01
X142881Y-145500
X142119Y-145500
X131826Y-146812
X106566Y-129040
X126000Y-146000
X127000Y-146000
X126000Y-147000
X127000Y-147000
X107539Y-130064
X108566Y-130064
X107539Y-129040
X108566Y-129040
X107539Y-131064
X108566Y-131064
X126000Y-145000
X125000Y-146000
X125000Y-147000
X125000Y-145000
X140881Y-146440
X140119Y-146440
X119126Y-131064
X145119Y-146500
X145881Y-146500
X147119Y-145500
X147881Y-145500
X174500Y-146000
X174500Y-145000
X141500Y-147000
X141500Y-146000
X141500Y-145000
X143500Y-145000
X143500Y-146000
X141000Y-143000
X142000Y-143000
X143000Y-141000
X144000Y-141000
X145000Y-139000
X146000Y-139000
X144500Y-147000
X144500Y-146000
X146500Y-146000
X146500Y-147000
X146500Y-145000
X148500Y-146000
X148500Y-147000
X150500Y-146000
X150500Y-145000
X150500Y-147000
X152500Y-146000
X152500Y-147000
X154500Y-147000
X154500Y-146000
X154500Y-145000
X156500Y-145000
X156500Y-146000
X156500Y-147000
X158500Y-146000
X158500Y-147000
X160500Y-147000
X160500Y-146000
X160500Y-145000
X162500Y-145000
X162500Y-146000
X162500Y-147000
X164500Y-147000
X164500Y-146000
X164500Y-145000
X166500Y-145000
X166500Y-146000
X166500Y-147000
X168500Y-147000
X168500Y-146000
X168500Y-145000
X170500Y-145000
X170500Y-146000
X170500Y-147000
X172500Y-147000
X172500Y-146000
X172500Y-145000
X148500Y-145100
X152500Y-145100
X138497Y-147002
X154066Y-128940
X152066Y-128940
X150066Y-128940
X148066Y-128940
X146066Y-128940
X144066Y-128940
X142066Y-128940
X140066Y-128940
X138066Y-128940
X136066Y-128940
X134066Y-128940
X132066Y-128940
X130066Y-128940
X128066Y-128940
X126066Y-128940
X123066Y-128940
X156066Y-128940
X120566Y-128940
X162000Y-131000
X120566Y-130302
X123166Y-132310
X124666Y-133810
X126166Y-135310
X127666Y-136810
X129166Y-138310
X130666Y-139810
X132166Y-141310
X133666Y-142810
X135166Y-144310
X159258Y-128940
X157662Y-128940
X148000Y-137000
X149000Y-135000
X150000Y-135000
X151000Y-133000
X152000Y-133000
X153000Y-131000
X154000Y-131000
X147000Y-137000
X128000Y-147000
X129794Y-146558
X110066Y-129040
X111566Y-129040
X112566Y-129040
X113566Y-129040
X139500Y-145900
X115332Y-136398
X117332Y-136398
X115332Y-135398
X116332Y-135398
X117332Y-135398
X116332Y-136398
X129000Y-146000
X129000Y-147000
X119043Y-129286
X113500Y-133250
X115500Y-132250
X114500Y-133250
X113500Y-132250
X115500Y-133250
X114500Y-132250
X174500Y-147000
X115316Y-130302
X117856Y-129286
X120566Y-132334
X122150Y-133834
X173881Y-145500
X173119Y-145500
X169881Y-145500
X169119Y-145500
X149119Y-146500
X149881Y-146500
X153119Y-146500
X153881Y-146500
X151119Y-145500
X151881Y-145500
X155119Y-145500
X155881Y-145500
X159119Y-146500
X159881Y-146500
X163119Y-146500
X163881Y-146500
X167119Y-146500
X167881Y-146500
X171119Y-146500
X171881Y-146500
X161119Y-145500
X161881Y-145500
X165119Y-145500
X165881Y-145500
X118388Y-133374
X123650Y-135333
X125150Y-136833
X126650Y-138333
X128151Y-139832
X129651Y-141332
X131151Y-142832
X132651Y-144331
X134151Y-145831
X160500Y-129500
X163500Y-132500
X164999Y-134000
X166499Y-135500
X167999Y-137000
X169499Y-138500
X170999Y-140000
X172499Y-141501
X173999Y-143001
X150622Y-138176
X152122Y-139676
X153622Y-141176
X155122Y-142676
X156621Y-144176
X152654Y-137160
X154154Y-138660
X155654Y-140160
X157154Y-141660
X158653Y-143160
X126066Y-129794
X123066Y-130302
X128066Y-129794
X130066Y-129794
X132066Y-129794
X134066Y-129794
X136066Y-129794
X138066Y-129794
X140066Y-129794
X142066Y-129794
X144066Y-129794
X146066Y-129794
X148066Y-129794
X150066Y-129794
X152066Y-129794
X157480Y-146396
X157480Y-145542
X139500Y-145046
X116856Y-143510
X117856Y-142510
X116856Y-142510
X115856Y-142510
X117856Y-143510
X115856Y-143510
X115856Y-144510
X117856Y-144510
X116856Y-144510
X093218Y-147828
X080772Y-147828
X128270Y-145796
X171736Y-124714
X171736Y-125714
X171736Y-126714
X172736Y-126714
X173736Y-126714
X173736Y-125714
X172736Y-125714
X172736Y-124714
X173736Y-124714
T02
X083650Y-144100G85X090450Y-144100
M30
