G04 Layer: BottomLayer*
G04 EasyEDA v6.4.25, 2021-10-11T08:22:16+08:00*
G04 810a2c9a40b449618898816b7f75cef1,119f753a6ce64b8d841f2ad33262ab0c,10*
G04 Gerber Generator version 0.2*
G04 Scale: 100 percent, Rotated: No, Reflected: No *
G04 Dimensions in millimeters *
G04 leading zeros omitted , absolute positions ,4 integer and 5 decimal *
%FSLAX45Y45*%
%MOMM*%

%ADD10C,0.2540*%
%ADD11C,0.2083*%
%ADD12C,0.7000*%
%ADD13C,0.5999*%
%ADD14C,6.4000*%
%ADD15C,2.7000*%

%LPD*%
G36*
X13954658Y-14614499D02*
G01*
X13950238Y-14613940D01*
X13946428Y-14611553D01*
X13887399Y-14552523D01*
X13885163Y-14549221D01*
X13884401Y-14545360D01*
X13884401Y-14492782D01*
X13883589Y-14484350D01*
X13881252Y-14476679D01*
X13877442Y-14469618D01*
X13872057Y-14463013D01*
X13786916Y-14377873D01*
X13780312Y-14372488D01*
X13773251Y-14368678D01*
X13765580Y-14366341D01*
X13757148Y-14365528D01*
X13703807Y-14365528D01*
X13699896Y-14364766D01*
X13696645Y-14362531D01*
X12469012Y-13134949D01*
X12466777Y-13131647D01*
X12466015Y-13127736D01*
X12466015Y-12864693D01*
X12466777Y-12860782D01*
X12469012Y-12857480D01*
X12472263Y-12855295D01*
X12476175Y-12854533D01*
X12491110Y-12854533D01*
X12497511Y-12853873D01*
X12503658Y-12852044D01*
X12506604Y-12851587D01*
X12509550Y-12852044D01*
X12515646Y-12853873D01*
X12522098Y-12854533D01*
X12591084Y-12854533D01*
X12597536Y-12853873D01*
X12603632Y-12852044D01*
X12606578Y-12851587D01*
X12609525Y-12852044D01*
X12615672Y-12853873D01*
X12622072Y-12854533D01*
X12637008Y-12854533D01*
X12640919Y-12855295D01*
X12644170Y-12857480D01*
X12646406Y-12860782D01*
X12647168Y-12864693D01*
X12647168Y-13063778D01*
X12647980Y-13072211D01*
X12650317Y-13079882D01*
X12654127Y-13086943D01*
X12659512Y-13093547D01*
X13987576Y-14421612D01*
X13989761Y-14424913D01*
X13990574Y-14428774D01*
X13990574Y-14580971D01*
X13989913Y-14584527D01*
X13988034Y-14587626D01*
X13985240Y-14589861D01*
X13978788Y-14593366D01*
X13970914Y-14599513D01*
X13964157Y-14606828D01*
X13962126Y-14609927D01*
X13958925Y-14613077D01*
G37*

%LPD*%
G36*
X13786307Y-14782800D02*
G01*
X13782395Y-14782038D01*
X13779093Y-14779802D01*
X13776909Y-14776551D01*
X13776147Y-14772640D01*
X13776147Y-14753183D01*
X13773353Y-14750897D01*
X13771524Y-14747798D01*
X13770914Y-14744293D01*
X13770914Y-14628672D01*
X13771676Y-14624761D01*
X13773861Y-14621510D01*
X13777163Y-14619274D01*
X13781024Y-14618512D01*
X13784935Y-14619274D01*
X13788237Y-14621510D01*
X13887551Y-14720824D01*
X13889786Y-14724126D01*
X13890548Y-14727986D01*
X13890548Y-14744293D01*
X13889786Y-14748205D01*
X13887551Y-14751456D01*
X13884300Y-14753691D01*
X13880388Y-14754453D01*
X13865453Y-14754453D01*
X13859052Y-14755063D01*
X13852906Y-14756942D01*
X13849959Y-14757400D01*
X13847013Y-14756942D01*
X13840917Y-14755063D01*
X13834465Y-14754453D01*
X13823848Y-14754453D01*
X13823848Y-14772640D01*
X13823035Y-14776551D01*
X13820851Y-14779802D01*
X13817549Y-14782038D01*
X13813688Y-14782800D01*
G37*

%LPD*%
G36*
X12786309Y-14782800D02*
G01*
X12782397Y-14782038D01*
X12779095Y-14779802D01*
X12776911Y-14776551D01*
X12776149Y-14772640D01*
X12776149Y-14754453D01*
X12771729Y-14753691D01*
X12768478Y-14751456D01*
X12766243Y-14748205D01*
X12765481Y-14744293D01*
X12765481Y-14120926D01*
X12765227Y-14112138D01*
X12764566Y-14103502D01*
X12763449Y-14094917D01*
X12761874Y-14086382D01*
X12759842Y-14077950D01*
X12757353Y-14069669D01*
X12754508Y-14061490D01*
X12751155Y-14053464D01*
X12747447Y-14045641D01*
X12743281Y-14038072D01*
X12738760Y-14030655D01*
X12733883Y-14023543D01*
X12728600Y-14016634D01*
X12722961Y-14010081D01*
X12716916Y-14003680D01*
X12496292Y-13783056D01*
X12489891Y-13776960D01*
X12483287Y-13771372D01*
X12476429Y-13766088D01*
X12469266Y-13761161D01*
X12461900Y-13756640D01*
X12454280Y-13752525D01*
X12446457Y-13748766D01*
X12438481Y-13745463D01*
X12430302Y-13742568D01*
X12421971Y-13740130D01*
X12413538Y-13738098D01*
X12405055Y-13736523D01*
X12396470Y-13735354D01*
X12387834Y-13734694D01*
X12378994Y-13734491D01*
X11458143Y-13734491D01*
X11454231Y-13733678D01*
X11450929Y-13731494D01*
X10988903Y-13269417D01*
X10986668Y-13266115D01*
X10985906Y-13262254D01*
X10985906Y-13055854D01*
X10984992Y-13038277D01*
X10982299Y-13021208D01*
X10977778Y-13004444D01*
X10971580Y-12988290D01*
X10963706Y-12972846D01*
X10954308Y-12958318D01*
X10943386Y-12944856D01*
X10931144Y-12932613D01*
X10925860Y-12928346D01*
X10923066Y-12924840D01*
X10922101Y-12920472D01*
X10922101Y-12864693D01*
X10922863Y-12860782D01*
X10925098Y-12857480D01*
X10928350Y-12855295D01*
X10932769Y-12854533D01*
X10932769Y-12740386D01*
X10928350Y-12739573D01*
X10925098Y-12737388D01*
X10922863Y-12734086D01*
X10922101Y-12730226D01*
X10922101Y-12557810D01*
X10922863Y-12553950D01*
X10925098Y-12550648D01*
X10928350Y-12548463D01*
X10932769Y-12547650D01*
X10932769Y-12457379D01*
X10933531Y-12453467D01*
X10935716Y-12450216D01*
X10939018Y-12447981D01*
X10942929Y-12447219D01*
X10970310Y-12447219D01*
X10974171Y-12447981D01*
X10977473Y-12450216D01*
X10979658Y-12453467D01*
X10980470Y-12457379D01*
X10980470Y-12547650D01*
X11032744Y-12547650D01*
X11032744Y-12457379D01*
X11033506Y-12453467D01*
X11035741Y-12450216D01*
X11039043Y-12447981D01*
X11042904Y-12447219D01*
X11070285Y-12447219D01*
X11074196Y-12447981D01*
X11077448Y-12450216D01*
X11079683Y-12453467D01*
X11080445Y-12457379D01*
X11080445Y-12547650D01*
X11132769Y-12547650D01*
X11132769Y-12457379D01*
X11133531Y-12453467D01*
X11135715Y-12450216D01*
X11139017Y-12447981D01*
X11142929Y-12447219D01*
X11170310Y-12447219D01*
X11174171Y-12447981D01*
X11177473Y-12450216D01*
X11179657Y-12453467D01*
X11180470Y-12457379D01*
X11180470Y-12547650D01*
X11232743Y-12547650D01*
X11232743Y-12457379D01*
X11233505Y-12453467D01*
X11235740Y-12450216D01*
X11239042Y-12447981D01*
X11242903Y-12447219D01*
X11270284Y-12447219D01*
X11274196Y-12447981D01*
X11277447Y-12450216D01*
X11279682Y-12453467D01*
X11280444Y-12457379D01*
X11280444Y-12547650D01*
X11332768Y-12547650D01*
X11332768Y-12457379D01*
X11333530Y-12453467D01*
X11335715Y-12450216D01*
X11339017Y-12447981D01*
X11342928Y-12447219D01*
X11370310Y-12447219D01*
X11374170Y-12447981D01*
X11377472Y-12450216D01*
X11379657Y-12453467D01*
X11380470Y-12457379D01*
X11380470Y-12547650D01*
X11384838Y-12548463D01*
X11388090Y-12550648D01*
X11390325Y-12553950D01*
X11391087Y-12557810D01*
X11391087Y-12730226D01*
X11390325Y-12734086D01*
X11388090Y-12737388D01*
X11384838Y-12739573D01*
X11380470Y-12740386D01*
X11380470Y-12854533D01*
X11391087Y-12854533D01*
X11397538Y-12853873D01*
X11400282Y-12853060D01*
X11404041Y-12852654D01*
X11407648Y-12853619D01*
X11410696Y-12855854D01*
X11412677Y-12859054D01*
X11413388Y-12862763D01*
X11413439Y-13058444D01*
X11414556Y-13066674D01*
X11417096Y-13074243D01*
X11421008Y-13081203D01*
X11426393Y-13087654D01*
X11476837Y-13138099D01*
X11483492Y-13143077D01*
X11490604Y-13146633D01*
X11498275Y-13148818D01*
X11506657Y-13149630D01*
X11866524Y-13149630D01*
X11869826Y-13150138D01*
X11872772Y-13151764D01*
X11879529Y-13156996D01*
X11888317Y-13161772D01*
X11897766Y-13165023D01*
X11907621Y-13166648D01*
X11917578Y-13166648D01*
X11927433Y-13165023D01*
X11936882Y-13161772D01*
X11945670Y-13156996D01*
X11953544Y-13150900D01*
X11960301Y-13143534D01*
X11965787Y-13135203D01*
X11969800Y-13126008D01*
X11972239Y-13116356D01*
X11973052Y-13106400D01*
X11972239Y-13096443D01*
X11969800Y-13086791D01*
X11965787Y-13077596D01*
X11960301Y-13069265D01*
X11953544Y-13061899D01*
X11945670Y-13055803D01*
X11936882Y-13051028D01*
X11927433Y-13047776D01*
X11917578Y-13046151D01*
X11907621Y-13046151D01*
X11897766Y-13047776D01*
X11888317Y-13051028D01*
X11879529Y-13055803D01*
X11872772Y-13061035D01*
X11869826Y-13062661D01*
X11866524Y-13063219D01*
X11528298Y-13063219D01*
X11524437Y-13062407D01*
X11521135Y-13060222D01*
X11502796Y-13041884D01*
X11500561Y-13038582D01*
X11499799Y-13034670D01*
X11499799Y-12862763D01*
X11500510Y-12859054D01*
X11502491Y-12855854D01*
X11505539Y-12853619D01*
X11509146Y-12852654D01*
X11512905Y-12853060D01*
X11515648Y-12853873D01*
X11522100Y-12854533D01*
X11591086Y-12854533D01*
X11597538Y-12853873D01*
X11603634Y-12852044D01*
X11606580Y-12851587D01*
X11609527Y-12852044D01*
X11615674Y-12853873D01*
X11622074Y-12854533D01*
X11691112Y-12854533D01*
X11697512Y-12853873D01*
X11703253Y-12852146D01*
X11708536Y-12849301D01*
X11713108Y-12845542D01*
X11716918Y-12840919D01*
X11719712Y-12835636D01*
X11721490Y-12829946D01*
X11722100Y-12823494D01*
X11722100Y-12464491D01*
X11721490Y-12458090D01*
X11719712Y-12452350D01*
X11716918Y-12447066D01*
X11713108Y-12442494D01*
X11708536Y-12438684D01*
X11705082Y-12436856D01*
X11702135Y-12434468D01*
X11700256Y-12431217D01*
X11698630Y-12419126D01*
X11696090Y-12411557D01*
X11692178Y-12404598D01*
X11686794Y-12398146D01*
X11660936Y-12372340D01*
X11654332Y-12367310D01*
X11649913Y-12365126D01*
X11646458Y-12362281D01*
X11644528Y-12358217D01*
X11644579Y-12353696D01*
X11646560Y-12349683D01*
X11650065Y-12346889D01*
X11654434Y-12345873D01*
X17500041Y-12345873D01*
X17503902Y-12346635D01*
X17507204Y-12348870D01*
X17536058Y-12377724D01*
X17538293Y-12381026D01*
X17539055Y-12384887D01*
X17539055Y-14744293D01*
X17538293Y-14748205D01*
X17536058Y-14751456D01*
X17532807Y-14753691D01*
X17528895Y-14754453D01*
X17523815Y-14754453D01*
X17523815Y-14772640D01*
X17523053Y-14776551D01*
X17520818Y-14779802D01*
X17517567Y-14782038D01*
X17513655Y-14782800D01*
X17486274Y-14782800D01*
X17482362Y-14782038D01*
X17479111Y-14779802D01*
X17476876Y-14776551D01*
X17476114Y-14772640D01*
X17476114Y-14754453D01*
X17465446Y-14754453D01*
X17459045Y-14755063D01*
X17452898Y-14756942D01*
X17449952Y-14757400D01*
X17447006Y-14756942D01*
X17440910Y-14755063D01*
X17434458Y-14754453D01*
X17419574Y-14754453D01*
X17415662Y-14753691D01*
X17412360Y-14751456D01*
X17410176Y-14748205D01*
X17409414Y-14744293D01*
X17409414Y-14612975D01*
X17410023Y-14609419D01*
X17411903Y-14606320D01*
X17414697Y-14604085D01*
X17421148Y-14600580D01*
X17429022Y-14594433D01*
X17435779Y-14587118D01*
X17441265Y-14578736D01*
X17445278Y-14569592D01*
X17447717Y-14559889D01*
X17448530Y-14549983D01*
X17447717Y-14540026D01*
X17445278Y-14530324D01*
X17441265Y-14521180D01*
X17435779Y-14512798D01*
X17429022Y-14505482D01*
X17421148Y-14499336D01*
X17412360Y-14494560D01*
X17402911Y-14491360D01*
X17393056Y-14489684D01*
X17383099Y-14489684D01*
X17373244Y-14491360D01*
X17363795Y-14494560D01*
X17354804Y-14499437D01*
X17351654Y-14500555D01*
X17348301Y-14500555D01*
X17345152Y-14499437D01*
X17336160Y-14494560D01*
X17326711Y-14491360D01*
X17316856Y-14489684D01*
X17306848Y-14489684D01*
X17296993Y-14491360D01*
X17287544Y-14494560D01*
X17278756Y-14499336D01*
X17270882Y-14505482D01*
X17264126Y-14512798D01*
X17258690Y-14521180D01*
X17254677Y-14530324D01*
X17252188Y-14540026D01*
X17251375Y-14549983D01*
X17252188Y-14559889D01*
X17254677Y-14569592D01*
X17258690Y-14578736D01*
X17264126Y-14587118D01*
X17270882Y-14594433D01*
X17278756Y-14600580D01*
X17285208Y-14604085D01*
X17288052Y-14606320D01*
X17289881Y-14609419D01*
X17290542Y-14612975D01*
X17290542Y-14744293D01*
X17289780Y-14748205D01*
X17287544Y-14751456D01*
X17284293Y-14753691D01*
X17280382Y-14754453D01*
X17265446Y-14754453D01*
X17259046Y-14755063D01*
X17252899Y-14756942D01*
X17249952Y-14757400D01*
X17247006Y-14756942D01*
X17240910Y-14755063D01*
X17234458Y-14754453D01*
X17165472Y-14754453D01*
X17159020Y-14755063D01*
X17152924Y-14756942D01*
X17149978Y-14757400D01*
X17147032Y-14756942D01*
X17140885Y-14755063D01*
X17134484Y-14754453D01*
X17065447Y-14754453D01*
X17059046Y-14755063D01*
X17052899Y-14756942D01*
X17049953Y-14757400D01*
X17047006Y-14756942D01*
X17040910Y-14755063D01*
X17034459Y-14754453D01*
X17019574Y-14754453D01*
X17015663Y-14753691D01*
X17012361Y-14751456D01*
X17010176Y-14748205D01*
X17009414Y-14744293D01*
X17009414Y-14612975D01*
X17010024Y-14609419D01*
X17011904Y-14606320D01*
X17014698Y-14604085D01*
X17021149Y-14600580D01*
X17029023Y-14594433D01*
X17035780Y-14587118D01*
X17041266Y-14578736D01*
X17045279Y-14569592D01*
X17047718Y-14559889D01*
X17048530Y-14549983D01*
X17047718Y-14540026D01*
X17045279Y-14530324D01*
X17041266Y-14521180D01*
X17035780Y-14512798D01*
X17029023Y-14505482D01*
X17021149Y-14499336D01*
X17012361Y-14494560D01*
X17002912Y-14491360D01*
X16993057Y-14489684D01*
X16983100Y-14489684D01*
X16973245Y-14491360D01*
X16963796Y-14494560D01*
X16954804Y-14499437D01*
X16951655Y-14500555D01*
X16948302Y-14500555D01*
X16945152Y-14499437D01*
X16936161Y-14494560D01*
X16926712Y-14491360D01*
X16916857Y-14489684D01*
X16906849Y-14489684D01*
X16896994Y-14491360D01*
X16887545Y-14494560D01*
X16878757Y-14499336D01*
X16870883Y-14505482D01*
X16864126Y-14512798D01*
X16858691Y-14521180D01*
X16854678Y-14530324D01*
X16852188Y-14540026D01*
X16851376Y-14549983D01*
X16852188Y-14559889D01*
X16854678Y-14569592D01*
X16858691Y-14578736D01*
X16864126Y-14587118D01*
X16870883Y-14594433D01*
X16878757Y-14600580D01*
X16885208Y-14604085D01*
X16888053Y-14606320D01*
X16889882Y-14609419D01*
X16890542Y-14612975D01*
X16890542Y-14744293D01*
X16889780Y-14748205D01*
X16887545Y-14751456D01*
X16884294Y-14753691D01*
X16880382Y-14754453D01*
X16865447Y-14754453D01*
X16859046Y-14755063D01*
X16852900Y-14756942D01*
X16849953Y-14757400D01*
X16847007Y-14756942D01*
X16840911Y-14755063D01*
X16834459Y-14754453D01*
X16765473Y-14754453D01*
X16759021Y-14755063D01*
X16752925Y-14756942D01*
X16749979Y-14757400D01*
X16747032Y-14756942D01*
X16740886Y-14755063D01*
X16734485Y-14754453D01*
X16665448Y-14754453D01*
X16659047Y-14755063D01*
X16652900Y-14756942D01*
X16649954Y-14757400D01*
X16647007Y-14756942D01*
X16640911Y-14755063D01*
X16634460Y-14754453D01*
X16619575Y-14754453D01*
X16615663Y-14753691D01*
X16612362Y-14751456D01*
X16610177Y-14748205D01*
X16609415Y-14744293D01*
X16609415Y-14612975D01*
X16610025Y-14609419D01*
X16611904Y-14606320D01*
X16614698Y-14604085D01*
X16621150Y-14600580D01*
X16629024Y-14594433D01*
X16635780Y-14587118D01*
X16641267Y-14578736D01*
X16645280Y-14569592D01*
X16647718Y-14559889D01*
X16648531Y-14549983D01*
X16647718Y-14540026D01*
X16645280Y-14530324D01*
X16641267Y-14521180D01*
X16635780Y-14512798D01*
X16629024Y-14505482D01*
X16621150Y-14499336D01*
X16612362Y-14494560D01*
X16602913Y-14491360D01*
X16593057Y-14489684D01*
X16583101Y-14489684D01*
X16573246Y-14491360D01*
X16563797Y-14494560D01*
X16554805Y-14499437D01*
X16551656Y-14500555D01*
X16548303Y-14500555D01*
X16545153Y-14499437D01*
X16536162Y-14494560D01*
X16526713Y-14491360D01*
X16516857Y-14489684D01*
X16506850Y-14489684D01*
X16496995Y-14491360D01*
X16487546Y-14494560D01*
X16478757Y-14499336D01*
X16470884Y-14505482D01*
X16464127Y-14512798D01*
X16458692Y-14521180D01*
X16454678Y-14530324D01*
X16452189Y-14540026D01*
X16451376Y-14549983D01*
X16452189Y-14559889D01*
X16454678Y-14569592D01*
X16458692Y-14578736D01*
X16464127Y-14587118D01*
X16470884Y-14594433D01*
X16478757Y-14600580D01*
X16485209Y-14604085D01*
X16488054Y-14606320D01*
X16489883Y-14609419D01*
X16490543Y-14612975D01*
X16490543Y-14744293D01*
X16489781Y-14748205D01*
X16487546Y-14751456D01*
X16484295Y-14753691D01*
X16480383Y-14754453D01*
X16465448Y-14754453D01*
X16459047Y-14755063D01*
X16452900Y-14756942D01*
X16449954Y-14757400D01*
X16447007Y-14756942D01*
X16440912Y-14755063D01*
X16434460Y-14754453D01*
X16365474Y-14754453D01*
X16359022Y-14755063D01*
X16352926Y-14756942D01*
X16349980Y-14757400D01*
X16347033Y-14756942D01*
X16340886Y-14755063D01*
X16334486Y-14754453D01*
X16265448Y-14754453D01*
X16259048Y-14755063D01*
X16252901Y-14756942D01*
X16249954Y-14757400D01*
X16247008Y-14756942D01*
X16240912Y-14755063D01*
X16234460Y-14754453D01*
X16219576Y-14754453D01*
X16215664Y-14753691D01*
X16212362Y-14751456D01*
X16210178Y-14748205D01*
X16209416Y-14744293D01*
X16209416Y-14612975D01*
X16210026Y-14609419D01*
X16211905Y-14606320D01*
X16214699Y-14604085D01*
X16221151Y-14600580D01*
X16229025Y-14594433D01*
X16235781Y-14587118D01*
X16241268Y-14578736D01*
X16245281Y-14569592D01*
X16247719Y-14559889D01*
X16248532Y-14549983D01*
X16247719Y-14540026D01*
X16245281Y-14530324D01*
X16241268Y-14521180D01*
X16235781Y-14512798D01*
X16229025Y-14505482D01*
X16221151Y-14499336D01*
X16212362Y-14494560D01*
X16202913Y-14491360D01*
X16193058Y-14489684D01*
X16183101Y-14489684D01*
X16173246Y-14491360D01*
X16163798Y-14494560D01*
X16154806Y-14499437D01*
X16151656Y-14500555D01*
X16148304Y-14500555D01*
X16145154Y-14499437D01*
X16136162Y-14494560D01*
X16126713Y-14491360D01*
X16116858Y-14489684D01*
X16106851Y-14489684D01*
X16096996Y-14491360D01*
X16087547Y-14494560D01*
X16078758Y-14499336D01*
X16070884Y-14505482D01*
X16064128Y-14512798D01*
X16058692Y-14521180D01*
X16054679Y-14530324D01*
X16052190Y-14540026D01*
X16051377Y-14549983D01*
X16052190Y-14559889D01*
X16054679Y-14569592D01*
X16058692Y-14578736D01*
X16064128Y-14587118D01*
X16070884Y-14594433D01*
X16078758Y-14600580D01*
X16085210Y-14604085D01*
X16088055Y-14606320D01*
X16089884Y-14609419D01*
X16090544Y-14612975D01*
X16090544Y-14744293D01*
X16089782Y-14748205D01*
X16087547Y-14751456D01*
X16084296Y-14753691D01*
X16080384Y-14754453D01*
X16065449Y-14754453D01*
X16059048Y-14755063D01*
X16052901Y-14756942D01*
X16049955Y-14757400D01*
X16047008Y-14756942D01*
X16040912Y-14755063D01*
X16034461Y-14754453D01*
X15965474Y-14754453D01*
X15959023Y-14755063D01*
X15952927Y-14756942D01*
X15949980Y-14757400D01*
X15947034Y-14756942D01*
X15940887Y-14755063D01*
X15934486Y-14754453D01*
X15865449Y-14754453D01*
X15859048Y-14755063D01*
X15852901Y-14756942D01*
X15849955Y-14757400D01*
X15847009Y-14756942D01*
X15840913Y-14755063D01*
X15834461Y-14754453D01*
X15823844Y-14754453D01*
X15823844Y-14772640D01*
X15823031Y-14776551D01*
X15820847Y-14779802D01*
X15817545Y-14782038D01*
X15813684Y-14782800D01*
X15786303Y-14782800D01*
X15782391Y-14782038D01*
X15779089Y-14779802D01*
X15776905Y-14776551D01*
X15776143Y-14772640D01*
X15776143Y-14754453D01*
X15765475Y-14754453D01*
X15759023Y-14755063D01*
X15752927Y-14756942D01*
X15749981Y-14757400D01*
X15747034Y-14756942D01*
X15740888Y-14755063D01*
X15734487Y-14754453D01*
X15723819Y-14754453D01*
X15723819Y-14772640D01*
X15723057Y-14776551D01*
X15720822Y-14779802D01*
X15717570Y-14782038D01*
X15713659Y-14782800D01*
X15686278Y-14782800D01*
X15682366Y-14782038D01*
X15679115Y-14779802D01*
X15676880Y-14776551D01*
X15676118Y-14772640D01*
X15676118Y-14754453D01*
X15665450Y-14754453D01*
X15659049Y-14755063D01*
X15652902Y-14756942D01*
X15649956Y-14757400D01*
X15647009Y-14756942D01*
X15640913Y-14755063D01*
X15634462Y-14754453D01*
X15619577Y-14754453D01*
X15615666Y-14753691D01*
X15612363Y-14751456D01*
X15610179Y-14748205D01*
X15609417Y-14744293D01*
X15609417Y-14612975D01*
X15610027Y-14609419D01*
X15611906Y-14606320D01*
X15614700Y-14604085D01*
X15621152Y-14600580D01*
X15629026Y-14594433D01*
X15635782Y-14587118D01*
X15641269Y-14578736D01*
X15645282Y-14569592D01*
X15647720Y-14559889D01*
X15648533Y-14549983D01*
X15647720Y-14540026D01*
X15645282Y-14530324D01*
X15641269Y-14521180D01*
X15635782Y-14512798D01*
X15629026Y-14505482D01*
X15621152Y-14499336D01*
X15612363Y-14494560D01*
X15602915Y-14491360D01*
X15593060Y-14489684D01*
X15583103Y-14489684D01*
X15573248Y-14491360D01*
X15563799Y-14494560D01*
X15554807Y-14499437D01*
X15551657Y-14500555D01*
X15548305Y-14500555D01*
X15545155Y-14499437D01*
X15536163Y-14494560D01*
X15526715Y-14491360D01*
X15516860Y-14489684D01*
X15506852Y-14489684D01*
X15496997Y-14491360D01*
X15487548Y-14494560D01*
X15478760Y-14499336D01*
X15470886Y-14505482D01*
X15464129Y-14512798D01*
X15458694Y-14521180D01*
X15454680Y-14530324D01*
X15452191Y-14540026D01*
X15451378Y-14549983D01*
X15452191Y-14559889D01*
X15454680Y-14569592D01*
X15458694Y-14578736D01*
X15464129Y-14587118D01*
X15470886Y-14594433D01*
X15478760Y-14600580D01*
X15485211Y-14604085D01*
X15488056Y-14606320D01*
X15489885Y-14609419D01*
X15490545Y-14612975D01*
X15490545Y-14744293D01*
X15489783Y-14748205D01*
X15487548Y-14751456D01*
X15484297Y-14753691D01*
X15480385Y-14754453D01*
X15465450Y-14754453D01*
X15459049Y-14755063D01*
X15452902Y-14756942D01*
X15449956Y-14757400D01*
X15447010Y-14756942D01*
X15440913Y-14755063D01*
X15434462Y-14754453D01*
X15365476Y-14754453D01*
X15359024Y-14755063D01*
X15352928Y-14756942D01*
X15349982Y-14757400D01*
X15347035Y-14756942D01*
X15340888Y-14755063D01*
X15334488Y-14754453D01*
X15265450Y-14754453D01*
X15259050Y-14755063D01*
X15252903Y-14756942D01*
X15249956Y-14757400D01*
X15247010Y-14756942D01*
X15240914Y-14755063D01*
X15234462Y-14754453D01*
X15219578Y-14754453D01*
X15215666Y-14753691D01*
X15212364Y-14751456D01*
X15210180Y-14748205D01*
X15209418Y-14744293D01*
X15209418Y-14612975D01*
X15210028Y-14609419D01*
X15211907Y-14606320D01*
X15214701Y-14604085D01*
X15221153Y-14600580D01*
X15229027Y-14594433D01*
X15235783Y-14587118D01*
X15241269Y-14578736D01*
X15245283Y-14569592D01*
X15247721Y-14559889D01*
X15248534Y-14549983D01*
X15247721Y-14540026D01*
X15245283Y-14530324D01*
X15241269Y-14521180D01*
X15235783Y-14512798D01*
X15229027Y-14505482D01*
X15221153Y-14499336D01*
X15212364Y-14494560D01*
X15202916Y-14491360D01*
X15193060Y-14489684D01*
X15183104Y-14489684D01*
X15173248Y-14491360D01*
X15163800Y-14494560D01*
X15154808Y-14499437D01*
X15151658Y-14500555D01*
X15148306Y-14500555D01*
X15145156Y-14499437D01*
X15136164Y-14494560D01*
X15126716Y-14491360D01*
X15116860Y-14489684D01*
X15106853Y-14489684D01*
X15096998Y-14491360D01*
X15087549Y-14494560D01*
X15078760Y-14499336D01*
X15070886Y-14505482D01*
X15064130Y-14512798D01*
X15058694Y-14521180D01*
X15054681Y-14530324D01*
X15052192Y-14540026D01*
X15051379Y-14549983D01*
X15052192Y-14559889D01*
X15054681Y-14569592D01*
X15058694Y-14578736D01*
X15064130Y-14587118D01*
X15070886Y-14594433D01*
X15078760Y-14600580D01*
X15085212Y-14604085D01*
X15088057Y-14606320D01*
X15089886Y-14609419D01*
X15090546Y-14612975D01*
X15090546Y-14744293D01*
X15089784Y-14748205D01*
X15087549Y-14751456D01*
X15084298Y-14753691D01*
X15080386Y-14754453D01*
X15065451Y-14754453D01*
X15059050Y-14755063D01*
X15052903Y-14756942D01*
X15049957Y-14757400D01*
X15047010Y-14756942D01*
X15040914Y-14755063D01*
X15034463Y-14754453D01*
X14965476Y-14754453D01*
X14959025Y-14755063D01*
X14952929Y-14756942D01*
X14949982Y-14757400D01*
X14947036Y-14756942D01*
X14940889Y-14755063D01*
X14934488Y-14754453D01*
X14865451Y-14754453D01*
X14859050Y-14755063D01*
X14852904Y-14756942D01*
X14849957Y-14757400D01*
X14847011Y-14756942D01*
X14840915Y-14755063D01*
X14834463Y-14754453D01*
X14819579Y-14754453D01*
X14815667Y-14753691D01*
X14812365Y-14751456D01*
X14810181Y-14748205D01*
X14809419Y-14744293D01*
X14809419Y-14612975D01*
X14810028Y-14609419D01*
X14811908Y-14606320D01*
X14814702Y-14604085D01*
X14821154Y-14600580D01*
X14829028Y-14594433D01*
X14835784Y-14587118D01*
X14841270Y-14578736D01*
X14845284Y-14569592D01*
X14847722Y-14559889D01*
X14848535Y-14549983D01*
X14847722Y-14540026D01*
X14845284Y-14530324D01*
X14841270Y-14521180D01*
X14835784Y-14512798D01*
X14829028Y-14505482D01*
X14821154Y-14499336D01*
X14812365Y-14494560D01*
X14802916Y-14491360D01*
X14793061Y-14489684D01*
X14783104Y-14489684D01*
X14773249Y-14491360D01*
X14763800Y-14494560D01*
X14754809Y-14499437D01*
X14751659Y-14500555D01*
X14748306Y-14500555D01*
X14745157Y-14499437D01*
X14736165Y-14494560D01*
X14726716Y-14491360D01*
X14716861Y-14489684D01*
X14706854Y-14489684D01*
X14696998Y-14491360D01*
X14687550Y-14494560D01*
X14678761Y-14499336D01*
X14670887Y-14505482D01*
X14664131Y-14512798D01*
X14658695Y-14521180D01*
X14654682Y-14530324D01*
X14652193Y-14540026D01*
X14651380Y-14549983D01*
X14652193Y-14559889D01*
X14654682Y-14569592D01*
X14658695Y-14578736D01*
X14664131Y-14587118D01*
X14670887Y-14594433D01*
X14678761Y-14600580D01*
X14685213Y-14604085D01*
X14688057Y-14606320D01*
X14689886Y-14609419D01*
X14690547Y-14612975D01*
X14690547Y-14744293D01*
X14689785Y-14748205D01*
X14687550Y-14751456D01*
X14684298Y-14753691D01*
X14680387Y-14754453D01*
X14665451Y-14754453D01*
X14659051Y-14755063D01*
X14652904Y-14756942D01*
X14649957Y-14757400D01*
X14647011Y-14756942D01*
X14640915Y-14755063D01*
X14634463Y-14754453D01*
X14565477Y-14754453D01*
X14559026Y-14755063D01*
X14552930Y-14756942D01*
X14549983Y-14757400D01*
X14547037Y-14756942D01*
X14540890Y-14755063D01*
X14534489Y-14754453D01*
X14465452Y-14754453D01*
X14459051Y-14755063D01*
X14452904Y-14756942D01*
X14449958Y-14757400D01*
X14447012Y-14756942D01*
X14440916Y-14755063D01*
X14434464Y-14754453D01*
X14423847Y-14754453D01*
X14423847Y-14772640D01*
X14423034Y-14776551D01*
X14420850Y-14779802D01*
X14417548Y-14782038D01*
X14413687Y-14782800D01*
X14386306Y-14782800D01*
X14382394Y-14782038D01*
X14379092Y-14779802D01*
X14376907Y-14776551D01*
X14376146Y-14772640D01*
X14376146Y-14754453D01*
X14365478Y-14754453D01*
X14359026Y-14755063D01*
X14352930Y-14756942D01*
X14349984Y-14757400D01*
X14347037Y-14756942D01*
X14340890Y-14755063D01*
X14334490Y-14754453D01*
X14319554Y-14754453D01*
X14315643Y-14753691D01*
X14312392Y-14751456D01*
X14310156Y-14748205D01*
X14309394Y-14744293D01*
X14309394Y-14612975D01*
X14310055Y-14609419D01*
X14311884Y-14606320D01*
X14314728Y-14604085D01*
X14321180Y-14600580D01*
X14329054Y-14594433D01*
X14335810Y-14587118D01*
X14341246Y-14578736D01*
X14345259Y-14569592D01*
X14347748Y-14559889D01*
X14348561Y-14549983D01*
X14347748Y-14540026D01*
X14345259Y-14530324D01*
X14341246Y-14521180D01*
X14335810Y-14512798D01*
X14329054Y-14505482D01*
X14321180Y-14499336D01*
X14312392Y-14494560D01*
X14302943Y-14491360D01*
X14293088Y-14489684D01*
X14283080Y-14489684D01*
X14273225Y-14491360D01*
X14263776Y-14494560D01*
X14254784Y-14499437D01*
X14251635Y-14500555D01*
X14248282Y-14500555D01*
X14245132Y-14499437D01*
X14236141Y-14494560D01*
X14226692Y-14491360D01*
X14216837Y-14489684D01*
X14206880Y-14489684D01*
X14197025Y-14491360D01*
X14187576Y-14494560D01*
X14178788Y-14499336D01*
X14170913Y-14505482D01*
X14164157Y-14512798D01*
X14158671Y-14521180D01*
X14154657Y-14530324D01*
X14152219Y-14540026D01*
X14151406Y-14549983D01*
X14152219Y-14559889D01*
X14154657Y-14569592D01*
X14158671Y-14578736D01*
X14164157Y-14587118D01*
X14170913Y-14594433D01*
X14178788Y-14600580D01*
X14185239Y-14604085D01*
X14188033Y-14606320D01*
X14189913Y-14609419D01*
X14190573Y-14612975D01*
X14190573Y-14744293D01*
X14189760Y-14748205D01*
X14187576Y-14751456D01*
X14184274Y-14753691D01*
X14180413Y-14754453D01*
X14165478Y-14754453D01*
X14159026Y-14755063D01*
X14152930Y-14756942D01*
X14149984Y-14757400D01*
X14147038Y-14756942D01*
X14140891Y-14755063D01*
X14134490Y-14754453D01*
X14065453Y-14754453D01*
X14059052Y-14755063D01*
X14052905Y-14756942D01*
X14049959Y-14757400D01*
X14047012Y-14756942D01*
X14040916Y-14755063D01*
X14034465Y-14754453D01*
X14019580Y-14754453D01*
X14015669Y-14753691D01*
X14012367Y-14751456D01*
X14010182Y-14748205D01*
X14009420Y-14744293D01*
X14009420Y-14714118D01*
X14010030Y-14710613D01*
X14011808Y-14707514D01*
X14014551Y-14705279D01*
X14017904Y-14704060D01*
X14026692Y-14702586D01*
X14036141Y-14699386D01*
X14045133Y-14694509D01*
X14048282Y-14693392D01*
X14051635Y-14693392D01*
X14054785Y-14694509D01*
X14063776Y-14699386D01*
X14073225Y-14702586D01*
X14083080Y-14704263D01*
X14093088Y-14704263D01*
X14102943Y-14702586D01*
X14112392Y-14699386D01*
X14121180Y-14694611D01*
X14129054Y-14688464D01*
X14135811Y-14681149D01*
X14141246Y-14672767D01*
X14145260Y-14663623D01*
X14147749Y-14653920D01*
X14148562Y-14644014D01*
X14147749Y-14634057D01*
X14145260Y-14624354D01*
X14141246Y-14615210D01*
X14135811Y-14606828D01*
X14129054Y-14599513D01*
X14121180Y-14593366D01*
X14114729Y-14589861D01*
X14111884Y-14587626D01*
X14110055Y-14584527D01*
X14109395Y-14580971D01*
X14109395Y-14392808D01*
X14108582Y-14384324D01*
X14106245Y-14376654D01*
X14102435Y-14369592D01*
X14097050Y-14362988D01*
X12768986Y-13034924D01*
X12766802Y-13031673D01*
X12766040Y-13027761D01*
X12766040Y-12864693D01*
X12766802Y-12860782D01*
X12768986Y-12857480D01*
X12772288Y-12855295D01*
X12776200Y-12854533D01*
X12791084Y-12854533D01*
X12797536Y-12853873D01*
X12803632Y-12852044D01*
X12806578Y-12851587D01*
X12809524Y-12852044D01*
X12815671Y-12853873D01*
X12822072Y-12854533D01*
X12891109Y-12854533D01*
X12897510Y-12853873D01*
X12903657Y-12852044D01*
X12906603Y-12851587D01*
X12909550Y-12852044D01*
X12915646Y-12853873D01*
X12922097Y-12854533D01*
X12991084Y-12854533D01*
X12997535Y-12853873D01*
X13003631Y-12852044D01*
X13006578Y-12851587D01*
X13009524Y-12852044D01*
X13015671Y-12853873D01*
X13022071Y-12854533D01*
X13037007Y-12854533D01*
X13040918Y-12855295D01*
X13044169Y-12857480D01*
X13046405Y-12860782D01*
X13047167Y-12864693D01*
X13047167Y-13063778D01*
X13047980Y-13072211D01*
X13050316Y-13079882D01*
X13054126Y-13086943D01*
X13059511Y-13093547D01*
X14487550Y-14521637D01*
X14489785Y-14524888D01*
X14490547Y-14528800D01*
X14490547Y-14586915D01*
X14489887Y-14590471D01*
X14488058Y-14593569D01*
X14485213Y-14595856D01*
X14478762Y-14599361D01*
X14470888Y-14605457D01*
X14464131Y-14612823D01*
X14458696Y-14621154D01*
X14454682Y-14630349D01*
X14452193Y-14640001D01*
X14451380Y-14649957D01*
X14452193Y-14659914D01*
X14454682Y-14669566D01*
X14458696Y-14678761D01*
X14464131Y-14687092D01*
X14470888Y-14694458D01*
X14478762Y-14700554D01*
X14487550Y-14705330D01*
X14496999Y-14708581D01*
X14506854Y-14710206D01*
X14516862Y-14710206D01*
X14526717Y-14708581D01*
X14536166Y-14705330D01*
X14545157Y-14700453D01*
X14548307Y-14699386D01*
X14551660Y-14699386D01*
X14554809Y-14700453D01*
X14563801Y-14705330D01*
X14573250Y-14708581D01*
X14583105Y-14710206D01*
X14593062Y-14710206D01*
X14602917Y-14708581D01*
X14612366Y-14705330D01*
X14621154Y-14700554D01*
X14629028Y-14694458D01*
X14635784Y-14687092D01*
X14641271Y-14678761D01*
X14645284Y-14669566D01*
X14647722Y-14659914D01*
X14648535Y-14649957D01*
X14647722Y-14640001D01*
X14645284Y-14630349D01*
X14641271Y-14621154D01*
X14635784Y-14612823D01*
X14629028Y-14605457D01*
X14621154Y-14599361D01*
X14614702Y-14595856D01*
X14611908Y-14593569D01*
X14610029Y-14590471D01*
X14609419Y-14586915D01*
X14609419Y-14492782D01*
X14608556Y-14484350D01*
X14606219Y-14476679D01*
X14602460Y-14469618D01*
X14597075Y-14463013D01*
X13168985Y-13034924D01*
X13166801Y-13031673D01*
X13166039Y-13027761D01*
X13166039Y-12864693D01*
X13166801Y-12860782D01*
X13168985Y-12857480D01*
X13172287Y-12855295D01*
X13176148Y-12854533D01*
X13191083Y-12854533D01*
X13197535Y-12853873D01*
X13203631Y-12852044D01*
X13206577Y-12851587D01*
X13209524Y-12852044D01*
X13215670Y-12853873D01*
X13222071Y-12854533D01*
X13291108Y-12854533D01*
X13297509Y-12853873D01*
X13303656Y-12852044D01*
X13306602Y-12851587D01*
X13309549Y-12852044D01*
X13315645Y-12853873D01*
X13322096Y-12854533D01*
X13391083Y-12854533D01*
X13397534Y-12853873D01*
X13403630Y-12852044D01*
X13406577Y-12851587D01*
X13409523Y-12852044D01*
X13415670Y-12853873D01*
X13422071Y-12854533D01*
X13437006Y-12854533D01*
X13440918Y-12855295D01*
X13444169Y-12857480D01*
X13446404Y-12860782D01*
X13447166Y-12864693D01*
X13447166Y-13063728D01*
X13447979Y-13072211D01*
X13450316Y-13079882D01*
X13454126Y-13086943D01*
X13459510Y-13093547D01*
X14887549Y-14521637D01*
X14889784Y-14524888D01*
X14890546Y-14528800D01*
X14890546Y-14586915D01*
X14889886Y-14590471D01*
X14888057Y-14593569D01*
X14885212Y-14595856D01*
X14878761Y-14599361D01*
X14870887Y-14605457D01*
X14864130Y-14612823D01*
X14858695Y-14621154D01*
X14854682Y-14630349D01*
X14852192Y-14640001D01*
X14851380Y-14649957D01*
X14852192Y-14659914D01*
X14854682Y-14669566D01*
X14858695Y-14678761D01*
X14864130Y-14687092D01*
X14870887Y-14694458D01*
X14878761Y-14700554D01*
X14887549Y-14705330D01*
X14896998Y-14708581D01*
X14906853Y-14710206D01*
X14916861Y-14710206D01*
X14926716Y-14708581D01*
X14936165Y-14705330D01*
X14945156Y-14700453D01*
X14948306Y-14699386D01*
X14951659Y-14699386D01*
X14954808Y-14700453D01*
X14963800Y-14705330D01*
X14973249Y-14708581D01*
X14983104Y-14710206D01*
X14993061Y-14710206D01*
X15002916Y-14708581D01*
X15012365Y-14705330D01*
X15021153Y-14700554D01*
X15029027Y-14694458D01*
X15035784Y-14687092D01*
X15041270Y-14678761D01*
X15045283Y-14669566D01*
X15047722Y-14659914D01*
X15048534Y-14649957D01*
X15047722Y-14640001D01*
X15045283Y-14630349D01*
X15041270Y-14621154D01*
X15035784Y-14612823D01*
X15029027Y-14605457D01*
X15021153Y-14599361D01*
X15014701Y-14595856D01*
X15011907Y-14593569D01*
X15010028Y-14590471D01*
X15009418Y-14586915D01*
X15009418Y-14492782D01*
X15008555Y-14484350D01*
X15006218Y-14476679D01*
X15002459Y-14469618D01*
X14997074Y-14463013D01*
X13568984Y-13034924D01*
X13566800Y-13031673D01*
X13566038Y-13027761D01*
X13566038Y-12864693D01*
X13566800Y-12860782D01*
X13568984Y-12857480D01*
X13572286Y-12855295D01*
X13576198Y-12854533D01*
X13591082Y-12854533D01*
X13597534Y-12853873D01*
X13603630Y-12852044D01*
X13606576Y-12851587D01*
X13609523Y-12852044D01*
X13615669Y-12853873D01*
X13622070Y-12854533D01*
X13691107Y-12854533D01*
X13697508Y-12853873D01*
X13703655Y-12852044D01*
X13706601Y-12851587D01*
X13709548Y-12852044D01*
X13715644Y-12853873D01*
X13722096Y-12854533D01*
X13791082Y-12854533D01*
X13797534Y-12853873D01*
X13803630Y-12852044D01*
X13806576Y-12851587D01*
X13809522Y-12852044D01*
X13815669Y-12853873D01*
X13822070Y-12854533D01*
X13837005Y-12854533D01*
X13840917Y-12855295D01*
X13844168Y-12857480D01*
X13846403Y-12860782D01*
X13847165Y-12864693D01*
X13847165Y-13063778D01*
X13847978Y-13072211D01*
X13850315Y-13079882D01*
X13854125Y-13086943D01*
X13859510Y-13093547D01*
X15287548Y-14521637D01*
X15289784Y-14524888D01*
X15290546Y-14528800D01*
X15290546Y-14586915D01*
X15289885Y-14590471D01*
X15288056Y-14593569D01*
X15285212Y-14595856D01*
X15278760Y-14599361D01*
X15270886Y-14605457D01*
X15264130Y-14612823D01*
X15258694Y-14621154D01*
X15254681Y-14630349D01*
X15252192Y-14640001D01*
X15251379Y-14649957D01*
X15252192Y-14659914D01*
X15254681Y-14669566D01*
X15258694Y-14678761D01*
X15264130Y-14687092D01*
X15270886Y-14694458D01*
X15278760Y-14700554D01*
X15287548Y-14705330D01*
X15296997Y-14708581D01*
X15306852Y-14710206D01*
X15316860Y-14710206D01*
X15326715Y-14708581D01*
X15336164Y-14705330D01*
X15345156Y-14700453D01*
X15348305Y-14699386D01*
X15351658Y-14699386D01*
X15354807Y-14700453D01*
X15363799Y-14705330D01*
X15373248Y-14708581D01*
X15383103Y-14710206D01*
X15393060Y-14710206D01*
X15402915Y-14708581D01*
X15412364Y-14705330D01*
X15421152Y-14700554D01*
X15429026Y-14694458D01*
X15435783Y-14687092D01*
X15441269Y-14678761D01*
X15445282Y-14669566D01*
X15447721Y-14659914D01*
X15448534Y-14649957D01*
X15447721Y-14640001D01*
X15445282Y-14630349D01*
X15441269Y-14621154D01*
X15435783Y-14612823D01*
X15429026Y-14605457D01*
X15421152Y-14599361D01*
X15414701Y-14595856D01*
X15411907Y-14593569D01*
X15410027Y-14590471D01*
X15409418Y-14586915D01*
X15409418Y-14492782D01*
X15408554Y-14484350D01*
X15406217Y-14476679D01*
X15402458Y-14469618D01*
X15397073Y-14463013D01*
X13968984Y-13034924D01*
X13966799Y-13031673D01*
X13966037Y-13027761D01*
X13966037Y-12864693D01*
X13966799Y-12860782D01*
X13968984Y-12857480D01*
X13972286Y-12855295D01*
X13976197Y-12854533D01*
X13991082Y-12854533D01*
X13997533Y-12853873D01*
X14003629Y-12852044D01*
X14006576Y-12851587D01*
X14009522Y-12852044D01*
X14015669Y-12853873D01*
X14022069Y-12854533D01*
X14091107Y-12854533D01*
X14097507Y-12853873D01*
X14103654Y-12852044D01*
X14106601Y-12851587D01*
X14109547Y-12852044D01*
X14115643Y-12853873D01*
X14122095Y-12854533D01*
X14191081Y-12854533D01*
X14197533Y-12853873D01*
X14203629Y-12852044D01*
X14206575Y-12851587D01*
X14209522Y-12852044D01*
X14215668Y-12853873D01*
X14222069Y-12854533D01*
X14237004Y-12854533D01*
X14240916Y-12855295D01*
X14244167Y-12857480D01*
X14246402Y-12860782D01*
X14247164Y-12864693D01*
X14247164Y-13063778D01*
X14247977Y-13072211D01*
X14250314Y-13079882D01*
X14254124Y-13086943D01*
X14259509Y-13093547D01*
X14913000Y-13747089D01*
X14919604Y-13752474D01*
X14926665Y-13756233D01*
X14934336Y-13758570D01*
X14942819Y-13759434D01*
X15071140Y-13759434D01*
X15075052Y-13760196D01*
X15078303Y-13762380D01*
X15887547Y-14571624D01*
X15889782Y-14574875D01*
X15890544Y-14578787D01*
X15890544Y-14586915D01*
X15889884Y-14590471D01*
X15888055Y-14593569D01*
X15885210Y-14595856D01*
X15878759Y-14599361D01*
X15870885Y-14605457D01*
X15864128Y-14612823D01*
X15858693Y-14621154D01*
X15854680Y-14630349D01*
X15852190Y-14640001D01*
X15851378Y-14649957D01*
X15852190Y-14659914D01*
X15854680Y-14669566D01*
X15858693Y-14678761D01*
X15864128Y-14687092D01*
X15870885Y-14694458D01*
X15878759Y-14700554D01*
X15887547Y-14705330D01*
X15896996Y-14708581D01*
X15906851Y-14710206D01*
X15916859Y-14710206D01*
X15926714Y-14708581D01*
X15936163Y-14705330D01*
X15945154Y-14700453D01*
X15948304Y-14699386D01*
X15951657Y-14699386D01*
X15954806Y-14700453D01*
X15963798Y-14705330D01*
X15973247Y-14708581D01*
X15983102Y-14710206D01*
X15993059Y-14710206D01*
X16002914Y-14708581D01*
X16012363Y-14705330D01*
X16021151Y-14700554D01*
X16029025Y-14694458D01*
X16035782Y-14687092D01*
X16041268Y-14678761D01*
X16045281Y-14669566D01*
X16047719Y-14659914D01*
X16048532Y-14649957D01*
X16047719Y-14640001D01*
X16045281Y-14630349D01*
X16041268Y-14621154D01*
X16035782Y-14612823D01*
X16029025Y-14605457D01*
X16021151Y-14599361D01*
X16014700Y-14595856D01*
X16011906Y-14593569D01*
X16010026Y-14590471D01*
X16009416Y-14586915D01*
X16009416Y-14542820D01*
X16008553Y-14534337D01*
X16006216Y-14526666D01*
X16002457Y-14519605D01*
X15997072Y-14513001D01*
X15136926Y-13652855D01*
X15130322Y-13647470D01*
X15123261Y-13643711D01*
X15115590Y-13641374D01*
X15107157Y-13640562D01*
X14978786Y-13640562D01*
X14974874Y-13639749D01*
X14971623Y-13637564D01*
X14368983Y-13034924D01*
X14366798Y-13031673D01*
X14366036Y-13027761D01*
X14366036Y-12864693D01*
X14366798Y-12860782D01*
X14368983Y-12857480D01*
X14372285Y-12855295D01*
X14376196Y-12854533D01*
X14391081Y-12854533D01*
X14397532Y-12853873D01*
X14403628Y-12852044D01*
X14406575Y-12851587D01*
X14409521Y-12852044D01*
X14415668Y-12853873D01*
X14422069Y-12854533D01*
X14491106Y-12854533D01*
X14497507Y-12853873D01*
X14503654Y-12852044D01*
X14506600Y-12851587D01*
X14509546Y-12852044D01*
X14515642Y-12853873D01*
X14522094Y-12854533D01*
X14591080Y-12854533D01*
X14597532Y-12853873D01*
X14603628Y-12852044D01*
X14606574Y-12851587D01*
X14609521Y-12852044D01*
X14615668Y-12853873D01*
X14622068Y-12854533D01*
X14637004Y-12854533D01*
X14640915Y-12855295D01*
X14644166Y-12857480D01*
X14646401Y-12860782D01*
X14647163Y-12864693D01*
X14647163Y-13063778D01*
X14647976Y-13072262D01*
X14650313Y-13079933D01*
X14654123Y-13086994D01*
X14659508Y-13093598D01*
X15113000Y-13547090D01*
X15119604Y-13552474D01*
X15126665Y-13556234D01*
X15134336Y-13558570D01*
X15142819Y-13559434D01*
X15371165Y-13559434D01*
X15375026Y-13560196D01*
X15378328Y-13562380D01*
X16287546Y-14471599D01*
X16289782Y-14474901D01*
X16290544Y-14478812D01*
X16290544Y-14586915D01*
X16289883Y-14590471D01*
X16288054Y-14593569D01*
X16285210Y-14595856D01*
X16278758Y-14599361D01*
X16270884Y-14605457D01*
X16264128Y-14612823D01*
X16258692Y-14621154D01*
X16254679Y-14630349D01*
X16252190Y-14640001D01*
X16251377Y-14649957D01*
X16252190Y-14659914D01*
X16254679Y-14669566D01*
X16258692Y-14678761D01*
X16264128Y-14687092D01*
X16270884Y-14694458D01*
X16278758Y-14700554D01*
X16287546Y-14705330D01*
X16296995Y-14708581D01*
X16306850Y-14710206D01*
X16316858Y-14710206D01*
X16326713Y-14708581D01*
X16336162Y-14705330D01*
X16345154Y-14700453D01*
X16348303Y-14699386D01*
X16351656Y-14699386D01*
X16354806Y-14700453D01*
X16363797Y-14705330D01*
X16373246Y-14708581D01*
X16383101Y-14710206D01*
X16393058Y-14710206D01*
X16402913Y-14708581D01*
X16412362Y-14705330D01*
X16421150Y-14700554D01*
X16429024Y-14694458D01*
X16435781Y-14687092D01*
X16441267Y-14678761D01*
X16445280Y-14669566D01*
X16447719Y-14659914D01*
X16448532Y-14649957D01*
X16447719Y-14640001D01*
X16445280Y-14630349D01*
X16441267Y-14621154D01*
X16435781Y-14612823D01*
X16429024Y-14605457D01*
X16421150Y-14599361D01*
X16414699Y-14595856D01*
X16411905Y-14593569D01*
X16410025Y-14590471D01*
X16409416Y-14586915D01*
X16409416Y-14442795D01*
X16408552Y-14434362D01*
X16406215Y-14426692D01*
X16402456Y-14419630D01*
X16397071Y-14413026D01*
X15436951Y-13452856D01*
X15430347Y-13447471D01*
X15423286Y-13443712D01*
X15415615Y-13441375D01*
X15407132Y-13440562D01*
X15178786Y-13440562D01*
X15174874Y-13439749D01*
X15171623Y-13437565D01*
X14768982Y-13034924D01*
X14766798Y-13031673D01*
X14766036Y-13027761D01*
X14766036Y-12864693D01*
X14766798Y-12860782D01*
X14768982Y-12857480D01*
X14772284Y-12855295D01*
X14776196Y-12854533D01*
X14791080Y-12854533D01*
X14797532Y-12853873D01*
X14803628Y-12852044D01*
X14806574Y-12851587D01*
X14809520Y-12852044D01*
X14815667Y-12853873D01*
X14822068Y-12854533D01*
X14891105Y-12854533D01*
X14897506Y-12853873D01*
X14903653Y-12852044D01*
X14906599Y-12851587D01*
X14909546Y-12852044D01*
X14915642Y-12853873D01*
X14922093Y-12854533D01*
X14991080Y-12854533D01*
X14997531Y-12853873D01*
X15003627Y-12852044D01*
X15006574Y-12851587D01*
X15009520Y-12852044D01*
X15015667Y-12853873D01*
X15022068Y-12854533D01*
X15037003Y-12854533D01*
X15040914Y-12855295D01*
X15044166Y-12857480D01*
X15046401Y-12860782D01*
X15047163Y-12864693D01*
X15047163Y-13063778D01*
X15047976Y-13072211D01*
X15050312Y-13079882D01*
X15054122Y-13086943D01*
X15059507Y-13093547D01*
X15312999Y-13347090D01*
X15319603Y-13352475D01*
X15326664Y-13356234D01*
X15334335Y-13358571D01*
X15342819Y-13359434D01*
X15571165Y-13359434D01*
X15575026Y-13360196D01*
X15578328Y-13362381D01*
X16687546Y-14471599D01*
X16689781Y-14474901D01*
X16690543Y-14478812D01*
X16690543Y-14586915D01*
X16689882Y-14590471D01*
X16688054Y-14593569D01*
X16685209Y-14595856D01*
X16678757Y-14599361D01*
X16670883Y-14605457D01*
X16664127Y-14612823D01*
X16658691Y-14621154D01*
X16654678Y-14630349D01*
X16652189Y-14640001D01*
X16651376Y-14649957D01*
X16652189Y-14659914D01*
X16654678Y-14669566D01*
X16658691Y-14678761D01*
X16664127Y-14687092D01*
X16670883Y-14694458D01*
X16678757Y-14700554D01*
X16687546Y-14705330D01*
X16696994Y-14708581D01*
X16706850Y-14710206D01*
X16716857Y-14710206D01*
X16726712Y-14708581D01*
X16736161Y-14705330D01*
X16745153Y-14700453D01*
X16748302Y-14699386D01*
X16751655Y-14699386D01*
X16754805Y-14700453D01*
X16763796Y-14705330D01*
X16773245Y-14708581D01*
X16783100Y-14710206D01*
X16793057Y-14710206D01*
X16802912Y-14708581D01*
X16812361Y-14705330D01*
X16821150Y-14700554D01*
X16829024Y-14694458D01*
X16835780Y-14687092D01*
X16841266Y-14678761D01*
X16845280Y-14669566D01*
X16847718Y-14659914D01*
X16848531Y-14649957D01*
X16847718Y-14640001D01*
X16845280Y-14630349D01*
X16841266Y-14621154D01*
X16835780Y-14612823D01*
X16829024Y-14605457D01*
X16821150Y-14599361D01*
X16814698Y-14595856D01*
X16811904Y-14593569D01*
X16810024Y-14590471D01*
X16809415Y-14586915D01*
X16809415Y-14442795D01*
X16808551Y-14434362D01*
X16806214Y-14426692D01*
X16802455Y-14419630D01*
X16797070Y-14413026D01*
X15636951Y-13252856D01*
X15630347Y-13247471D01*
X15623286Y-13243712D01*
X15615615Y-13241375D01*
X15607131Y-13240512D01*
X15378785Y-13240512D01*
X15374874Y-13239750D01*
X15371622Y-13237565D01*
X15168981Y-13034924D01*
X15166797Y-13031673D01*
X15166035Y-13027761D01*
X15166035Y-12864693D01*
X15166797Y-12860782D01*
X15168981Y-12857480D01*
X15172283Y-12855295D01*
X15176195Y-12854533D01*
X15191079Y-12854533D01*
X15197531Y-12853873D01*
X15203627Y-12852044D01*
X15206573Y-12851587D01*
X15209519Y-12852044D01*
X15215666Y-12853873D01*
X15222067Y-12854533D01*
X15291104Y-12854533D01*
X15297505Y-12853873D01*
X15303652Y-12852044D01*
X15306598Y-12851587D01*
X15309545Y-12852044D01*
X15315641Y-12853873D01*
X15322092Y-12854533D01*
X15391079Y-12854533D01*
X15397530Y-12853873D01*
X15403626Y-12852044D01*
X15406573Y-12851587D01*
X15409519Y-12852044D01*
X15415666Y-12853873D01*
X15422067Y-12854533D01*
X15437002Y-12854533D01*
X15440913Y-12855295D01*
X15444165Y-12857480D01*
X15446400Y-12860782D01*
X15447162Y-12864693D01*
X15447162Y-13063778D01*
X15447975Y-13072211D01*
X15450312Y-13079882D01*
X15454122Y-13086943D01*
X15459506Y-13093547D01*
X15512999Y-13147090D01*
X15519603Y-13152475D01*
X15526664Y-13156234D01*
X15534335Y-13158571D01*
X15542818Y-13159435D01*
X15771164Y-13159435D01*
X15775025Y-13160197D01*
X15778327Y-13162381D01*
X17087545Y-14471599D01*
X17089780Y-14474901D01*
X17090542Y-14478762D01*
X17090542Y-14586915D01*
X17089882Y-14590471D01*
X17088053Y-14593569D01*
X17085208Y-14595856D01*
X17078756Y-14599361D01*
X17070882Y-14605457D01*
X17064126Y-14612823D01*
X17058690Y-14621154D01*
X17054677Y-14630349D01*
X17052188Y-14640001D01*
X17051375Y-14649957D01*
X17052188Y-14659914D01*
X17054677Y-14669566D01*
X17058690Y-14678761D01*
X17064126Y-14687092D01*
X17070882Y-14694458D01*
X17078756Y-14700554D01*
X17087545Y-14705330D01*
X17096994Y-14708581D01*
X17106849Y-14710206D01*
X17116856Y-14710206D01*
X17126712Y-14708581D01*
X17136160Y-14705330D01*
X17145152Y-14700453D01*
X17148302Y-14699386D01*
X17151654Y-14699386D01*
X17154804Y-14700453D01*
X17163796Y-14705330D01*
X17173244Y-14708581D01*
X17183100Y-14710206D01*
X17193056Y-14710206D01*
X17202912Y-14708581D01*
X17212360Y-14705330D01*
X17221149Y-14700554D01*
X17229023Y-14694458D01*
X17235779Y-14687092D01*
X17241266Y-14678761D01*
X17245279Y-14669566D01*
X17247717Y-14659914D01*
X17248530Y-14649957D01*
X17247717Y-14640001D01*
X17245279Y-14630349D01*
X17241266Y-14621154D01*
X17235779Y-14612823D01*
X17229023Y-14605457D01*
X17221149Y-14599361D01*
X17214697Y-14595856D01*
X17211903Y-14593569D01*
X17210024Y-14590471D01*
X17209414Y-14586915D01*
X17209414Y-14442795D01*
X17208550Y-14434362D01*
X17206214Y-14426692D01*
X17202454Y-14419630D01*
X17197070Y-14413026D01*
X15836950Y-13052856D01*
X15830346Y-13047471D01*
X15823285Y-13043712D01*
X15815614Y-13041376D01*
X15807131Y-13040563D01*
X15578785Y-13040563D01*
X15574873Y-13039750D01*
X15571622Y-13037565D01*
X15568980Y-13034924D01*
X15566796Y-13031673D01*
X15566034Y-13027761D01*
X15566034Y-12864693D01*
X15566796Y-12860782D01*
X15568980Y-12857480D01*
X15572282Y-12855295D01*
X15576194Y-12854533D01*
X15591078Y-12854533D01*
X15597530Y-12853873D01*
X15603626Y-12852044D01*
X15606572Y-12851587D01*
X15609519Y-12852044D01*
X15615666Y-12853873D01*
X15622066Y-12854533D01*
X15632734Y-12854533D01*
X15632734Y-12740386D01*
X15607690Y-12740386D01*
X15603778Y-12739573D01*
X15600476Y-12737388D01*
X15598292Y-12734086D01*
X15597530Y-12730226D01*
X15597530Y-12644526D01*
X15596666Y-12636042D01*
X15594330Y-12628372D01*
X15590570Y-12621310D01*
X15585490Y-12615113D01*
X15579293Y-12610033D01*
X15572232Y-12606274D01*
X15564561Y-12603937D01*
X15556585Y-12603124D01*
X15548610Y-12603937D01*
X15540939Y-12606274D01*
X15533878Y-12610033D01*
X15527680Y-12615113D01*
X15522600Y-12621310D01*
X15518841Y-12628372D01*
X15516301Y-12636703D01*
X15514218Y-12640411D01*
X15510763Y-12643002D01*
X15506598Y-12643866D01*
X15502382Y-12643002D01*
X15498927Y-12640411D01*
X15496844Y-12636703D01*
X15494355Y-12628372D01*
X15490545Y-12621310D01*
X15485465Y-12615113D01*
X15479268Y-12610033D01*
X15472206Y-12606274D01*
X15464536Y-12603937D01*
X15456611Y-12603124D01*
X15448635Y-12603937D01*
X15440964Y-12606274D01*
X15437053Y-12608356D01*
X15433040Y-12609525D01*
X15428925Y-12608966D01*
X15425369Y-12606832D01*
X15422930Y-12603480D01*
X15422118Y-12599365D01*
X15422118Y-12557810D01*
X15422880Y-12553950D01*
X15425064Y-12550648D01*
X15428366Y-12548463D01*
X15432735Y-12547650D01*
X15432735Y-12433503D01*
X15422067Y-12433503D01*
X15415666Y-12434112D01*
X15409519Y-12435992D01*
X15406573Y-12436449D01*
X15403626Y-12435992D01*
X15397530Y-12434112D01*
X15391079Y-12433503D01*
X15322092Y-12433503D01*
X15315641Y-12434112D01*
X15309545Y-12435992D01*
X15306598Y-12436449D01*
X15303652Y-12435992D01*
X15297505Y-12434112D01*
X15291104Y-12433503D01*
X15222067Y-12433503D01*
X15215666Y-12434112D01*
X15209519Y-12435992D01*
X15206573Y-12436449D01*
X15203627Y-12435992D01*
X15197531Y-12434112D01*
X15191079Y-12433503D01*
X15180462Y-12433503D01*
X15180462Y-12547650D01*
X15184831Y-12548463D01*
X15188082Y-12550648D01*
X15190317Y-12553950D01*
X15191079Y-12557810D01*
X15191079Y-12599365D01*
X15190216Y-12603480D01*
X15187828Y-12606832D01*
X15184272Y-12608966D01*
X15180106Y-12609525D01*
X15176144Y-12608356D01*
X15172232Y-12606274D01*
X15164562Y-12603937D01*
X15156586Y-12603124D01*
X15148610Y-12603937D01*
X15140940Y-12606274D01*
X15133878Y-12610033D01*
X15127681Y-12615113D01*
X15122601Y-12621310D01*
X15118842Y-12628372D01*
X15116301Y-12636703D01*
X15114219Y-12640411D01*
X15110764Y-12643002D01*
X15106599Y-12643866D01*
X15102382Y-12643002D01*
X15098928Y-12640411D01*
X15096845Y-12636703D01*
X15094356Y-12628372D01*
X15090546Y-12621310D01*
X15085466Y-12615113D01*
X15079268Y-12610033D01*
X15072207Y-12606274D01*
X15064536Y-12603937D01*
X15056612Y-12603124D01*
X15048636Y-12603937D01*
X15040965Y-12606274D01*
X15037054Y-12608356D01*
X15033040Y-12609525D01*
X15028926Y-12608966D01*
X15025369Y-12606832D01*
X15022931Y-12603480D01*
X15022118Y-12599365D01*
X15022118Y-12557810D01*
X15022880Y-12553950D01*
X15025065Y-12550648D01*
X15028367Y-12548463D01*
X15032736Y-12547650D01*
X15032736Y-12433503D01*
X15022068Y-12433503D01*
X15015667Y-12434112D01*
X15009520Y-12435992D01*
X15006574Y-12436449D01*
X15003627Y-12435992D01*
X14997531Y-12434112D01*
X14991080Y-12433503D01*
X14922093Y-12433503D01*
X14915642Y-12434112D01*
X14909546Y-12435992D01*
X14906599Y-12436449D01*
X14903653Y-12435992D01*
X14897506Y-12434112D01*
X14891105Y-12433503D01*
X14822068Y-12433503D01*
X14815667Y-12434112D01*
X14809520Y-12435992D01*
X14806574Y-12436449D01*
X14803628Y-12435992D01*
X14797532Y-12434112D01*
X14791080Y-12433503D01*
X14780463Y-12433503D01*
X14780463Y-12547650D01*
X14784832Y-12548463D01*
X14788083Y-12550648D01*
X14790318Y-12553950D01*
X14791080Y-12557810D01*
X14791080Y-12599365D01*
X14790216Y-12603480D01*
X14787829Y-12606832D01*
X14784273Y-12608966D01*
X14780107Y-12609525D01*
X14776145Y-12608356D01*
X14772233Y-12606274D01*
X14764562Y-12603937D01*
X14756587Y-12603124D01*
X14748611Y-12603937D01*
X14740940Y-12606274D01*
X14733879Y-12610033D01*
X14727682Y-12615113D01*
X14722601Y-12621310D01*
X14718842Y-12628372D01*
X14716302Y-12636703D01*
X14714219Y-12640411D01*
X14710765Y-12643002D01*
X14706600Y-12643866D01*
X14702383Y-12643002D01*
X14698929Y-12640411D01*
X14696846Y-12636703D01*
X14694357Y-12628372D01*
X14690547Y-12621310D01*
X14685467Y-12615113D01*
X14679269Y-12610033D01*
X14672208Y-12606274D01*
X14664537Y-12603937D01*
X14656612Y-12603124D01*
X14648637Y-12603937D01*
X14640966Y-12606274D01*
X14637054Y-12608356D01*
X14633041Y-12609525D01*
X14628926Y-12608966D01*
X14625370Y-12606832D01*
X14622932Y-12603480D01*
X14622119Y-12599365D01*
X14622119Y-12557810D01*
X14622881Y-12553950D01*
X14625066Y-12550648D01*
X14628368Y-12548463D01*
X14632736Y-12547650D01*
X14632736Y-12433503D01*
X14622068Y-12433503D01*
X14615668Y-12434112D01*
X14609521Y-12435992D01*
X14606574Y-12436449D01*
X14603628Y-12435992D01*
X14597532Y-12434112D01*
X14591080Y-12433503D01*
X14522094Y-12433503D01*
X14515642Y-12434112D01*
X14509546Y-12435992D01*
X14506600Y-12436449D01*
X14503654Y-12435992D01*
X14497507Y-12434112D01*
X14491106Y-12433503D01*
X14422069Y-12433503D01*
X14415668Y-12434112D01*
X14409521Y-12435992D01*
X14406575Y-12436449D01*
X14403628Y-12435992D01*
X14397532Y-12434112D01*
X14391081Y-12433503D01*
X14380463Y-12433503D01*
X14380463Y-12547650D01*
X14384832Y-12548463D01*
X14388084Y-12550648D01*
X14390319Y-12553950D01*
X14391081Y-12557810D01*
X14391081Y-12599365D01*
X14390217Y-12603480D01*
X14387830Y-12606832D01*
X14384274Y-12608966D01*
X14380108Y-12609525D01*
X14376146Y-12608356D01*
X14372234Y-12606274D01*
X14364563Y-12603937D01*
X14356588Y-12603124D01*
X14348612Y-12603937D01*
X14340941Y-12606274D01*
X14333880Y-12610033D01*
X14327682Y-12615113D01*
X14322602Y-12621310D01*
X14318843Y-12628372D01*
X14316303Y-12636703D01*
X14314220Y-12640411D01*
X14310766Y-12643002D01*
X14306600Y-12643866D01*
X14302384Y-12643002D01*
X14298930Y-12640411D01*
X14296847Y-12636703D01*
X14294357Y-12628372D01*
X14290548Y-12621310D01*
X14285468Y-12615113D01*
X14279270Y-12610033D01*
X14272209Y-12606274D01*
X14264538Y-12603937D01*
X14256613Y-12603124D01*
X14248638Y-12603937D01*
X14240967Y-12606274D01*
X14237055Y-12608356D01*
X14233042Y-12609525D01*
X14228927Y-12608966D01*
X14225371Y-12606832D01*
X14222933Y-12603480D01*
X14222120Y-12599365D01*
X14222120Y-12557810D01*
X14222882Y-12553950D01*
X14225066Y-12550648D01*
X14228368Y-12548463D01*
X14232737Y-12547650D01*
X14232737Y-12433503D01*
X14222069Y-12433503D01*
X14215668Y-12434112D01*
X14209522Y-12435992D01*
X14206575Y-12436449D01*
X14203629Y-12435992D01*
X14197533Y-12434112D01*
X14191081Y-12433503D01*
X14122095Y-12433503D01*
X14115643Y-12434112D01*
X14109547Y-12435992D01*
X14106601Y-12436449D01*
X14103654Y-12435992D01*
X14097507Y-12434112D01*
X14091107Y-12433503D01*
X14022069Y-12433503D01*
X14015669Y-12434112D01*
X14009522Y-12435992D01*
X14006576Y-12436449D01*
X14003629Y-12435992D01*
X13997533Y-12434112D01*
X13991082Y-12433503D01*
X13980464Y-12433503D01*
X13980464Y-12547650D01*
X13984833Y-12548463D01*
X13988084Y-12550648D01*
X13990319Y-12553950D01*
X13991082Y-12557810D01*
X13991082Y-12599365D01*
X13990218Y-12603480D01*
X13987830Y-12606832D01*
X13984274Y-12608966D01*
X13980109Y-12609525D01*
X13976146Y-12608356D01*
X13972235Y-12606274D01*
X13964564Y-12603937D01*
X13956588Y-12603124D01*
X13948613Y-12603937D01*
X13940942Y-12606274D01*
X13933881Y-12610033D01*
X13927683Y-12615113D01*
X13922603Y-12621310D01*
X13918844Y-12628372D01*
X13916304Y-12636703D01*
X13914221Y-12640411D01*
X13910767Y-12643002D01*
X13906601Y-12643866D01*
X13902385Y-12643002D01*
X13898930Y-12640411D01*
X13896848Y-12636703D01*
X13894358Y-12628372D01*
X13890548Y-12621310D01*
X13885468Y-12615113D01*
X13879271Y-12610033D01*
X13872210Y-12606274D01*
X13864539Y-12603937D01*
X13856614Y-12603124D01*
X13848638Y-12603937D01*
X13840968Y-12606274D01*
X13837056Y-12608356D01*
X13833043Y-12609525D01*
X13828928Y-12608966D01*
X13825372Y-12606832D01*
X13822934Y-12603480D01*
X13822121Y-12599365D01*
X13822121Y-12557810D01*
X13822883Y-12553950D01*
X13825067Y-12550648D01*
X13828369Y-12548463D01*
X13832738Y-12547650D01*
X13832738Y-12433503D01*
X13822070Y-12433503D01*
X13815669Y-12434112D01*
X13809522Y-12435992D01*
X13806576Y-12436449D01*
X13803630Y-12435992D01*
X13797534Y-12434112D01*
X13791082Y-12433503D01*
X13722096Y-12433503D01*
X13715644Y-12434112D01*
X13709548Y-12435992D01*
X13706601Y-12436449D01*
X13703655Y-12435992D01*
X13697508Y-12434112D01*
X13691107Y-12433503D01*
X13622070Y-12433503D01*
X13615669Y-12434112D01*
X13609523Y-12435992D01*
X13606576Y-12436449D01*
X13603630Y-12435992D01*
X13597534Y-12434112D01*
X13591082Y-12433503D01*
X13580465Y-12433503D01*
X13580465Y-12547650D01*
X13584834Y-12548463D01*
X13588085Y-12550648D01*
X13590320Y-12553950D01*
X13591082Y-12557810D01*
X13591082Y-12599365D01*
X13590219Y-12603480D01*
X13587831Y-12606832D01*
X13584275Y-12608966D01*
X13580110Y-12609525D01*
X13576147Y-12608356D01*
X13572236Y-12606274D01*
X13564565Y-12603937D01*
X13556589Y-12603124D01*
X13548613Y-12603937D01*
X13540943Y-12606274D01*
X13533882Y-12610033D01*
X13527684Y-12615113D01*
X13522604Y-12621310D01*
X13518845Y-12628372D01*
X13516305Y-12636703D01*
X13514222Y-12640411D01*
X13510768Y-12643002D01*
X13506602Y-12643866D01*
X13502386Y-12643002D01*
X13498931Y-12640411D01*
X13496848Y-12636703D01*
X13494359Y-12628372D01*
X13490549Y-12621310D01*
X13485469Y-12615113D01*
X13479272Y-12610033D01*
X13472210Y-12606274D01*
X13464540Y-12603937D01*
X13456615Y-12603124D01*
X13448639Y-12603937D01*
X13440968Y-12606274D01*
X13437057Y-12608356D01*
X13433044Y-12609525D01*
X13428929Y-12608966D01*
X13425373Y-12606832D01*
X13422934Y-12603480D01*
X13422122Y-12599365D01*
X13422122Y-12557810D01*
X13422884Y-12553950D01*
X13425068Y-12550648D01*
X13428370Y-12548463D01*
X13432739Y-12547650D01*
X13432739Y-12433503D01*
X13422071Y-12433503D01*
X13415670Y-12434112D01*
X13409523Y-12435992D01*
X13406577Y-12436449D01*
X13403630Y-12435992D01*
X13397534Y-12434112D01*
X13391083Y-12433503D01*
X13322096Y-12433503D01*
X13315645Y-12434112D01*
X13309549Y-12435992D01*
X13306602Y-12436449D01*
X13303656Y-12435992D01*
X13297509Y-12434112D01*
X13291108Y-12433503D01*
X13222071Y-12433503D01*
X13215670Y-12434112D01*
X13209524Y-12435992D01*
X13206577Y-12436449D01*
X13203631Y-12435992D01*
X13197535Y-12434112D01*
X13191083Y-12433503D01*
X13180466Y-12433503D01*
X13180466Y-12547650D01*
X13184835Y-12548463D01*
X13188086Y-12550648D01*
X13190321Y-12553950D01*
X13191083Y-12557810D01*
X13191083Y-12599365D01*
X13190219Y-12603480D01*
X13187832Y-12606832D01*
X13184276Y-12608966D01*
X13180110Y-12609525D01*
X13176148Y-12608356D01*
X13172236Y-12606274D01*
X13164566Y-12603937D01*
X13156590Y-12603124D01*
X13148614Y-12603937D01*
X13140944Y-12606274D01*
X13133882Y-12610033D01*
X13127685Y-12615113D01*
X13122605Y-12621310D01*
X13118846Y-12628372D01*
X13116306Y-12636703D01*
X13114223Y-12640411D01*
X13110768Y-12643002D01*
X13106603Y-12643866D01*
X13102386Y-12643002D01*
X13098932Y-12640411D01*
X13096849Y-12636703D01*
X13094360Y-12628372D01*
X13090550Y-12621310D01*
X13085470Y-12615113D01*
X13079272Y-12610033D01*
X13072211Y-12606274D01*
X13064540Y-12603937D01*
X13056615Y-12603124D01*
X13048640Y-12603937D01*
X13040969Y-12606274D01*
X13037058Y-12608356D01*
X13033044Y-12609525D01*
X13028930Y-12608966D01*
X13025374Y-12606832D01*
X13022935Y-12603480D01*
X13022122Y-12599365D01*
X13022122Y-12557810D01*
X13022884Y-12553950D01*
X13025069Y-12550648D01*
X13028371Y-12548463D01*
X13032740Y-12547650D01*
X13032740Y-12433503D01*
X13022071Y-12433503D01*
X13015671Y-12434112D01*
X13009524Y-12435992D01*
X13006578Y-12436449D01*
X13003631Y-12435992D01*
X12997535Y-12434112D01*
X12991084Y-12433503D01*
X12922097Y-12433503D01*
X12915646Y-12434112D01*
X12909550Y-12435992D01*
X12906603Y-12436449D01*
X12903657Y-12435992D01*
X12897510Y-12434112D01*
X12891109Y-12433503D01*
X12822072Y-12433503D01*
X12815671Y-12434112D01*
X12809524Y-12435992D01*
X12806578Y-12436449D01*
X12803632Y-12435992D01*
X12797536Y-12434112D01*
X12791084Y-12433503D01*
X12780467Y-12433503D01*
X12780467Y-12547650D01*
X12784836Y-12548463D01*
X12788087Y-12550648D01*
X12790322Y-12553950D01*
X12791084Y-12557810D01*
X12791084Y-12599365D01*
X12790220Y-12603480D01*
X12787833Y-12606832D01*
X12784277Y-12608966D01*
X12780111Y-12609525D01*
X12776149Y-12608356D01*
X12772237Y-12606274D01*
X12764566Y-12603937D01*
X12756591Y-12603124D01*
X12748615Y-12603937D01*
X12740944Y-12606274D01*
X12733883Y-12610033D01*
X12727686Y-12615113D01*
X12722606Y-12621310D01*
X12718846Y-12628372D01*
X12716306Y-12636703D01*
X12714224Y-12640411D01*
X12710769Y-12643002D01*
X12706604Y-12643866D01*
X12702387Y-12643002D01*
X12698933Y-12640411D01*
X12696850Y-12636703D01*
X12694361Y-12628372D01*
X12690551Y-12621310D01*
X12685471Y-12615113D01*
X12679273Y-12610033D01*
X12672212Y-12606274D01*
X12664541Y-12603937D01*
X12656616Y-12603124D01*
X12648641Y-12603937D01*
X12640970Y-12606274D01*
X12637058Y-12608356D01*
X12633045Y-12609525D01*
X12628930Y-12608966D01*
X12625374Y-12606832D01*
X12622936Y-12603480D01*
X12622123Y-12599365D01*
X12622123Y-12557810D01*
X12622885Y-12553950D01*
X12625070Y-12550648D01*
X12628372Y-12548463D01*
X12632740Y-12547650D01*
X12632740Y-12433503D01*
X12622072Y-12433503D01*
X12615672Y-12434112D01*
X12609525Y-12435992D01*
X12606578Y-12436449D01*
X12603632Y-12435992D01*
X12597536Y-12434112D01*
X12591084Y-12433503D01*
X12522098Y-12433503D01*
X12515646Y-12434112D01*
X12509550Y-12435992D01*
X12506604Y-12436449D01*
X12503658Y-12435992D01*
X12497511Y-12434112D01*
X12491110Y-12433503D01*
X12422073Y-12433503D01*
X12415672Y-12434112D01*
X12409525Y-12435992D01*
X12406579Y-12436449D01*
X12403632Y-12435992D01*
X12397536Y-12434112D01*
X12391085Y-12433503D01*
X12380468Y-12433503D01*
X12380468Y-12547650D01*
X12384836Y-12548463D01*
X12388088Y-12550648D01*
X12390323Y-12553950D01*
X12391085Y-12557810D01*
X12391085Y-12599365D01*
X12390221Y-12603480D01*
X12387834Y-12606832D01*
X12384278Y-12608966D01*
X12380112Y-12609525D01*
X12376150Y-12608356D01*
X12372238Y-12606274D01*
X12364567Y-12603937D01*
X12356592Y-12603124D01*
X12348616Y-12603937D01*
X12340945Y-12606274D01*
X12333884Y-12610033D01*
X12327686Y-12615113D01*
X12322606Y-12621310D01*
X12318847Y-12628372D01*
X12316510Y-12636042D01*
X12315698Y-12644526D01*
X12315698Y-12730226D01*
X12314885Y-12734086D01*
X12312700Y-12737388D01*
X12309398Y-12739573D01*
X12305538Y-12740386D01*
X12280442Y-12740386D01*
X12280442Y-12854533D01*
X12291110Y-12854533D01*
X12297511Y-12853873D01*
X12303658Y-12852044D01*
X12306604Y-12851587D01*
X12309551Y-12852044D01*
X12315647Y-12853873D01*
X12322098Y-12854533D01*
X12337034Y-12854533D01*
X12340894Y-12855295D01*
X12344196Y-12857480D01*
X12346381Y-12860782D01*
X12347194Y-12864693D01*
X12347194Y-13163753D01*
X12348006Y-13172236D01*
X12350343Y-13179907D01*
X12354102Y-13186968D01*
X12359487Y-13193572D01*
X13630605Y-14464690D01*
X13632942Y-14468297D01*
X13633551Y-14472564D01*
X13632383Y-14476730D01*
X13629538Y-14479981D01*
X13625576Y-14481759D01*
X13617956Y-14483435D01*
X13613892Y-14484654D01*
X13601700Y-14489176D01*
X13597839Y-14490954D01*
X13586409Y-14497202D01*
X13582853Y-14499488D01*
X13572439Y-14507260D01*
X13569238Y-14510054D01*
X13560044Y-14519249D01*
X13557250Y-14522450D01*
X13553236Y-14527834D01*
X13550239Y-14530527D01*
X13546429Y-14531848D01*
X13542416Y-14531543D01*
X13538809Y-14529765D01*
X13530173Y-14519097D01*
X12202769Y-13191642D01*
X12200585Y-13188340D01*
X12199823Y-13184479D01*
X12199823Y-12862763D01*
X12200483Y-12859054D01*
X12202515Y-12855854D01*
X12205512Y-12853619D01*
X12209170Y-12852654D01*
X12212929Y-12853060D01*
X12215672Y-12853873D01*
X12222073Y-12854533D01*
X12232741Y-12854533D01*
X12232741Y-12740386D01*
X12228372Y-12739573D01*
X12225070Y-12737388D01*
X12222886Y-12734086D01*
X12222124Y-12730226D01*
X12222124Y-12557810D01*
X12222886Y-12553950D01*
X12225070Y-12550648D01*
X12228372Y-12548463D01*
X12232741Y-12547650D01*
X12232741Y-12433503D01*
X12222073Y-12433503D01*
X12215672Y-12434112D01*
X12209526Y-12435992D01*
X12206579Y-12436449D01*
X12203633Y-12435992D01*
X12197537Y-12434112D01*
X12191085Y-12433503D01*
X12122099Y-12433503D01*
X12115647Y-12434112D01*
X12109551Y-12435992D01*
X12106605Y-12436449D01*
X12103658Y-12435992D01*
X12097512Y-12434112D01*
X12091111Y-12433503D01*
X12080443Y-12433503D01*
X12080443Y-12547650D01*
X12084812Y-12548463D01*
X12088114Y-12550648D01*
X12090298Y-12553950D01*
X12091111Y-12557810D01*
X12091111Y-12730226D01*
X12090298Y-12734086D01*
X12088114Y-12737388D01*
X12084812Y-12739573D01*
X12080443Y-12740386D01*
X12080443Y-12854533D01*
X12091111Y-12854533D01*
X12097512Y-12853873D01*
X12100255Y-12853060D01*
X12104014Y-12852654D01*
X12107672Y-12853619D01*
X12110669Y-12855854D01*
X12112701Y-12859054D01*
X12113412Y-12862763D01*
X12113412Y-13208203D01*
X12114580Y-13216483D01*
X12117120Y-13224001D01*
X12120981Y-13230961D01*
X12126366Y-13237463D01*
X13453770Y-14564868D01*
X13456005Y-14568169D01*
X13456767Y-14572081D01*
X13456767Y-14724481D01*
X13455802Y-14728799D01*
X13453110Y-14732304D01*
X13449147Y-14734336D01*
X13444728Y-14734489D01*
X13440663Y-14732711D01*
X13437717Y-14729409D01*
X13435584Y-14725548D01*
X13430199Y-14719096D01*
X13360552Y-14649500D01*
X13353948Y-14644522D01*
X13346785Y-14640966D01*
X13339165Y-14638782D01*
X13330732Y-14638019D01*
X13228675Y-14638019D01*
X13225373Y-14637461D01*
X13222427Y-14635835D01*
X13215670Y-14630603D01*
X13206882Y-14625828D01*
X13197433Y-14622576D01*
X13187578Y-14620951D01*
X13177621Y-14620951D01*
X13167766Y-14622576D01*
X13158317Y-14625828D01*
X13149529Y-14630603D01*
X13141655Y-14636699D01*
X13134898Y-14644065D01*
X13129412Y-14652396D01*
X13125399Y-14661591D01*
X13122960Y-14671243D01*
X13122148Y-14681200D01*
X13122960Y-14691156D01*
X13125399Y-14700808D01*
X13129412Y-14710003D01*
X13134898Y-14718334D01*
X13141655Y-14725700D01*
X13149529Y-14731796D01*
X13159079Y-14736978D01*
X13162127Y-14739518D01*
X13163956Y-14743023D01*
X13164362Y-14746935D01*
X13163194Y-14750745D01*
X13160705Y-14753793D01*
X13157200Y-14755622D01*
X13152932Y-14756942D01*
X13149986Y-14757400D01*
X13147040Y-14756942D01*
X13140893Y-14755063D01*
X13134492Y-14754453D01*
X13123824Y-14754453D01*
X13123824Y-14772640D01*
X13123062Y-14776551D01*
X13120827Y-14779802D01*
X13117576Y-14782038D01*
X13113664Y-14782800D01*
X13086283Y-14782800D01*
X13082371Y-14782038D01*
X13079120Y-14779802D01*
X13076885Y-14776551D01*
X13076123Y-14772640D01*
X13076123Y-14754453D01*
X13065455Y-14754453D01*
X13059054Y-14755063D01*
X13052907Y-14756942D01*
X13049961Y-14757400D01*
X13047014Y-14756942D01*
X13040918Y-14755063D01*
X13034467Y-14754453D01*
X12965480Y-14754453D01*
X12959029Y-14755063D01*
X12952933Y-14756942D01*
X12949986Y-14757400D01*
X12947040Y-14756942D01*
X12940893Y-14755063D01*
X12934492Y-14754453D01*
X12865455Y-14754453D01*
X12859054Y-14755063D01*
X12852908Y-14756942D01*
X12849961Y-14757400D01*
X12847015Y-14756942D01*
X12840919Y-14755063D01*
X12834467Y-14754453D01*
X12823850Y-14754453D01*
X12823850Y-14772640D01*
X12823037Y-14776551D01*
X12820853Y-14779802D01*
X12817551Y-14782038D01*
X12813690Y-14782800D01*
G37*

%LPC*%
G36*
X13880439Y-12547650D02*
G01*
X13932763Y-12547650D01*
X13932763Y-12433503D01*
X13922095Y-12433503D01*
X13915644Y-12434112D01*
X13909548Y-12435992D01*
X13906601Y-12436449D01*
X13903655Y-12435992D01*
X13897508Y-12434112D01*
X13891107Y-12433503D01*
X13880439Y-12433503D01*
G37*
G36*
X15680436Y-12854533D02*
G01*
X15691104Y-12854533D01*
X15697504Y-12853873D01*
X15703245Y-12852146D01*
X15708528Y-12849301D01*
X15713100Y-12845542D01*
X15716910Y-12840919D01*
X15719704Y-12835636D01*
X15721482Y-12829946D01*
X15722092Y-12823494D01*
X15722092Y-12740386D01*
X15680436Y-12740386D01*
G37*
G36*
X11180470Y-12854533D02*
G01*
X11191087Y-12854533D01*
X11197539Y-12853873D01*
X11203635Y-12852044D01*
X11206581Y-12851587D01*
X11209528Y-12852044D01*
X11215674Y-12853873D01*
X11222075Y-12854533D01*
X11232743Y-12854533D01*
X11232743Y-12740386D01*
X11180470Y-12740386D01*
G37*
G36*
X11080445Y-12854533D02*
G01*
X11091113Y-12854533D01*
X11097514Y-12853873D01*
X11103660Y-12852044D01*
X11106607Y-12851587D01*
X11109553Y-12852044D01*
X11115649Y-12853873D01*
X11122101Y-12854533D01*
X11132769Y-12854533D01*
X11132769Y-12740386D01*
X11080445Y-12740386D01*
G37*
G36*
X10980470Y-12854533D02*
G01*
X10991088Y-12854533D01*
X10997539Y-12853873D01*
X11003635Y-12852044D01*
X11006582Y-12851587D01*
X11009528Y-12852044D01*
X11015675Y-12853873D01*
X11022076Y-12854533D01*
X11032744Y-12854533D01*
X11032744Y-12740386D01*
X10980470Y-12740386D01*
G37*
G36*
X11280444Y-12854533D02*
G01*
X11291112Y-12854533D01*
X11297513Y-12853873D01*
X11303660Y-12852044D01*
X11306606Y-12851587D01*
X11309553Y-12852044D01*
X11315649Y-12853873D01*
X11322100Y-12854533D01*
X11332768Y-12854533D01*
X11332768Y-12740386D01*
X11280444Y-12740386D01*
G37*
G36*
X11922099Y-12854533D02*
G01*
X11991086Y-12854533D01*
X11997537Y-12853873D01*
X12003633Y-12852044D01*
X12006580Y-12851587D01*
X12009526Y-12852044D01*
X12015673Y-12853873D01*
X12022074Y-12854533D01*
X12032742Y-12854533D01*
X12032742Y-12740386D01*
X12028373Y-12739573D01*
X12025071Y-12737388D01*
X12022886Y-12734086D01*
X12022124Y-12730226D01*
X12022124Y-12557810D01*
X12022886Y-12553950D01*
X12025071Y-12550648D01*
X12028373Y-12548463D01*
X12032742Y-12547650D01*
X12032742Y-12433503D01*
X12022074Y-12433503D01*
X12015673Y-12434112D01*
X12009526Y-12435992D01*
X12006580Y-12436449D01*
X12003633Y-12435992D01*
X11997537Y-12434112D01*
X11991086Y-12433503D01*
X11922099Y-12433503D01*
X11915648Y-12434112D01*
X11909958Y-12435890D01*
X11904675Y-12438684D01*
X11900052Y-12442494D01*
X11896293Y-12447066D01*
X11893448Y-12452350D01*
X11891721Y-12458090D01*
X11891111Y-12464491D01*
X11891111Y-12823494D01*
X11891721Y-12829946D01*
X11893448Y-12835636D01*
X11896293Y-12840919D01*
X11900052Y-12845542D01*
X11904675Y-12849301D01*
X11909958Y-12852146D01*
X11915648Y-12853873D01*
G37*
G36*
X15580461Y-12547650D02*
G01*
X15632734Y-12547650D01*
X15632734Y-12433503D01*
X15622066Y-12433503D01*
X15615666Y-12434112D01*
X15609519Y-12435992D01*
X15606572Y-12436449D01*
X15603626Y-12435992D01*
X15597530Y-12434112D01*
X15591078Y-12433503D01*
X15580461Y-12433503D01*
G37*
G36*
X15680436Y-12547650D02*
G01*
X15722092Y-12547650D01*
X15722092Y-12464491D01*
X15721482Y-12458090D01*
X15719704Y-12452350D01*
X15716910Y-12447066D01*
X15713100Y-12442494D01*
X15708528Y-12438684D01*
X15703245Y-12435890D01*
X15697504Y-12434112D01*
X15691104Y-12433503D01*
X15680436Y-12433503D01*
G37*
G36*
X13080441Y-12547650D02*
G01*
X13132765Y-12547650D01*
X13132765Y-12433503D01*
X13122097Y-12433503D01*
X13115645Y-12434112D01*
X13109549Y-12435992D01*
X13106603Y-12436449D01*
X13103656Y-12435992D01*
X13097510Y-12434112D01*
X13091109Y-12433503D01*
X13080441Y-12433503D01*
G37*
G36*
X14680438Y-12547650D02*
G01*
X14732762Y-12547650D01*
X14732762Y-12433503D01*
X14722094Y-12433503D01*
X14715642Y-12434112D01*
X14709546Y-12435992D01*
X14706600Y-12436449D01*
X14703653Y-12435992D01*
X14697506Y-12434112D01*
X14691106Y-12433503D01*
X14680438Y-12433503D01*
G37*
G36*
X15480436Y-12547650D02*
G01*
X15532760Y-12547650D01*
X15532760Y-12433503D01*
X15522092Y-12433503D01*
X15515640Y-12434112D01*
X15509544Y-12435992D01*
X15506598Y-12436449D01*
X15503651Y-12435992D01*
X15497505Y-12434112D01*
X15491104Y-12433503D01*
X15480436Y-12433503D01*
G37*
G36*
X14280438Y-12547650D02*
G01*
X14332762Y-12547650D01*
X14332762Y-12433503D01*
X14322094Y-12433503D01*
X14315643Y-12434112D01*
X14309547Y-12435992D01*
X14306600Y-12436449D01*
X14303654Y-12435992D01*
X14297507Y-12434112D01*
X14291106Y-12433503D01*
X14280438Y-12433503D01*
G37*
G36*
X12280442Y-12547650D02*
G01*
X12332766Y-12547650D01*
X12332766Y-12433503D01*
X12322098Y-12433503D01*
X12315647Y-12434112D01*
X12309551Y-12435992D01*
X12306604Y-12436449D01*
X12303658Y-12435992D01*
X12297511Y-12434112D01*
X12291110Y-12433503D01*
X12280442Y-12433503D01*
G37*
G36*
X15080437Y-12547650D02*
G01*
X15132761Y-12547650D01*
X15132761Y-12433503D01*
X15122093Y-12433503D01*
X15115641Y-12434112D01*
X15109545Y-12435992D01*
X15106599Y-12436449D01*
X15103652Y-12435992D01*
X15097506Y-12434112D01*
X15091105Y-12433503D01*
X15080437Y-12433503D01*
G37*
G36*
X13480440Y-12547650D02*
G01*
X13532764Y-12547650D01*
X13532764Y-12433503D01*
X13522096Y-12433503D01*
X13515644Y-12434112D01*
X13509548Y-12435992D01*
X13506602Y-12436449D01*
X13503656Y-12435992D01*
X13497509Y-12434112D01*
X13491108Y-12433503D01*
X13480440Y-12433503D01*
G37*
G36*
X12680442Y-12547650D02*
G01*
X12732766Y-12547650D01*
X12732766Y-12433503D01*
X12722098Y-12433503D01*
X12715646Y-12434112D01*
X12709550Y-12435992D01*
X12706604Y-12436449D01*
X12703657Y-12435992D01*
X12697510Y-12434112D01*
X12691110Y-12433503D01*
X12680442Y-12433503D01*
G37*

%LPD*%
G36*
X11306048Y-14869058D02*
G01*
X11302136Y-14868296D01*
X11298885Y-14866061D01*
X11296650Y-14862810D01*
X11295888Y-14858898D01*
X11295888Y-14070584D01*
X11295075Y-14064081D01*
X11292941Y-14058341D01*
X11292281Y-14054328D01*
X11293246Y-14050365D01*
X11295735Y-14047114D01*
X11299291Y-14045082D01*
X11303355Y-14044625D01*
X11307267Y-14045844D01*
X11318036Y-14051178D01*
X11326063Y-14054480D01*
X11334242Y-14057376D01*
X11342522Y-14059814D01*
X11350955Y-14061846D01*
X11359489Y-14063421D01*
X11368074Y-14064589D01*
X11376710Y-14065250D01*
X11385499Y-14065504D01*
X12124080Y-14065504D01*
X12128246Y-14066367D01*
X12131649Y-14068856D01*
X12133783Y-14072514D01*
X12134189Y-14076680D01*
X12132919Y-14080744D01*
X12130074Y-14083842D01*
X12114225Y-14096593D01*
X12111888Y-14098676D01*
X12098680Y-14111884D01*
X12084812Y-14128750D01*
X12082983Y-14131239D01*
X12071248Y-14149628D01*
X12062764Y-14166291D01*
X12061494Y-14169136D01*
X12054789Y-14186611D01*
X12053824Y-14189557D01*
X12048337Y-14210690D01*
X12045086Y-14232229D01*
X12044070Y-14252752D01*
X12044070Y-14858898D01*
X12043308Y-14862810D01*
X12041073Y-14866061D01*
X12037822Y-14868296D01*
X12033910Y-14869058D01*
G37*

%LPD*%
G36*
X8011668Y-14869058D02*
G01*
X8007756Y-14868296D01*
X8004505Y-14866061D01*
X8002270Y-14862810D01*
X8001508Y-14858898D01*
X8001508Y-12356033D01*
X8002270Y-12352121D01*
X8004505Y-12348870D01*
X8007756Y-12346635D01*
X8011668Y-12345873D01*
X10658551Y-12345873D01*
X10662869Y-12346838D01*
X10666323Y-12349530D01*
X10668355Y-12353493D01*
X10668508Y-12357912D01*
X10666780Y-12361976D01*
X10663478Y-12364923D01*
X10657179Y-12368428D01*
X10650728Y-12373813D01*
X10624921Y-12399670D01*
X10619892Y-12406274D01*
X10616336Y-12413437D01*
X10614152Y-12421057D01*
X10613440Y-12428728D01*
X10612628Y-12431877D01*
X10610850Y-12434620D01*
X10608310Y-12436652D01*
X10604754Y-12438634D01*
X10600080Y-12442494D01*
X10596270Y-12447066D01*
X10593476Y-12452350D01*
X10591698Y-12458090D01*
X10591088Y-12464491D01*
X10591088Y-12823494D01*
X10591698Y-12829946D01*
X10593476Y-12835636D01*
X10596270Y-12840919D01*
X10600080Y-12845542D01*
X10604652Y-12849301D01*
X10606735Y-12850418D01*
X10609630Y-12852755D01*
X10611510Y-12855905D01*
X10612120Y-12859562D01*
X10611408Y-12863169D01*
X10603433Y-12875209D01*
X10599420Y-12884404D01*
X10596930Y-12894056D01*
X10596118Y-12904012D01*
X10596930Y-12913969D01*
X10599420Y-12923621D01*
X10603433Y-12932816D01*
X10608868Y-12941147D01*
X10615625Y-12948513D01*
X10623550Y-12954609D01*
X10632287Y-12959384D01*
X10641736Y-12962636D01*
X10651591Y-12964261D01*
X10661599Y-12964261D01*
X10663428Y-12963956D01*
X10667847Y-12964210D01*
X10671759Y-12966344D01*
X10674400Y-12969900D01*
X10675264Y-12974269D01*
X10674146Y-12978587D01*
X10669219Y-12988290D01*
X10663021Y-13004444D01*
X10658500Y-13021208D01*
X10655808Y-13038277D01*
X10654893Y-13055854D01*
X10654893Y-13334847D01*
X10655147Y-13343686D01*
X10655808Y-13352322D01*
X10656925Y-13360907D01*
X10658500Y-13369391D01*
X10660532Y-13377824D01*
X10663021Y-13386155D01*
X10665866Y-13394334D01*
X10669219Y-13402310D01*
X10672927Y-13410133D01*
X10677093Y-13417753D01*
X10681614Y-13425119D01*
X10686491Y-13432282D01*
X10691774Y-13439140D01*
X10697413Y-13445744D01*
X10703458Y-13452144D01*
X11268252Y-14016888D01*
X11274653Y-14022984D01*
X11278463Y-14026235D01*
X11281003Y-14029537D01*
X11282019Y-14033550D01*
X11281359Y-14037614D01*
X11279073Y-14041119D01*
X11275618Y-14043406D01*
X11271554Y-14044117D01*
X9435592Y-14044066D01*
X9429089Y-14044879D01*
X9423552Y-14046962D01*
X9418421Y-14050518D01*
X9415373Y-14053515D01*
X9412732Y-14057122D01*
X9410242Y-14062659D01*
X9409074Y-14070126D01*
X9409074Y-14858898D01*
X9408312Y-14862810D01*
X9406077Y-14866061D01*
X9402826Y-14868296D01*
X9398914Y-14869058D01*
G37*

%LPC*%
G36*
X8375192Y-14760498D02*
G01*
X9034830Y-14760498D01*
X9061196Y-14759482D01*
X9087256Y-14756587D01*
X9113012Y-14751710D01*
X9138310Y-14744903D01*
X9163050Y-14736267D01*
X9187078Y-14725751D01*
X9210243Y-14713508D01*
X9232442Y-14699589D01*
X9253524Y-14683994D01*
X9273387Y-14666925D01*
X9291929Y-14648383D01*
X9309049Y-14628520D01*
X9324594Y-14607438D01*
X9338564Y-14585238D01*
X9350806Y-14562074D01*
X9361271Y-14538045D01*
X9369907Y-14513306D01*
X9376714Y-14487956D01*
X9381591Y-14462201D01*
X9384538Y-14436191D01*
X9385503Y-14409978D01*
X9384538Y-14383766D01*
X9381591Y-14357756D01*
X9376714Y-14332000D01*
X9369907Y-14306651D01*
X9361271Y-14281912D01*
X9350806Y-14257883D01*
X9338564Y-14234718D01*
X9324594Y-14212519D01*
X9309049Y-14191437D01*
X9291929Y-14171574D01*
X9273387Y-14153032D01*
X9253524Y-14135963D01*
X9232442Y-14120368D01*
X9210243Y-14106448D01*
X9187078Y-14094206D01*
X9163050Y-14083690D01*
X9138310Y-14075054D01*
X9113012Y-14068247D01*
X9087256Y-14063370D01*
X9061196Y-14060474D01*
X9034830Y-14059458D01*
X8375192Y-14059458D01*
X8348827Y-14060474D01*
X8322767Y-14063370D01*
X8297011Y-14068247D01*
X8271713Y-14075054D01*
X8246973Y-14083690D01*
X8222945Y-14094206D01*
X8199729Y-14106448D01*
X8177580Y-14120368D01*
X8156448Y-14135963D01*
X8136585Y-14153032D01*
X8118043Y-14171574D01*
X8100974Y-14191437D01*
X8085429Y-14212519D01*
X8071459Y-14234718D01*
X8059216Y-14257883D01*
X8048752Y-14281912D01*
X8040065Y-14306651D01*
X8033308Y-14332000D01*
X8028431Y-14357756D01*
X8025485Y-14383766D01*
X8024520Y-14409978D01*
X8025485Y-14436191D01*
X8028431Y-14462201D01*
X8033308Y-14487956D01*
X8040065Y-14513306D01*
X8048752Y-14538045D01*
X8059216Y-14562074D01*
X8071459Y-14585238D01*
X8085429Y-14607438D01*
X8100974Y-14628520D01*
X8118043Y-14648383D01*
X8136585Y-14666925D01*
X8156448Y-14683994D01*
X8177580Y-14699589D01*
X8199729Y-14713508D01*
X8222945Y-14725751D01*
X8246973Y-14736267D01*
X8271713Y-14744903D01*
X8297011Y-14751710D01*
X8322767Y-14756587D01*
X8348827Y-14759482D01*
G37*

%LPD*%
D11*
X16599966Y-14999969D02*
G01*
X16599966Y-14821458D01*
X16568470Y-14789962D01*
X16568470Y-14569567D01*
X16588079Y-14549958D01*
X16499967Y-14999969D02*
G01*
X16499967Y-14821458D01*
X16531463Y-14789962D01*
X16531463Y-14569567D01*
X16511854Y-14549958D01*
X16199967Y-14999969D02*
G01*
X16199967Y-14821458D01*
X16168471Y-14789962D01*
X16168471Y-14569567D01*
X16188080Y-14549958D01*
X16099967Y-14999969D02*
G01*
X16099967Y-14821458D01*
X16131463Y-14789962D01*
X16131463Y-14569567D01*
X16111855Y-14549958D01*
X15599968Y-14999969D02*
G01*
X15599968Y-14821458D01*
X15568472Y-14789962D01*
X15568472Y-14569567D01*
X15588081Y-14549958D01*
X15499969Y-14999969D02*
G01*
X15499969Y-14821458D01*
X15531465Y-14789962D01*
X15531465Y-14569567D01*
X15511856Y-14549958D01*
X15199969Y-14999969D02*
G01*
X15199969Y-14821458D01*
X15168473Y-14789962D01*
X15168473Y-14569567D01*
X15188082Y-14549958D01*
X15099969Y-14999969D02*
G01*
X15099969Y-14821458D01*
X15131465Y-14789962D01*
X15131465Y-14569567D01*
X15111857Y-14549958D01*
X16899966Y-14999969D02*
G01*
X16899966Y-14821458D01*
X16931462Y-14789962D01*
X16931462Y-14569567D01*
X16911853Y-14549958D01*
X16999966Y-14999969D02*
G01*
X16999966Y-14821458D01*
X16968470Y-14789962D01*
X16968470Y-14569567D01*
X16988078Y-14549958D01*
X17299965Y-14999969D02*
G01*
X17299965Y-14821458D01*
X17331461Y-14789962D01*
X17331461Y-14569567D01*
X17311852Y-14549958D01*
X17399965Y-14999969D02*
G01*
X17399965Y-14821458D01*
X17368469Y-14789962D01*
X17368469Y-14569567D01*
X17388078Y-14549958D01*
D12*
X17499965Y-14999969D02*
G01*
X17499965Y-14749957D01*
X17449952Y-14699970D01*
X12799974Y-14999969D02*
G01*
X12799974Y-14699970D01*
X13799972Y-14999969D02*
G01*
X13799972Y-14749957D01*
X13846200Y-14703755D01*
X17199965Y-14999969D02*
G01*
X17199965Y-14749957D01*
X17249952Y-14699970D01*
X17099965Y-14999969D02*
G01*
X17099965Y-14749957D01*
X17049978Y-14699970D01*
X16799966Y-14999969D02*
G01*
X16799966Y-14749957D01*
X16849979Y-14699970D01*
X16699966Y-14999969D02*
G01*
X16699966Y-14749957D01*
X16649954Y-14699970D01*
X16399967Y-14999969D02*
G01*
X16399967Y-14749957D01*
X16449954Y-14699970D01*
X16299967Y-14999969D02*
G01*
X16299967Y-14749957D01*
X16249954Y-14699970D01*
X15999968Y-14999969D02*
G01*
X15999968Y-14749957D01*
X16049980Y-14699970D01*
X15699968Y-14999969D02*
G01*
X15699968Y-14749957D01*
X15649956Y-14699970D01*
X15399969Y-14999969D02*
G01*
X15399969Y-14749957D01*
X15449956Y-14699970D01*
X15299969Y-14999969D02*
G01*
X15299969Y-14749957D01*
X15249956Y-14699970D01*
X14999969Y-14999969D02*
G01*
X14999969Y-14749957D01*
X15049982Y-14699970D01*
X14899970Y-14999969D02*
G01*
X14899970Y-14749957D01*
X14849957Y-14699970D01*
X14599970Y-14999969D02*
G01*
X14599970Y-14749957D01*
X14649957Y-14699970D01*
X14399971Y-14999969D02*
G01*
X14399971Y-14749957D01*
X14449958Y-14699970D01*
X14149984Y-14699970D02*
G01*
X14099971Y-14749957D01*
X14099971Y-14999969D01*
D11*
X14799970Y-14999969D02*
G01*
X14799970Y-14821458D01*
X14768474Y-14789962D01*
X14768474Y-14569567D01*
X14788083Y-14549958D01*
X14699970Y-14999969D02*
G01*
X14699970Y-14821458D01*
X14731466Y-14789962D01*
X14731466Y-14569567D01*
X14711857Y-14549958D01*
D12*
X12499975Y-14699970D02*
G01*
X12499975Y-14599970D01*
X12699974Y-14999969D02*
G01*
X12699974Y-14599970D01*
X12599974Y-14999969D02*
G01*
X12599974Y-14599970D01*
X12599974Y-14499971D01*
D11*
X14199971Y-14999969D02*
G01*
X14199971Y-14821458D01*
X14231467Y-14789962D01*
X14231467Y-14569567D01*
X14211858Y-14549958D01*
X14299971Y-14999969D02*
G01*
X14299971Y-14821458D01*
X14268475Y-14789962D01*
X14268475Y-14569567D01*
X14288084Y-14549958D01*
D12*
X11156594Y-12644018D02*
G01*
X11156594Y-12904012D01*
X11356594Y-12644018D02*
G01*
X11356594Y-12904012D01*
X11256594Y-12644018D02*
G01*
X11256594Y-12904012D01*
X10956594Y-12644018D02*
G01*
X10956594Y-12854000D01*
X11006582Y-12904012D01*
X11056594Y-12854000D01*
X11056594Y-12644018D01*
X12056592Y-12644018D02*
G01*
X12056592Y-12894005D01*
X12256592Y-12644018D02*
G01*
X12256592Y-12844018D01*
X12306579Y-12894005D01*
X15656585Y-12644018D02*
G01*
X15656585Y-12844018D01*
X15606572Y-12894005D01*
X15356586Y-12644018D02*
G01*
X15356586Y-12844018D01*
X15406573Y-12894005D01*
X15256586Y-12644018D02*
G01*
X15256586Y-12844018D01*
X15206599Y-12894005D01*
X14056588Y-12644018D02*
G01*
X14056588Y-12844018D01*
X14006576Y-12894005D01*
X14156588Y-12644018D02*
G01*
X14156588Y-12844018D01*
X14206601Y-12894005D01*
X14956586Y-12644018D02*
G01*
X14956586Y-12844018D01*
X15006574Y-12894005D01*
X14856587Y-12644018D02*
G01*
X14856587Y-12844018D01*
X14806574Y-12894005D01*
X14556587Y-12644018D02*
G01*
X14556587Y-12844018D01*
X14606574Y-12894005D01*
X14456587Y-12644018D02*
G01*
X14456587Y-12844018D01*
X14406575Y-12894005D01*
X13756589Y-12644018D02*
G01*
X13756589Y-12844018D01*
X13806576Y-12894005D01*
X13656589Y-12644018D02*
G01*
X13656589Y-12844018D01*
X13606576Y-12894005D01*
X13356590Y-12644018D02*
G01*
X13356590Y-12844018D01*
X13406602Y-12894005D01*
X13256590Y-12644018D02*
G01*
X13256590Y-12844018D01*
X13206603Y-12894005D01*
X12956590Y-12644018D02*
G01*
X12956590Y-12844018D01*
X13006578Y-12894005D01*
X12856591Y-12644018D02*
G01*
X12856591Y-12844018D01*
X12806578Y-12894005D01*
X12556591Y-12644018D02*
G01*
X12556591Y-12844018D01*
X12606578Y-12894005D01*
X10856595Y-12644018D02*
G01*
X10856595Y-13004012D01*
D10*
X11556593Y-12644018D02*
G01*
X11556593Y-12429007D01*
X11581587Y-12404013D02*
G01*
X11631599Y-12404013D01*
X11656593Y-12429007D01*
X11656593Y-12644018D01*
X10656595Y-12644018D02*
G01*
X10656595Y-12904012D01*
D12*
X10756595Y-13004012D02*
G01*
X10756595Y-12644018D01*
D10*
X11506581Y-12404013D02*
G01*
X11581587Y-12404013D01*
X11556593Y-12429007D01*
X11531600Y-12404013D01*
X11506581Y-12404013D01*
X10681589Y-12404013D01*
X10656595Y-12429007D01*
X10656595Y-12644018D01*
X11456593Y-12644018D02*
G01*
X11456593Y-13056793D01*
X11506200Y-13106400D01*
X11912600Y-13106400D01*
X13499973Y-14999969D02*
G01*
X13499973Y-14549958D01*
X12156592Y-13206577D01*
X12156592Y-12644018D01*
D11*
X12478197Y-13202018D02*
G01*
X12425095Y-13148917D01*
X12425095Y-12825501D01*
X12456591Y-12794005D01*
X12456591Y-12644018D01*
X13999972Y-14999969D02*
G01*
X13999972Y-14819960D01*
X13968476Y-14788489D01*
X13968476Y-14691487D01*
X13843482Y-14566493D01*
X13843482Y-14492300D01*
X13757630Y-14406448D01*
X13682649Y-14406448D01*
X12446685Y-13170509D01*
X13899972Y-14999969D02*
G01*
X13899972Y-14819960D01*
X13931468Y-14788489D01*
X13931468Y-14706828D01*
X13806449Y-14581835D01*
X13806449Y-14507641D01*
X13742314Y-14443481D01*
X13667308Y-14443481D01*
X12388088Y-13164261D01*
X12388088Y-12824002D01*
X12356592Y-12792532D01*
X12356592Y-12644018D01*
X14088084Y-14643988D02*
G01*
X14068475Y-14624405D01*
X14068475Y-14392300D01*
X12725095Y-13048919D01*
X12725095Y-12820497D01*
X12756591Y-12789001D01*
X12756591Y-12644018D01*
X14011859Y-14643988D02*
G01*
X14031468Y-14624405D01*
X14031468Y-14407642D01*
X12688087Y-13064261D01*
X12688087Y-12820497D01*
X12656591Y-12789001D01*
X12656591Y-12644018D01*
X14588083Y-14649957D02*
G01*
X14568474Y-14630374D01*
X14568474Y-14492300D01*
X13125094Y-13048919D01*
X13125094Y-12820497D01*
X13156590Y-12789001D01*
X13156590Y-12644018D01*
X14511858Y-14649957D02*
G01*
X14531467Y-14630374D01*
X14531467Y-14507641D01*
X13088086Y-13064261D01*
X13088086Y-12820497D01*
X13056590Y-12789001D01*
X13056590Y-12644018D01*
X14988082Y-14649957D02*
G01*
X14968474Y-14630374D01*
X14968474Y-14492300D01*
X13525093Y-13048919D01*
X13525093Y-12820497D01*
X13556589Y-12789001D01*
X13556589Y-12644018D01*
X14911857Y-14649957D02*
G01*
X14931466Y-14630374D01*
X14931466Y-14507641D01*
X13488085Y-13064236D01*
X13488085Y-12820497D01*
X13456589Y-12789001D01*
X13456589Y-12644018D01*
X15388082Y-14649957D02*
G01*
X15368473Y-14630374D01*
X15368473Y-14492300D01*
X13925092Y-13048919D01*
X13925092Y-12820497D01*
X13956588Y-12789001D01*
X13956588Y-12644018D01*
X15988080Y-14649957D02*
G01*
X15968472Y-14630374D01*
X15968472Y-14542312D01*
X15107640Y-13681456D01*
X14957628Y-13681456D01*
X14325092Y-13048919D01*
X14325092Y-12820497D01*
X14356588Y-12789001D01*
X14356588Y-12644018D01*
X15911855Y-14649957D02*
G01*
X15931464Y-14630374D01*
X15931464Y-14557629D01*
X15092299Y-13718489D01*
X14942312Y-13718489D01*
X14288084Y-13064261D01*
X14288084Y-12820497D01*
X14256588Y-12789001D01*
X14256588Y-12644018D01*
X16388080Y-14649957D02*
G01*
X16368471Y-14630374D01*
X16368471Y-14442313D01*
X15407640Y-13481456D01*
X15157627Y-13481456D01*
X14725091Y-13048919D01*
X14725091Y-12820497D01*
X14756587Y-12789001D01*
X14756587Y-12644018D01*
X16311854Y-14649957D02*
G01*
X16331463Y-14630374D01*
X16331463Y-14457629D01*
X15392298Y-13518489D01*
X15142311Y-13518489D01*
X14688083Y-13064286D01*
X14688083Y-12820497D01*
X14656587Y-12789001D01*
X14656587Y-12644018D01*
X16788079Y-14649957D02*
G01*
X16768470Y-14630374D01*
X16768470Y-14442313D01*
X15607639Y-13281456D01*
X15357627Y-13281456D01*
X15125090Y-13048919D01*
X15125090Y-12820497D01*
X15156586Y-12789001D01*
X15156586Y-12644018D01*
X16711853Y-14649957D02*
G01*
X16731462Y-14630374D01*
X16731462Y-14457629D01*
X15592298Y-13318490D01*
X15342311Y-13318490D01*
X15088082Y-13064261D01*
X15088082Y-12820497D01*
X15056586Y-12789001D01*
X15056586Y-12644018D01*
X17188078Y-14649957D02*
G01*
X17168469Y-14630374D01*
X17168469Y-14442313D01*
X15807639Y-13081457D01*
X15557626Y-13081457D01*
X15525089Y-13048919D01*
X15525089Y-12820497D01*
X15556585Y-12789001D01*
X15556585Y-12644018D01*
X17111853Y-14649957D02*
G01*
X17131461Y-14630374D01*
X17131461Y-14457629D01*
X15792297Y-13118490D01*
X15542310Y-13118490D01*
X15488081Y-13064261D01*
X15488081Y-12820497D01*
X15456585Y-12789001D01*
X15456585Y-12644018D01*
D10*
X13399973Y-14999969D02*
G01*
X13399973Y-14749957D01*
X13331215Y-14681200D01*
X13182600Y-14681200D01*
X13221611Y-14681200D01*
X13299973Y-14759559D01*
X13299973Y-14999969D01*
D11*
X15311856Y-14649957D02*
G01*
X15331465Y-14630374D01*
X15331465Y-14507641D01*
X13888085Y-13064261D01*
X13888085Y-12820497D01*
X13856588Y-12789001D01*
X13856588Y-12644018D01*
D15*
X12599974Y-14599970D02*
G01*
X12599974Y-14120799D01*
X12379147Y-13899972D01*
X11385372Y-13899972D01*
X10820400Y-13335000D01*
X10820400Y-13055600D01*
G36*
X10621594Y-12464008D02*
G01*
X10691596Y-12464008D01*
X10691596Y-12824002D01*
X10621594Y-12824002D01*
G37*
G36*
X10721594Y-12464008D02*
G01*
X10791596Y-12464008D01*
X10791596Y-12824002D01*
X10721594Y-12824002D01*
G37*
G36*
X10821593Y-12464008D02*
G01*
X10891596Y-12464008D01*
X10891596Y-12824002D01*
X10821593Y-12824002D01*
G37*
G36*
X10921593Y-12464008D02*
G01*
X10991596Y-12464008D01*
X10991596Y-12824002D01*
X10921593Y-12824002D01*
G37*
G36*
X11021593Y-12464008D02*
G01*
X11091595Y-12464008D01*
X11091595Y-12824002D01*
X11021593Y-12824002D01*
G37*
G36*
X11121593Y-12464008D02*
G01*
X11191595Y-12464008D01*
X11191595Y-12824002D01*
X11121593Y-12824002D01*
G37*
G36*
X11221593Y-12464008D02*
G01*
X11291595Y-12464008D01*
X11291595Y-12824002D01*
X11221593Y-12824002D01*
G37*
G36*
X11321592Y-12464008D02*
G01*
X11391595Y-12464008D01*
X11391595Y-12824002D01*
X11321592Y-12824002D01*
G37*
G36*
X11421592Y-12464008D02*
G01*
X11491595Y-12464008D01*
X11491595Y-12824002D01*
X11421592Y-12824002D01*
G37*
G36*
X11521592Y-12464008D02*
G01*
X11591594Y-12464008D01*
X11591594Y-12824002D01*
X11521592Y-12824002D01*
G37*
G36*
X11621592Y-12464008D02*
G01*
X11691594Y-12464008D01*
X11691594Y-12824002D01*
X11621592Y-12824002D01*
G37*
G36*
X11921591Y-12464008D02*
G01*
X11991594Y-12464008D01*
X11991594Y-12824002D01*
X11921591Y-12824002D01*
G37*
G36*
X12021591Y-12464008D02*
G01*
X12091593Y-12464008D01*
X12091593Y-12824002D01*
X12021591Y-12824002D01*
G37*
G36*
X12121591Y-12464008D02*
G01*
X12191593Y-12464008D01*
X12191593Y-12824002D01*
X12121591Y-12824002D01*
G37*
G36*
X12221591Y-12464008D02*
G01*
X12291593Y-12464008D01*
X12291593Y-12824002D01*
X12221591Y-12824002D01*
G37*
G36*
X12321590Y-12464008D02*
G01*
X12391593Y-12464008D01*
X12391593Y-12824002D01*
X12321590Y-12824002D01*
G37*
G36*
X12421590Y-12464008D02*
G01*
X12491593Y-12464008D01*
X12491593Y-12824002D01*
X12421590Y-12824002D01*
G37*
G36*
X12521590Y-12464008D02*
G01*
X12591592Y-12464008D01*
X12591592Y-12824002D01*
X12521590Y-12824002D01*
G37*
G36*
X12621590Y-12464008D02*
G01*
X12691592Y-12464008D01*
X12691592Y-12824002D01*
X12621590Y-12824002D01*
G37*
G36*
X12721590Y-12464008D02*
G01*
X12791592Y-12464008D01*
X12791592Y-12824002D01*
X12721590Y-12824002D01*
G37*
G36*
X12821589Y-12464008D02*
G01*
X12891592Y-12464008D01*
X12891592Y-12824002D01*
X12821589Y-12824002D01*
G37*
G36*
X12921589Y-12464008D02*
G01*
X12991592Y-12464008D01*
X12991592Y-12824002D01*
X12921589Y-12824002D01*
G37*
G36*
X13021589Y-12464008D02*
G01*
X13091591Y-12464008D01*
X13091591Y-12824002D01*
X13021589Y-12824002D01*
G37*
G36*
X13121589Y-12464008D02*
G01*
X13191591Y-12464008D01*
X13191591Y-12824002D01*
X13121589Y-12824002D01*
G37*
G36*
X13221588Y-12464008D02*
G01*
X13291591Y-12464008D01*
X13291591Y-12824002D01*
X13221588Y-12824002D01*
G37*
G36*
X13321588Y-12464008D02*
G01*
X13391591Y-12464008D01*
X13391591Y-12824002D01*
X13321588Y-12824002D01*
G37*
G36*
X13421588Y-12464008D02*
G01*
X13491591Y-12464008D01*
X13491591Y-12824002D01*
X13421588Y-12824002D01*
G37*
G36*
X13521588Y-12464008D02*
G01*
X13591590Y-12464008D01*
X13591590Y-12824002D01*
X13521588Y-12824002D01*
G37*
G36*
X13621588Y-12464008D02*
G01*
X13691590Y-12464008D01*
X13691590Y-12824002D01*
X13621588Y-12824002D01*
G37*
G36*
X13721588Y-12464008D02*
G01*
X13791590Y-12464008D01*
X13791590Y-12824002D01*
X13721588Y-12824002D01*
G37*
G36*
X13821587Y-12464008D02*
G01*
X13891590Y-12464008D01*
X13891590Y-12824002D01*
X13821587Y-12824002D01*
G37*
G36*
X13921587Y-12464008D02*
G01*
X13991590Y-12464008D01*
X13991590Y-12824002D01*
X13921587Y-12824002D01*
G37*
G36*
X14021587Y-12464008D02*
G01*
X14091589Y-12464008D01*
X14091589Y-12824002D01*
X14021587Y-12824002D01*
G37*
G36*
X14121587Y-12464008D02*
G01*
X14191589Y-12464008D01*
X14191589Y-12824002D01*
X14121587Y-12824002D01*
G37*
G36*
X14221587Y-12464008D02*
G01*
X14291589Y-12464008D01*
X14291589Y-12824002D01*
X14221587Y-12824002D01*
G37*
G36*
X14321586Y-12464008D02*
G01*
X14391589Y-12464008D01*
X14391589Y-12824002D01*
X14321586Y-12824002D01*
G37*
G36*
X14421586Y-12464008D02*
G01*
X14491588Y-12464008D01*
X14491588Y-12824002D01*
X14421586Y-12824002D01*
G37*
G36*
X14521586Y-12464008D02*
G01*
X14591588Y-12464008D01*
X14591588Y-12824002D01*
X14521586Y-12824002D01*
G37*
G36*
X14621586Y-12464008D02*
G01*
X14691588Y-12464008D01*
X14691588Y-12824002D01*
X14621586Y-12824002D01*
G37*
G36*
X14721586Y-12464008D02*
G01*
X14791588Y-12464008D01*
X14791588Y-12824002D01*
X14721586Y-12824002D01*
G37*
G36*
X14821585Y-12464008D02*
G01*
X14891588Y-12464008D01*
X14891588Y-12824002D01*
X14821585Y-12824002D01*
G37*
G36*
X14921585Y-12464008D02*
G01*
X14991588Y-12464008D01*
X14991588Y-12824002D01*
X14921585Y-12824002D01*
G37*
G36*
X15021585Y-12464008D02*
G01*
X15091587Y-12464008D01*
X15091587Y-12824002D01*
X15021585Y-12824002D01*
G37*
G36*
X15121585Y-12464008D02*
G01*
X15191587Y-12464008D01*
X15191587Y-12824002D01*
X15121585Y-12824002D01*
G37*
G36*
X15221585Y-12464008D02*
G01*
X15291587Y-12464008D01*
X15291587Y-12824002D01*
X15221585Y-12824002D01*
G37*
G36*
X15321584Y-12464008D02*
G01*
X15391587Y-12464008D01*
X15391587Y-12824002D01*
X15321584Y-12824002D01*
G37*
G36*
X15421584Y-12464008D02*
G01*
X15491587Y-12464008D01*
X15491587Y-12824002D01*
X15421584Y-12824002D01*
G37*
G36*
X15521584Y-12464008D02*
G01*
X15591586Y-12464008D01*
X15591586Y-12824002D01*
X15521584Y-12824002D01*
G37*
G36*
X15621584Y-12464008D02*
G01*
X15691586Y-12464008D01*
X15691586Y-12824002D01*
X15621584Y-12824002D01*
G37*
G36*
X16664965Y-14784959D02*
G01*
X16734967Y-14784959D01*
X16734967Y-15214981D01*
X16664965Y-15214981D01*
G37*
G36*
X16564965Y-14784959D02*
G01*
X16634968Y-14784959D01*
X16634968Y-15214981D01*
X16564965Y-15214981D01*
G37*
G36*
X16464965Y-14784959D02*
G01*
X16534968Y-14784959D01*
X16534968Y-15214981D01*
X16464965Y-15214981D01*
G37*
G36*
X16364966Y-14784959D02*
G01*
X16434968Y-14784959D01*
X16434968Y-15214981D01*
X16364966Y-15214981D01*
G37*
G36*
X16264966Y-14784959D02*
G01*
X16334968Y-14784959D01*
X16334968Y-15214981D01*
X16264966Y-15214981D01*
G37*
G36*
X16164966Y-14784959D02*
G01*
X16234968Y-14784959D01*
X16234968Y-15214981D01*
X16164966Y-15214981D01*
G37*
G36*
X16064966Y-14784959D02*
G01*
X16134969Y-14784959D01*
X16134969Y-15214981D01*
X16064966Y-15214981D01*
G37*
G36*
X15964966Y-14784959D02*
G01*
X16034969Y-14784959D01*
X16034969Y-15214981D01*
X15964966Y-15214981D01*
G37*
G36*
X15864967Y-14784959D02*
G01*
X15934969Y-14784959D01*
X15934969Y-15214981D01*
X15864967Y-15214981D01*
G37*
G36*
X15764967Y-14784959D02*
G01*
X15834969Y-14784959D01*
X15834969Y-15214981D01*
X15764967Y-15214981D01*
G37*
G36*
X15664967Y-14784959D02*
G01*
X15734969Y-14784959D01*
X15734969Y-15214981D01*
X15664967Y-15214981D01*
G37*
G36*
X15564967Y-14784959D02*
G01*
X15634969Y-14784959D01*
X15634969Y-15214981D01*
X15564967Y-15214981D01*
G37*
G36*
X15464967Y-14784959D02*
G01*
X15534970Y-14784959D01*
X15534970Y-15214981D01*
X15464967Y-15214981D01*
G37*
G36*
X15364968Y-14784959D02*
G01*
X15434970Y-14784959D01*
X15434970Y-15214981D01*
X15364968Y-15214981D01*
G37*
G36*
X15264968Y-14784959D02*
G01*
X15334970Y-14784959D01*
X15334970Y-15214981D01*
X15264968Y-15214981D01*
G37*
G36*
X15164968Y-14784959D02*
G01*
X15234970Y-14784959D01*
X15234970Y-15214981D01*
X15164968Y-15214981D01*
G37*
G36*
X15064968Y-14784959D02*
G01*
X15134971Y-14784959D01*
X15134971Y-15214981D01*
X15064968Y-15214981D01*
G37*
G36*
X14964968Y-14784959D02*
G01*
X15034971Y-14784959D01*
X15034971Y-15214981D01*
X14964968Y-15214981D01*
G37*
G36*
X14864969Y-14784959D02*
G01*
X14934971Y-14784959D01*
X14934971Y-15214981D01*
X14864969Y-15214981D01*
G37*
G36*
X14764969Y-14784959D02*
G01*
X14834971Y-14784959D01*
X14834971Y-15214981D01*
X14764969Y-15214981D01*
G37*
G36*
X14664969Y-14784959D02*
G01*
X14734971Y-14784959D01*
X14734971Y-15214981D01*
X14664969Y-15214981D01*
G37*
G36*
X14564969Y-14784959D02*
G01*
X14634972Y-14784959D01*
X14634972Y-15214981D01*
X14564969Y-15214981D01*
G37*
G36*
X14464969Y-14784959D02*
G01*
X14534972Y-14784959D01*
X14534972Y-15214981D01*
X14464969Y-15214981D01*
G37*
G36*
X12464973Y-14784959D02*
G01*
X12534976Y-14784959D01*
X12534976Y-15104973D01*
X12464973Y-15104973D01*
G37*
G36*
X12564973Y-14784959D02*
G01*
X12634976Y-14784959D01*
X12634976Y-15214981D01*
X12564973Y-15214981D01*
G37*
G36*
X12664973Y-14784959D02*
G01*
X12734975Y-14784959D01*
X12734975Y-15214981D01*
X12664973Y-15214981D01*
G37*
G36*
X12764973Y-14784959D02*
G01*
X12834975Y-14784959D01*
X12834975Y-15214981D01*
X12764973Y-15214981D01*
G37*
G36*
X12864973Y-14784959D02*
G01*
X12934975Y-14784959D01*
X12934975Y-15214981D01*
X12864973Y-15214981D01*
G37*
G36*
X12964972Y-14784959D02*
G01*
X13034975Y-14784959D01*
X13034975Y-15214981D01*
X12964972Y-15214981D01*
G37*
G36*
X13064972Y-14784959D02*
G01*
X13134975Y-14784959D01*
X13134975Y-15214981D01*
X13064972Y-15214981D01*
G37*
G36*
X13164972Y-14784959D02*
G01*
X13234974Y-14784959D01*
X13234974Y-15214981D01*
X13164972Y-15214981D01*
G37*
G36*
X13264972Y-14784959D02*
G01*
X13334974Y-14784959D01*
X13334974Y-15214981D01*
X13264972Y-15214981D01*
G37*
G36*
X13364972Y-14784959D02*
G01*
X13434974Y-14784959D01*
X13434974Y-15214981D01*
X13364972Y-15214981D01*
G37*
G36*
X13464971Y-14784959D02*
G01*
X13534974Y-14784959D01*
X13534974Y-15214981D01*
X13464971Y-15214981D01*
G37*
G36*
X13964970Y-14784959D02*
G01*
X14034973Y-14784959D01*
X14034973Y-15214981D01*
X13964970Y-15214981D01*
G37*
G36*
X14064970Y-14784959D02*
G01*
X14134973Y-14784959D01*
X14134973Y-15214981D01*
X14064970Y-15214981D01*
G37*
G36*
X14164970Y-14784959D02*
G01*
X14234972Y-14784959D01*
X14234972Y-15214981D01*
X14164970Y-15214981D01*
G37*
G36*
X14264970Y-14784959D02*
G01*
X14334972Y-14784959D01*
X14334972Y-15214981D01*
X14264970Y-15214981D01*
G37*
G36*
X14364969Y-14784959D02*
G01*
X14434972Y-14784959D01*
X14434972Y-15214981D01*
X14364969Y-15214981D01*
G37*
G36*
X13764971Y-14784959D02*
G01*
X13834973Y-14784959D01*
X13834973Y-15214981D01*
X13764971Y-15214981D01*
G37*
G36*
X13864971Y-14784959D02*
G01*
X13934973Y-14784959D01*
X13934973Y-15214981D01*
X13864971Y-15214981D01*
G37*
G36*
X16764965Y-14784959D02*
G01*
X16834967Y-14784959D01*
X16834967Y-15214981D01*
X16764965Y-15214981D01*
G37*
G36*
X16864965Y-14784959D02*
G01*
X16934967Y-14784959D01*
X16934967Y-15214981D01*
X16864965Y-15214981D01*
G37*
G36*
X16964964Y-14784959D02*
G01*
X17034967Y-14784959D01*
X17034967Y-15214981D01*
X16964964Y-15214981D01*
G37*
G36*
X17064964Y-14784959D02*
G01*
X17134967Y-14784959D01*
X17134967Y-15214981D01*
X17064964Y-15214981D01*
G37*
G36*
X17164964Y-14784959D02*
G01*
X17234966Y-14784959D01*
X17234966Y-15214981D01*
X17164964Y-15214981D01*
G37*
G36*
X17264964Y-14784959D02*
G01*
X17334966Y-14784959D01*
X17334966Y-15214981D01*
X17264964Y-15214981D01*
G37*
G36*
X17364964Y-14784959D02*
G01*
X17434966Y-14784959D01*
X17434966Y-15214981D01*
X17364964Y-15214981D01*
G37*
G36*
X17464963Y-14784959D02*
G01*
X17534966Y-14784959D01*
X17534966Y-15214981D01*
X17464963Y-15214981D01*
G37*
G36*
X10721009Y-12464999D02*
G01*
X10891012Y-12464999D01*
X10891012Y-13277799D01*
X10721009Y-13277799D01*
G37*
D13*
G01*
X14288084Y-14549958D03*
G01*
X14211858Y-14549958D03*
G01*
X13182600Y-14681200D03*
G01*
X10656595Y-12904012D03*
D12*
G01*
X12599974Y-14599970D03*
G01*
X12699974Y-14599970D03*
G01*
X12599974Y-14699970D03*
G01*
X12699974Y-14699970D03*
G01*
X10753902Y-13006400D03*
G01*
X10856595Y-13006400D03*
G01*
X10753902Y-12904012D03*
G01*
X10856595Y-12904012D03*
G01*
X10753902Y-13106400D03*
G01*
X10856595Y-13106400D03*
G01*
X12599974Y-14499971D03*
G01*
X12499975Y-14599970D03*
G01*
X12499975Y-14699970D03*
G01*
X12499975Y-14499971D03*
D13*
G01*
X14088084Y-14643988D03*
G01*
X14011859Y-14643988D03*
G01*
X11912600Y-13106400D03*
G01*
X14511858Y-14649957D03*
G01*
X14588083Y-14649957D03*
G01*
X14711857Y-14549958D03*
G01*
X14788083Y-14549958D03*
G01*
X17449952Y-14599970D03*
G01*
X17449952Y-14499971D03*
G01*
X14149984Y-14699970D03*
G01*
X14149984Y-14599970D03*
G01*
X14149984Y-14499971D03*
G01*
X14349958Y-14499971D03*
G01*
X14349958Y-14599970D03*
G01*
X14099971Y-14299971D03*
G01*
X14199971Y-14299971D03*
G01*
X14299971Y-14099971D03*
G01*
X14399971Y-14099971D03*
G01*
X14499971Y-13899972D03*
G01*
X14599970Y-13899972D03*
G01*
X14449958Y-14699970D03*
G01*
X14449958Y-14599970D03*
G01*
X14649957Y-14599970D03*
G01*
X14649957Y-14699970D03*
G01*
X14649957Y-14499971D03*
G01*
X14849957Y-14599970D03*
G01*
X14849957Y-14699970D03*
G01*
X15049982Y-14599970D03*
G01*
X15049982Y-14499971D03*
G01*
X15049982Y-14699970D03*
G01*
X15249956Y-14599970D03*
G01*
X15249956Y-14699970D03*
G01*
X15449956Y-14699970D03*
G01*
X15449956Y-14599970D03*
G01*
X15449956Y-14499971D03*
G01*
X15649956Y-14499971D03*
G01*
X15649956Y-14599970D03*
G01*
X15649956Y-14699970D03*
G01*
X15849955Y-14599970D03*
G01*
X15849955Y-14699970D03*
G01*
X16049980Y-14699970D03*
G01*
X16049980Y-14599970D03*
G01*
X16049980Y-14499971D03*
G01*
X16249954Y-14499971D03*
G01*
X16249954Y-14599970D03*
G01*
X16249954Y-14699970D03*
G01*
X16449954Y-14699970D03*
G01*
X16449954Y-14599970D03*
G01*
X16449954Y-14499971D03*
G01*
X16649954Y-14499971D03*
G01*
X16649954Y-14599970D03*
G01*
X16649954Y-14699970D03*
G01*
X16849979Y-14699970D03*
G01*
X16849979Y-14599970D03*
G01*
X16849979Y-14499971D03*
G01*
X17049978Y-14499971D03*
G01*
X17049978Y-14599970D03*
G01*
X17049978Y-14699970D03*
G01*
X17249952Y-14699970D03*
G01*
X17249952Y-14599970D03*
G01*
X17249952Y-14499971D03*
G01*
X14849957Y-14509978D03*
G01*
X15249956Y-14509978D03*
G01*
X13849731Y-14700224D03*
G01*
X15406573Y-12894005D03*
G01*
X15206599Y-12894005D03*
G01*
X15006574Y-12894005D03*
G01*
X14806574Y-12894005D03*
G01*
X14606574Y-12894005D03*
G01*
X14406575Y-12894005D03*
G01*
X14206601Y-12894005D03*
G01*
X14006576Y-12894005D03*
G01*
X13806576Y-12894005D03*
G01*
X13606576Y-12894005D03*
G01*
X13406602Y-12894005D03*
G01*
X13206603Y-12894005D03*
G01*
X13006578Y-12894005D03*
G01*
X12806578Y-12894005D03*
G01*
X12606578Y-12894005D03*
G01*
X12306579Y-12894005D03*
G01*
X15606572Y-12894005D03*
G01*
X12056592Y-12894005D03*
G01*
X16199967Y-13099973D03*
G01*
X12056592Y-13030200D03*
G01*
X12316612Y-13231012D03*
G01*
X12466599Y-13380999D03*
G01*
X12616611Y-13530986D03*
G01*
X12766598Y-13680998D03*
G01*
X12916611Y-13830985D03*
G01*
X13066623Y-13980998D03*
G01*
X13216610Y-14131010D03*
G01*
X13366597Y-14280997D03*
G01*
X13516610Y-14430984D03*
G01*
X15925800Y-12894005D03*
G01*
X15766186Y-12894005D03*
G01*
X14799970Y-13699972D03*
G01*
X14899970Y-13499973D03*
G01*
X14999969Y-13499973D03*
G01*
X15099969Y-13299973D03*
G01*
X15199969Y-13299973D03*
G01*
X15299969Y-13099973D03*
G01*
X15399969Y-13099973D03*
G01*
X14699970Y-13699972D03*
G01*
X12799974Y-14699970D03*
G01*
X12979400Y-14655800D03*
G01*
X11006582Y-12904012D03*
G01*
X11156594Y-12904012D03*
G01*
X11256594Y-12904012D03*
G01*
X11356594Y-12904012D03*
G01*
X13949984Y-14589963D03*
G01*
X11533200Y-13639800D03*
G01*
X11733199Y-13639800D03*
G01*
X11533200Y-13539800D03*
G01*
X11633200Y-13539800D03*
G01*
X11733199Y-13539800D03*
G01*
X11633200Y-13639800D03*
G01*
X12899974Y-14599970D03*
G01*
X12899974Y-14699970D03*
G01*
X11904345Y-12928600D03*
G01*
X11349964Y-13324967D03*
G01*
X11549989Y-13224967D03*
G01*
X11449964Y-13324967D03*
G01*
X11349964Y-13224967D03*
G01*
X11549989Y-13324967D03*
G01*
X11449964Y-13224967D03*
G01*
X17449952Y-14699970D03*
G01*
X11531600Y-13030200D03*
G01*
X11785600Y-12928600D03*
G01*
X12056592Y-13233400D03*
G01*
X12215012Y-13383387D03*
G01*
X17388078Y-14549958D03*
G01*
X17311852Y-14549958D03*
G01*
X16988078Y-14549958D03*
G01*
X16911853Y-14549958D03*
G01*
X14911857Y-14649957D03*
G01*
X14988082Y-14649957D03*
G01*
X15311856Y-14649957D03*
G01*
X15388082Y-14649957D03*
G01*
X15111857Y-14549958D03*
G01*
X15188082Y-14549958D03*
G01*
X15511856Y-14549958D03*
G01*
X15588081Y-14549958D03*
G01*
X15911855Y-14649957D03*
G01*
X15988080Y-14649957D03*
G01*
X16311854Y-14649957D03*
G01*
X16388080Y-14649957D03*
G01*
X16711853Y-14649957D03*
G01*
X16788079Y-14649957D03*
G01*
X17111853Y-14649957D03*
G01*
X17188078Y-14649957D03*
G01*
X16111855Y-14549958D03*
G01*
X16188080Y-14549958D03*
G01*
X16511854Y-14549958D03*
G01*
X16588079Y-14549958D03*
G01*
X11838787Y-13337387D03*
G01*
X12365024Y-13533348D03*
G01*
X12515037Y-13683310D03*
G01*
X12665049Y-13833271D03*
G01*
X12815062Y-13983233D03*
G01*
X12965074Y-14133194D03*
G01*
X13115086Y-14283156D03*
G01*
X13265099Y-14433118D03*
G01*
X13415111Y-14583079D03*
G01*
X16049980Y-12949961D03*
G01*
X16349954Y-13249986D03*
G01*
X16499941Y-13399998D03*
G01*
X16649928Y-13550011D03*
G01*
X16799915Y-13700023D03*
G01*
X16949902Y-13850035D03*
G01*
X17099889Y-14000048D03*
G01*
X17249876Y-14150060D03*
G01*
X17399863Y-14300073D03*
G01*
X15062200Y-13817600D03*
G01*
X15212187Y-13967612D03*
G01*
X15362174Y-14117624D03*
G01*
X15512161Y-14267637D03*
G01*
X15662148Y-14417649D03*
G01*
X15265400Y-13716000D03*
G01*
X15415387Y-13866012D03*
G01*
X15565374Y-14016024D03*
G01*
X15715361Y-14166037D03*
G01*
X15865348Y-14316049D03*
G01*
X12606578Y-12979400D03*
G01*
X12306579Y-13030200D03*
G01*
X12806578Y-12979400D03*
G01*
X13006578Y-12979400D03*
G01*
X13206603Y-12979400D03*
G01*
X13406602Y-12979400D03*
G01*
X13606576Y-12979400D03*
G01*
X13806576Y-12979400D03*
G01*
X14006576Y-12979400D03*
G01*
X14206601Y-12979400D03*
G01*
X14406575Y-12979400D03*
G01*
X14606574Y-12979400D03*
G01*
X14806574Y-12979400D03*
G01*
X15006574Y-12979400D03*
G01*
X15206599Y-12979400D03*
G01*
X15748000Y-14639594D03*
G01*
X15748000Y-14554200D03*
G01*
X13949984Y-14504568D03*
G01*
X11685600Y-14351000D03*
G01*
X11785600Y-14251000D03*
G01*
X11685600Y-14251000D03*
G01*
X11585600Y-14251000D03*
G01*
X11785600Y-14351000D03*
G01*
X11585600Y-14351000D03*
G01*
X11585600Y-14450999D03*
G01*
X11785600Y-14450999D03*
G01*
X11685600Y-14450999D03*
G01*
X9321800Y-14782800D03*
G01*
X8077200Y-14782800D03*
G01*
X12827000Y-14579600D03*
G01*
X17173600Y-12471400D03*
G01*
X17173600Y-12571399D03*
G01*
X17173600Y-12671399D03*
G01*
X17273600Y-12671399D03*
G01*
X17373600Y-12671399D03*
G01*
X17373600Y-12571399D03*
G01*
X17273600Y-12571399D03*
G01*
X17273600Y-12471400D03*
G01*
X17373600Y-12471400D03*
D14*
X8375015Y-14409978D02*
G01*
X9035011Y-14409978D01*
M02*
