G04 Layer: BottomSolderMaskLayer*
G04 EasyEDA v6.4.25, 2021-10-11T08:22:16+08:00*
G04 810a2c9a40b449618898816b7f75cef1,119f753a6ce64b8d841f2ad33262ab0c,10*
G04 Gerber Generator version 0.2*
G04 Scale: 100 percent, Rotated: No, Reflected: No *
G04 Dimensions in millimeters *
G04 leading zeros omitted , absolute positions ,4 integer and 5 decimal *
%FSLAX45Y45*%
%MOMM*%

%ADD16C,6.6032*%

%LPD*%
G36*
X8691778Y-12747193D02*
G01*
X8681110Y-12747345D01*
X8673338Y-12747701D01*
X8667953Y-12748310D01*
X8664397Y-12749276D01*
X8662314Y-12750749D01*
X8661146Y-12752730D01*
X8659926Y-12757708D01*
X8645753Y-12832435D01*
X8587943Y-12856565D01*
X8516772Y-12807797D01*
X8493506Y-12829540D01*
X8476386Y-12846456D01*
X8469172Y-12853974D01*
X8454237Y-12870535D01*
X8501888Y-12940334D01*
X8485784Y-12976910D01*
X8478012Y-12992811D01*
X8475878Y-12996265D01*
X8474456Y-12997129D01*
X8467445Y-12999567D01*
X8456066Y-13002514D01*
X8441639Y-13005663D01*
X8394801Y-13014452D01*
X8392769Y-13102590D01*
X8433460Y-13110108D01*
X8457692Y-13115188D01*
X8467547Y-13117880D01*
X8469376Y-13118998D01*
X8471408Y-13121030D01*
X8473643Y-13123926D01*
X8476030Y-13127583D01*
X8481161Y-13137235D01*
X8486648Y-13149681D01*
X8494979Y-13170763D01*
X8497519Y-13177672D01*
X8498484Y-13180872D01*
X8496706Y-13184327D01*
X8491880Y-13192201D01*
X8476030Y-13216331D01*
X8453577Y-13249503D01*
X8516010Y-13311987D01*
X8553704Y-13285063D01*
X8565388Y-13277088D01*
X8574786Y-13271042D01*
X8580780Y-13267639D01*
X8582101Y-13267182D01*
X8584387Y-13267740D01*
X8588044Y-13269315D01*
X8592566Y-13271601D01*
X8606536Y-13279628D01*
X8612073Y-13281050D01*
X8615883Y-13278459D01*
X8619845Y-13271652D01*
X8626246Y-13257377D01*
X8636812Y-13232130D01*
X8660739Y-13172897D01*
X8671560Y-13144449D01*
X8672169Y-13142010D01*
X8654237Y-13127990D01*
X8649004Y-13123519D01*
X8644178Y-13118846D01*
X8639860Y-13113969D01*
X8635949Y-13108889D01*
X8632545Y-13103555D01*
X8629599Y-13098068D01*
X8627059Y-13092328D01*
X8625027Y-13086435D01*
X8623401Y-13080288D01*
X8622284Y-13073938D01*
X8621572Y-13067385D01*
X8621369Y-13060578D01*
X8621572Y-13054330D01*
X8622080Y-13048234D01*
X8622944Y-13042341D01*
X8624163Y-13036600D01*
X8625687Y-13031114D01*
X8627567Y-13025780D01*
X8629700Y-13020649D01*
X8632190Y-13015772D01*
X8634933Y-13011150D01*
X8637981Y-13006730D01*
X8641283Y-13002564D01*
X8644890Y-12998653D01*
X8648700Y-12994995D01*
X8652814Y-12991592D01*
X8657132Y-12988544D01*
X8661704Y-12985699D01*
X8666530Y-12983210D01*
X8671509Y-12981025D01*
X8676741Y-12979146D01*
X8682177Y-12977571D01*
X8687816Y-12976352D01*
X8693607Y-12975437D01*
X8699601Y-12974929D01*
X8705748Y-12974726D01*
X8711895Y-12974929D01*
X8717838Y-12975437D01*
X8723680Y-12976352D01*
X8729268Y-12977571D01*
X8734704Y-12979146D01*
X8739936Y-12981025D01*
X8744966Y-12983210D01*
X8749741Y-12985699D01*
X8754313Y-12988544D01*
X8758682Y-12991592D01*
X8762746Y-12994995D01*
X8766606Y-12998653D01*
X8770162Y-13002564D01*
X8773515Y-13006730D01*
X8776563Y-13011150D01*
X8779306Y-13015772D01*
X8781745Y-13020649D01*
X8783929Y-13025780D01*
X8785758Y-13031114D01*
X8787282Y-13036600D01*
X8788501Y-13042341D01*
X8789365Y-13048234D01*
X8789924Y-13054330D01*
X8790076Y-13060578D01*
X8789924Y-13066674D01*
X8789365Y-13072567D01*
X8788450Y-13078256D01*
X8787180Y-13083794D01*
X8785504Y-13089178D01*
X8783421Y-13094462D01*
X8780932Y-13099592D01*
X8778036Y-13104621D01*
X8774684Y-13109498D01*
X8770924Y-13114375D01*
X8766708Y-13119150D01*
X8762085Y-13123875D01*
X8756954Y-13128548D01*
X8751366Y-13133222D01*
X8745321Y-13137845D01*
X8738768Y-13142518D01*
X8738768Y-13144296D01*
X8739936Y-13148310D01*
X8742070Y-13154050D01*
X8758326Y-13192404D01*
X8785910Y-13259562D01*
X8790889Y-13270026D01*
X8793073Y-13273684D01*
X8795054Y-13276427D01*
X8797036Y-13278307D01*
X8798966Y-13279424D01*
X8800998Y-13279831D01*
X8803132Y-13279678D01*
X8805468Y-13278916D01*
X8811006Y-13276173D01*
X8829446Y-13265810D01*
X8895689Y-13311682D01*
X8957716Y-13249706D01*
X8930894Y-13210133D01*
X8922867Y-13197941D01*
X8916822Y-13188340D01*
X8913469Y-13182447D01*
X8913012Y-13181228D01*
X8913926Y-13177926D01*
X8920226Y-13161111D01*
X8927592Y-13143128D01*
X8932926Y-13132054D01*
X8937802Y-13123926D01*
X8940038Y-13121030D01*
X8942070Y-13118998D01*
X8943898Y-13117880D01*
X8949385Y-13116255D01*
X8971280Y-13111429D01*
X9018676Y-13102590D01*
X9016644Y-13014452D01*
X8969806Y-13005663D01*
X8955379Y-13002514D01*
X8943949Y-12999567D01*
X8936837Y-12997129D01*
X8935364Y-12996265D01*
X8933180Y-12992811D01*
X8929624Y-12986004D01*
X8920581Y-12966395D01*
X8909202Y-12940080D01*
X8957259Y-12869672D01*
X8895130Y-12807543D01*
X8823502Y-12856565D01*
X8765743Y-12832384D01*
X8751366Y-12757708D01*
X8750198Y-12752730D01*
X8749080Y-12750749D01*
X8746998Y-12749276D01*
X8743543Y-12748310D01*
X8738158Y-12747701D01*
X8730386Y-12747345D01*
G37*
G36*
X8911285Y-13372033D02*
G01*
X8906408Y-13372185D01*
X8901734Y-13372998D01*
X8897213Y-13374471D01*
X8892946Y-13376656D01*
X8889034Y-13379450D01*
X8885529Y-13382802D01*
X8882532Y-13386765D01*
X8880043Y-13391235D01*
X8878214Y-13396264D01*
X8877413Y-13400024D01*
X8895486Y-13400024D01*
X8899194Y-13395198D01*
X8905290Y-13391642D01*
X8912453Y-13391083D01*
X8919159Y-13393267D01*
X8923934Y-13398093D01*
X8925661Y-13402106D01*
X8924747Y-13404291D01*
X8920276Y-13405154D01*
X8911336Y-13405357D01*
X8901226Y-13404850D01*
X8896045Y-13403173D01*
X8895486Y-13400024D01*
X8877413Y-13400024D01*
X8877046Y-13401751D01*
X8876639Y-13407694D01*
X8876639Y-13423544D01*
X8910878Y-13423646D01*
X8917635Y-13424103D01*
X8922512Y-13424865D01*
X8925560Y-13426033D01*
X8926880Y-13427710D01*
X8926576Y-13429945D01*
X8924747Y-13432790D01*
X8921546Y-13436346D01*
X8916720Y-13439546D01*
X8910777Y-13440663D01*
X8903512Y-13439698D01*
X8894724Y-13436650D01*
X8891981Y-13436142D01*
X8888679Y-13436549D01*
X8885224Y-13437717D01*
X8881973Y-13439597D01*
X8877960Y-13442746D01*
X8876639Y-13444982D01*
X8878011Y-13447217D01*
X8882075Y-13450569D01*
X8886037Y-13453313D01*
X8890101Y-13455599D01*
X8894368Y-13457275D01*
X8898737Y-13458494D01*
X8903360Y-13459206D01*
X8908186Y-13459409D01*
X8913266Y-13459104D01*
X8918651Y-13458291D01*
X8924848Y-13456462D01*
X8930284Y-13453516D01*
X8934907Y-13449401D01*
X8938717Y-13444219D01*
X8941765Y-13438022D01*
X8943949Y-13430757D01*
X8945270Y-13422477D01*
X8945727Y-13413282D01*
X8945321Y-13402868D01*
X8943848Y-13395451D01*
X8940596Y-13389457D01*
X8935110Y-13383260D01*
X8930640Y-13379348D01*
X8925966Y-13376300D01*
X8921089Y-13374116D01*
X8916212Y-13372693D01*
G37*
G36*
X8632342Y-13372287D02*
G01*
X8625890Y-13372998D01*
X8619744Y-13374928D01*
X8614105Y-13377976D01*
X8609177Y-13382244D01*
X8604554Y-13388136D01*
X8601862Y-13394537D01*
X8600592Y-13403427D01*
X8600391Y-13412012D01*
X8617966Y-13412012D01*
X8618169Y-13406983D01*
X8618982Y-13402360D01*
X8620556Y-13398347D01*
X8622842Y-13395198D01*
X8627465Y-13391845D01*
X8632240Y-13390524D01*
X8637016Y-13391134D01*
X8641435Y-13393419D01*
X8645347Y-13397230D01*
X8648446Y-13402360D01*
X8650478Y-13408660D01*
X8651189Y-13415975D01*
X8649766Y-13425678D01*
X8645906Y-13433856D01*
X8640368Y-13439597D01*
X8633866Y-13441730D01*
X8630666Y-13441019D01*
X8627719Y-13439038D01*
X8625078Y-13435939D01*
X8622741Y-13432028D01*
X8620810Y-13427456D01*
X8619337Y-13422477D01*
X8618372Y-13417245D01*
X8617966Y-13412012D01*
X8600391Y-13412012D01*
X8600338Y-13424204D01*
X8600541Y-13430250D01*
X8601049Y-13435025D01*
X8601964Y-13438835D01*
X8603335Y-13441934D01*
X8605316Y-13444728D01*
X8607958Y-13447471D01*
X8611463Y-13450519D01*
X8617051Y-13454532D01*
X8622842Y-13457428D01*
X8628735Y-13459206D01*
X8634679Y-13459815D01*
X8640622Y-13459358D01*
X8646414Y-13457732D01*
X8652002Y-13454989D01*
X8657336Y-13451128D01*
X8660485Y-13448284D01*
X8662924Y-13445642D01*
X8664702Y-13442899D01*
X8665972Y-13439698D01*
X8666784Y-13435736D01*
X8667292Y-13430757D01*
X8667546Y-13416280D01*
X8667292Y-13401801D01*
X8666784Y-13396823D01*
X8665972Y-13392861D01*
X8664702Y-13389660D01*
X8662924Y-13386866D01*
X8660485Y-13384225D01*
X8657336Y-13381431D01*
X8651595Y-13377316D01*
X8645398Y-13374471D01*
X8638895Y-13372795D01*
G37*
G36*
X9073540Y-13372388D02*
G01*
X9066987Y-13372896D01*
X9060586Y-13374522D01*
X9054490Y-13377265D01*
X9049004Y-13381126D01*
X9045549Y-13384682D01*
X9042704Y-13388898D01*
X9040418Y-13393674D01*
X9038691Y-13398906D01*
X9037472Y-13404443D01*
X9036812Y-13410184D01*
X9036684Y-13416432D01*
X9054846Y-13416432D01*
X9055252Y-13410387D01*
X9056471Y-13404697D01*
X9058300Y-13399871D01*
X9060535Y-13396518D01*
X9065717Y-13392404D01*
X9070644Y-13390422D01*
X9075216Y-13390422D01*
X9079280Y-13392302D01*
X9082684Y-13396010D01*
X9085275Y-13401446D01*
X9086951Y-13408406D01*
X9087561Y-13416889D01*
X9087205Y-13425576D01*
X9086037Y-13431519D01*
X9083751Y-13435482D01*
X9080042Y-13438225D01*
X9075369Y-13439952D01*
X9070797Y-13440105D01*
X9066530Y-13438936D01*
X9062720Y-13436447D01*
X9059468Y-13432840D01*
X9056979Y-13428218D01*
X9055404Y-13422731D01*
X9054846Y-13416432D01*
X9036684Y-13416432D01*
X9037066Y-13421969D01*
X9037929Y-13427760D01*
X9039301Y-13433348D01*
X9041130Y-13438581D01*
X9043416Y-13443457D01*
X9046159Y-13447725D01*
X9049359Y-13451433D01*
X9053017Y-13454329D01*
X9057030Y-13456412D01*
X9062466Y-13458240D01*
X9067596Y-13459307D01*
X9072372Y-13459663D01*
X9076994Y-13459358D01*
X9081465Y-13458240D01*
X9085783Y-13456412D01*
X9090152Y-13453821D01*
X9094571Y-13450519D01*
X9098026Y-13447420D01*
X9100718Y-13444677D01*
X9102699Y-13441883D01*
X9104071Y-13438733D01*
X9104985Y-13434872D01*
X9105442Y-13429996D01*
X9105747Y-13415772D01*
X9105442Y-13402259D01*
X9104172Y-13393318D01*
X9101480Y-13387069D01*
X9096806Y-13381583D01*
X9091879Y-13377621D01*
X9086189Y-13374725D01*
X9079992Y-13372998D01*
G37*
G36*
X8989720Y-13372490D02*
G01*
X8983929Y-13372642D01*
X8978138Y-13373557D01*
X8972600Y-13375233D01*
X8967825Y-13377570D01*
X8964066Y-13380618D01*
X8960358Y-13385698D01*
X8958072Y-13392200D01*
X8956954Y-13401548D01*
X8956659Y-13416889D01*
X8974836Y-13416889D01*
X8975191Y-13409777D01*
X8976106Y-13403376D01*
X8977477Y-13398246D01*
X8979204Y-13395198D01*
X8981338Y-13393470D01*
X8983980Y-13392099D01*
X8986774Y-13391184D01*
X8989364Y-13390829D01*
X8995867Y-13392353D01*
X9000388Y-13397128D01*
X9003030Y-13405205D01*
X9003893Y-13416889D01*
X9003588Y-13425474D01*
X9002420Y-13431418D01*
X9000185Y-13435380D01*
X8996629Y-13438073D01*
X8991904Y-13440054D01*
X8987637Y-13440562D01*
X8983929Y-13439749D01*
X8980779Y-13437616D01*
X8978239Y-13434263D01*
X8976360Y-13429640D01*
X8975242Y-13423798D01*
X8974836Y-13416889D01*
X8956659Y-13416889D01*
X8956954Y-13429843D01*
X8957411Y-13435025D01*
X8958173Y-13439190D01*
X8959342Y-13442594D01*
X8961018Y-13445591D01*
X8963152Y-13448436D01*
X8965946Y-13451382D01*
X8969451Y-13454481D01*
X8973108Y-13456767D01*
X8976868Y-13458291D01*
X8980932Y-13459053D01*
X8985351Y-13459053D01*
X8990126Y-13458342D01*
X8995359Y-13456818D01*
X9001201Y-13454583D01*
X9004604Y-13453973D01*
X9006535Y-13457072D01*
X9007348Y-13465708D01*
X9007551Y-13481710D01*
X9007348Y-13497712D01*
X9006535Y-13506348D01*
X9004604Y-13509498D01*
X9001201Y-13508888D01*
X8995359Y-13506653D01*
X8990126Y-13505129D01*
X8985351Y-13504367D01*
X8980932Y-13504367D01*
X8976868Y-13505129D01*
X8973108Y-13506704D01*
X8969451Y-13508990D01*
X8965946Y-13512088D01*
X8963050Y-13515136D01*
X8960815Y-13518083D01*
X8959189Y-13521283D01*
X8958021Y-13525195D01*
X8957310Y-13530224D01*
X8956852Y-13536777D01*
X8956649Y-13556081D01*
X8956802Y-13576147D01*
X8957106Y-13582294D01*
X8957767Y-13586460D01*
X8958884Y-13588949D01*
X8960510Y-13590269D01*
X8962745Y-13590727D01*
X8968689Y-13590727D01*
X8970924Y-13590269D01*
X8972550Y-13589101D01*
X8973667Y-13586815D01*
X8974328Y-13583157D01*
X8974683Y-13577671D01*
X8975090Y-13543838D01*
X8975445Y-13538250D01*
X8976055Y-13533983D01*
X8976969Y-13530834D01*
X8978188Y-13528497D01*
X8979763Y-13526820D01*
X8981846Y-13525500D01*
X8985859Y-13523722D01*
X8989568Y-13522960D01*
X8992920Y-13523163D01*
X8995968Y-13524280D01*
X8998661Y-13526414D01*
X9000998Y-13529462D01*
X9002979Y-13533475D01*
X9004604Y-13538403D01*
X9005874Y-13544245D01*
X9006789Y-13551052D01*
X9007348Y-13558774D01*
X9007754Y-13580567D01*
X9008821Y-13587577D01*
X9011513Y-13590320D01*
X9016644Y-13590828D01*
X9025737Y-13590828D01*
X9025737Y-13372642D01*
X9016644Y-13372642D01*
X9013088Y-13372998D01*
X9010243Y-13373912D01*
X9008262Y-13375284D01*
X9007551Y-13377011D01*
X9007348Y-13378891D01*
X9006636Y-13379551D01*
X9005316Y-13378891D01*
X9003182Y-13377011D01*
X8999728Y-13374674D01*
X8995105Y-13373150D01*
G37*
G36*
X8409330Y-13372541D02*
G01*
X8402574Y-13372896D01*
X8396122Y-13374217D01*
X8390229Y-13376503D01*
X8385251Y-13379653D01*
X8380730Y-13383666D01*
X8378901Y-13386511D01*
X8379510Y-13389203D01*
X8382406Y-13392607D01*
X8385708Y-13395401D01*
X8388908Y-13396569D01*
X8392718Y-13396061D01*
X8403082Y-13392251D01*
X8408060Y-13391591D01*
X8412632Y-13392048D01*
X8416747Y-13393623D01*
X8420252Y-13396213D01*
X8423148Y-13399769D01*
X8425281Y-13404240D01*
X8426602Y-13409625D01*
X8427110Y-13417804D01*
X8426196Y-13424865D01*
X8423960Y-13430757D01*
X8420608Y-13435279D01*
X8416188Y-13438327D01*
X8410905Y-13439800D01*
X8404860Y-13439495D01*
X8393836Y-13435685D01*
X8390280Y-13435279D01*
X8387080Y-13436041D01*
X8384031Y-13438022D01*
X8379663Y-13442645D01*
X8379206Y-13446658D01*
X8382965Y-13450620D01*
X8391144Y-13455142D01*
X8395716Y-13457072D01*
X8400237Y-13458342D01*
X8404656Y-13459053D01*
X8408924Y-13459256D01*
X8413089Y-13458951D01*
X8417052Y-13458139D01*
X8420862Y-13456869D01*
X8424519Y-13455192D01*
X8427974Y-13453110D01*
X8431174Y-13450671D01*
X8434171Y-13447928D01*
X8436914Y-13444880D01*
X8439353Y-13441578D01*
X8441537Y-13438022D01*
X8443417Y-13434263D01*
X8444941Y-13430300D01*
X8446160Y-13426236D01*
X8447024Y-13422020D01*
X8447532Y-13417702D01*
X8447633Y-13413384D01*
X8447328Y-13409015D01*
X8446617Y-13404646D01*
X8445449Y-13400328D01*
X8443874Y-13396061D01*
X8441791Y-13391896D01*
X8439200Y-13387832D01*
X8436152Y-13383971D01*
X8432546Y-13380262D01*
X8427923Y-13376960D01*
X8422284Y-13374573D01*
X8415985Y-13373100D01*
G37*
G36*
X8525357Y-13372642D02*
G01*
X8522462Y-13372744D01*
X8520328Y-13373303D01*
X8518753Y-13374928D01*
X8517737Y-13378078D01*
X8517128Y-13383310D01*
X8516772Y-13391083D01*
X8516620Y-13459917D01*
X8525713Y-13459917D01*
X8529269Y-13459612D01*
X8532164Y-13458799D01*
X8534095Y-13457631D01*
X8535263Y-13454684D01*
X8536533Y-13454176D01*
X8538718Y-13454684D01*
X8546338Y-13458139D01*
X8550960Y-13459307D01*
X8555583Y-13459764D01*
X8560206Y-13459460D01*
X8564727Y-13458393D01*
X8569045Y-13456666D01*
X8573109Y-13454176D01*
X8576818Y-13450976D01*
X8579561Y-13448080D01*
X8581694Y-13445185D01*
X8583269Y-13441984D01*
X8584336Y-13438073D01*
X8585098Y-13433044D01*
X8585504Y-13426490D01*
X8585758Y-13407339D01*
X8585606Y-13387324D01*
X8585250Y-13381177D01*
X8584590Y-13377011D01*
X8583523Y-13374471D01*
X8581898Y-13373201D01*
X8579612Y-13372693D01*
X8576665Y-13372642D01*
X8571433Y-13373150D01*
X8568740Y-13376452D01*
X8567724Y-13384987D01*
X8567267Y-13415263D01*
X8566302Y-13425169D01*
X8564524Y-13431824D01*
X8561832Y-13435990D01*
X8557310Y-13440003D01*
X8553500Y-13441375D01*
X8549335Y-13440257D01*
X8543747Y-13436600D01*
X8540191Y-13432790D01*
X8537854Y-13426744D01*
X8536330Y-13416940D01*
X8534450Y-13385546D01*
X8533028Y-13376757D01*
X8530285Y-13373252D01*
G37*
G36*
X8853017Y-13372642D02*
G01*
X8849461Y-13372998D01*
X8846566Y-13373912D01*
X8844635Y-13375284D01*
X8843924Y-13377011D01*
X8843721Y-13378891D01*
X8843010Y-13379551D01*
X8841689Y-13378891D01*
X8839555Y-13377011D01*
X8836507Y-13374878D01*
X8832443Y-13373506D01*
X8827719Y-13372846D01*
X8822588Y-13372896D01*
X8817305Y-13373607D01*
X8812174Y-13374979D01*
X8807450Y-13376960D01*
X8803386Y-13379602D01*
X8800795Y-13381888D01*
X8798712Y-13384377D01*
X8797137Y-13387374D01*
X8795969Y-13391286D01*
X8795105Y-13396468D01*
X8793988Y-13412216D01*
X8792311Y-13460476D01*
X8806078Y-13458799D01*
X8808669Y-13458088D01*
X8810548Y-13456716D01*
X8811920Y-13454380D01*
X8812885Y-13450620D01*
X8813596Y-13445134D01*
X8815984Y-13412571D01*
X8817610Y-13402513D01*
X8819845Y-13396417D01*
X8822994Y-13393013D01*
X8826296Y-13391388D01*
X8829344Y-13390880D01*
X8832443Y-13391388D01*
X8835745Y-13393013D01*
X8837472Y-13394436D01*
X8838946Y-13396366D01*
X8840114Y-13399007D01*
X8841028Y-13402513D01*
X8841790Y-13407034D01*
X8842806Y-13419836D01*
X8843924Y-13446353D01*
X8844483Y-13451890D01*
X8845245Y-13455700D01*
X8846413Y-13458037D01*
X8848039Y-13459307D01*
X8850274Y-13459815D01*
X8862110Y-13459917D01*
X8862110Y-13372642D01*
G37*
G36*
X8708491Y-13372693D02*
G01*
X8702040Y-13373150D01*
X8695690Y-13374319D01*
X8689594Y-13376198D01*
X8683447Y-13379094D01*
X8680805Y-13382345D01*
X8681516Y-13386612D01*
X8685326Y-13392708D01*
X8688120Y-13396061D01*
X8690508Y-13397433D01*
X8692946Y-13397077D01*
X8695994Y-13394994D01*
X8703360Y-13392048D01*
X8713063Y-13391591D01*
X8721953Y-13393318D01*
X8726627Y-13397026D01*
X8726424Y-13398957D01*
X8724696Y-13400786D01*
X8721750Y-13402411D01*
X8717788Y-13403580D01*
X8701481Y-13407339D01*
X8695639Y-13409015D01*
X8691118Y-13410793D01*
X8687562Y-13412673D01*
X8684818Y-13414806D01*
X8682583Y-13417296D01*
X8680704Y-13420293D01*
X8678722Y-13424458D01*
X8677554Y-13428573D01*
X8677148Y-13432536D01*
X8677452Y-13436396D01*
X8678418Y-13440003D01*
X8679992Y-13443407D01*
X8682075Y-13446607D01*
X8684717Y-13449503D01*
X8687816Y-13452094D01*
X8691270Y-13454329D01*
X8695131Y-13456259D01*
X8699296Y-13457783D01*
X8703665Y-13458901D01*
X8708288Y-13459561D01*
X8713063Y-13459764D01*
X8717940Y-13459460D01*
X8722868Y-13458596D01*
X8727846Y-13457224D01*
X8732723Y-13455243D01*
X8737549Y-13452652D01*
X8745220Y-13447420D01*
X8748674Y-13443102D01*
X8748217Y-13439038D01*
X8744051Y-13434568D01*
X8741105Y-13432688D01*
X8738158Y-13432231D01*
X8734806Y-13433348D01*
X8730538Y-13435939D01*
X8722410Y-13439901D01*
X8713520Y-13441527D01*
X8705342Y-13440714D01*
X8699296Y-13437463D01*
X8696960Y-13432434D01*
X8699500Y-13427963D01*
X8706104Y-13424763D01*
X8715959Y-13423544D01*
X8722309Y-13422985D01*
X8728049Y-13421410D01*
X8733078Y-13418921D01*
X8737346Y-13415721D01*
X8740800Y-13411911D01*
X8743340Y-13407593D01*
X8744966Y-13403021D01*
X8745524Y-13398246D01*
X8744966Y-13393419D01*
X8743289Y-13388695D01*
X8740343Y-13384276D01*
X8736177Y-13380161D01*
X8731808Y-13377418D01*
X8726678Y-13375284D01*
X8720988Y-13373760D01*
X8714841Y-13372896D01*
G37*
G36*
X8337397Y-13372744D02*
G01*
X8330285Y-13373303D01*
X8323986Y-13374979D01*
X8318601Y-13377773D01*
X8314080Y-13381634D01*
X8310473Y-13386562D01*
X8307882Y-13392454D01*
X8306207Y-13400024D01*
X8324545Y-13400024D01*
X8328304Y-13395198D01*
X8334400Y-13391642D01*
X8341563Y-13391083D01*
X8348268Y-13393267D01*
X8352993Y-13398093D01*
X8354720Y-13402106D01*
X8353806Y-13404291D01*
X8349386Y-13405154D01*
X8340394Y-13405357D01*
X8330336Y-13404850D01*
X8325103Y-13403173D01*
X8324545Y-13400024D01*
X8306207Y-13400024D01*
X8305749Y-13407034D01*
X8305749Y-13423544D01*
X8357514Y-13423544D01*
X8352129Y-13431723D01*
X8346694Y-13437768D01*
X8340394Y-13440816D01*
X8333333Y-13440867D01*
X8325358Y-13437920D01*
X8320938Y-13435838D01*
X8317484Y-13435177D01*
X8314436Y-13435888D01*
X8311337Y-13437971D01*
X8307019Y-13442492D01*
X8306308Y-13446353D01*
X8309406Y-13450112D01*
X8316468Y-13454380D01*
X8321192Y-13456513D01*
X8325866Y-13458139D01*
X8330488Y-13459155D01*
X8334959Y-13459663D01*
X8339277Y-13459663D01*
X8343442Y-13459155D01*
X8347456Y-13458190D01*
X8351266Y-13456818D01*
X8354872Y-13454989D01*
X8358225Y-13452754D01*
X8361324Y-13450163D01*
X8364169Y-13447217D01*
X8366709Y-13443915D01*
X8368944Y-13440359D01*
X8370874Y-13436498D01*
X8372398Y-13432383D01*
X8373567Y-13428014D01*
X8374380Y-13423442D01*
X8374735Y-13418718D01*
X8374684Y-13413790D01*
X8374176Y-13408710D01*
X8373160Y-13403529D01*
X8371687Y-13398246D01*
X8369706Y-13392912D01*
X8367217Y-13387832D01*
X8364118Y-13383107D01*
X8360918Y-13379246D01*
X8357870Y-13376757D01*
X8354212Y-13375233D01*
X8349081Y-13373963D01*
X8343290Y-13373100D01*
G37*
G36*
X8474964Y-13373049D02*
G01*
X8464245Y-13373303D01*
X8455101Y-13374014D01*
X8448548Y-13375182D01*
X8445500Y-13376656D01*
X8445398Y-13381888D01*
X8449564Y-13387222D01*
X8456168Y-13391083D01*
X8463330Y-13391845D01*
X8467648Y-13391438D01*
X8471255Y-13392200D01*
X8474151Y-13394232D01*
X8476488Y-13397738D01*
X8478266Y-13402818D01*
X8479536Y-13409676D01*
X8480450Y-13418413D01*
X8481822Y-13445744D01*
X8482380Y-13450925D01*
X8483244Y-13454481D01*
X8484514Y-13456767D01*
X8486343Y-13458088D01*
X8488832Y-13458799D01*
X8502091Y-13460374D01*
X8502091Y-13373201D01*
G37*
G36*
X8734806Y-13470839D02*
G01*
X8734806Y-13546429D01*
X8753195Y-13546429D01*
X8753602Y-13540638D01*
X8754719Y-13535304D01*
X8756396Y-13530783D01*
X8758732Y-13527430D01*
X8761120Y-13525246D01*
X8763457Y-13523468D01*
X8765489Y-13522350D01*
X8766911Y-13521994D01*
X8771483Y-13523163D01*
X8775496Y-13525500D01*
X8778798Y-13528801D01*
X8781440Y-13533069D01*
X8783269Y-13538047D01*
X8784285Y-13543788D01*
X8784386Y-13550036D01*
X8783574Y-13556742D01*
X8781999Y-13562025D01*
X8779510Y-13566292D01*
X8776309Y-13569543D01*
X8772652Y-13571677D01*
X8768791Y-13572591D01*
X8764879Y-13572134D01*
X8761171Y-13570356D01*
X8757920Y-13567003D01*
X8755735Y-13562990D01*
X8754211Y-13557961D01*
X8753398Y-13552322D01*
X8753195Y-13546429D01*
X8734806Y-13546429D01*
X8734806Y-13590828D01*
X8743899Y-13590828D01*
X8747455Y-13590574D01*
X8750350Y-13589863D01*
X8752281Y-13588796D01*
X8752992Y-13587476D01*
X8753856Y-13586510D01*
X8756142Y-13586358D01*
X8759596Y-13586917D01*
X8769045Y-13589711D01*
X8774328Y-13590269D01*
X8779510Y-13589914D01*
X8784437Y-13588746D01*
X8789009Y-13586713D01*
X8793073Y-13583919D01*
X8796528Y-13580414D01*
X8799220Y-13576198D01*
X8801303Y-13570661D01*
X8802674Y-13563701D01*
X8803487Y-13555726D01*
X8803690Y-13547293D01*
X8803284Y-13538809D01*
X8802268Y-13530834D01*
X8800642Y-13523722D01*
X8798458Y-13518083D01*
X8795512Y-13513816D01*
X8791651Y-13510260D01*
X8787028Y-13507466D01*
X8781846Y-13505434D01*
X8776411Y-13504367D01*
X8770924Y-13504163D01*
X8765590Y-13505027D01*
X8756345Y-13508837D01*
X8754059Y-13507669D01*
X8753144Y-13502182D01*
X8752789Y-13479780D01*
X8751671Y-13473734D01*
X8748979Y-13471296D01*
X8743899Y-13470839D01*
G37*
G36*
X8851392Y-13503554D02*
G01*
X8848496Y-13503808D01*
X8845804Y-13504519D01*
X8843670Y-13505586D01*
X8842298Y-13506856D01*
X8840673Y-13507923D01*
X8837828Y-13508126D01*
X8834069Y-13507516D01*
X8824061Y-13504468D01*
X8819134Y-13504011D01*
X8814358Y-13504722D01*
X8809177Y-13506602D01*
X8803741Y-13509294D01*
X8801557Y-13511479D01*
X8802420Y-13514171D01*
X8806027Y-13518438D01*
X8809329Y-13521385D01*
X8812834Y-13523315D01*
X8816390Y-13524230D01*
X8823096Y-13523518D01*
X8826804Y-13523722D01*
X8830462Y-13524433D01*
X8833612Y-13525652D01*
X8837015Y-13528649D01*
X8839047Y-13534186D01*
X8840012Y-13544042D01*
X8840419Y-13577671D01*
X8840774Y-13583157D01*
X8841435Y-13586815D01*
X8842552Y-13589101D01*
X8844178Y-13590269D01*
X8846413Y-13590727D01*
X8858453Y-13590828D01*
X8858453Y-13533577D01*
X8858300Y-13523163D01*
X8857945Y-13515441D01*
X8857386Y-13510056D01*
X8856522Y-13506602D01*
X8855303Y-13504621D01*
X8853576Y-13503757D01*
G37*
G36*
X8510371Y-13503605D02*
G01*
X8504580Y-13504722D01*
X8502091Y-13507110D01*
X8501481Y-13508329D01*
X8499703Y-13508634D01*
X8496960Y-13508075D01*
X8493252Y-13506653D01*
X8484514Y-13504519D01*
X8475573Y-13505027D01*
X8468563Y-13507770D01*
X8465718Y-13512241D01*
X8467394Y-13517524D01*
X8471509Y-13521791D01*
X8476894Y-13524230D01*
X8482330Y-13523976D01*
X8485124Y-13523417D01*
X8488426Y-13523518D01*
X8491931Y-13524230D01*
X8495080Y-13525500D01*
X8497112Y-13526820D01*
X8498738Y-13528497D01*
X8499957Y-13530834D01*
X8500872Y-13533983D01*
X8501481Y-13538250D01*
X8502040Y-13551052D01*
X8502091Y-13590828D01*
X8523935Y-13590828D01*
X8523884Y-13541298D01*
X8523478Y-13526211D01*
X8522868Y-13514374D01*
X8521954Y-13507313D01*
X8521496Y-13505992D01*
X8516874Y-13504011D01*
G37*
G36*
X8616950Y-13503656D02*
G01*
X8610447Y-13503706D01*
X8607552Y-13505840D01*
X8611463Y-13519556D01*
X8620810Y-13549477D01*
X8628075Y-13571372D01*
X8630869Y-13578636D01*
X8633206Y-13583869D01*
X8635390Y-13587374D01*
X8637524Y-13589507D01*
X8639759Y-13590524D01*
X8642299Y-13590828D01*
X8646769Y-13589914D01*
X8650376Y-13586256D01*
X8653932Y-13578484D01*
X8661298Y-13555472D01*
X8666175Y-13541908D01*
X8667292Y-13539927D01*
X8668461Y-13541908D01*
X8673287Y-13555472D01*
X8680704Y-13578484D01*
X8684209Y-13586206D01*
X8687816Y-13589914D01*
X8692337Y-13590828D01*
X8694826Y-13590524D01*
X8697061Y-13589507D01*
X8699246Y-13587374D01*
X8701430Y-13583869D01*
X8703818Y-13578636D01*
X8706612Y-13571423D01*
X8714028Y-13549731D01*
X8723579Y-13519912D01*
X8726474Y-13510209D01*
X8727541Y-13505891D01*
X8726779Y-13504875D01*
X8724595Y-13504214D01*
X8721445Y-13504011D01*
X8717534Y-13504214D01*
X8711946Y-13505586D01*
X8708034Y-13509345D01*
X8704681Y-13517473D01*
X8697823Y-13541908D01*
X8695182Y-13549884D01*
X8693099Y-13554913D01*
X8691778Y-13556234D01*
X8690406Y-13553541D01*
X8688120Y-13547648D01*
X8678164Y-13518083D01*
X8674709Y-13510564D01*
X8671356Y-13506551D01*
X8667699Y-13505383D01*
X8663990Y-13506653D01*
X8660384Y-13511123D01*
X8656472Y-13519505D01*
X8651748Y-13532612D01*
X8642604Y-13559891D01*
X8627465Y-13508075D01*
X8623706Y-13505230D01*
G37*
G36*
X8429244Y-13503859D02*
G01*
X8423757Y-13504621D01*
X8418423Y-13506246D01*
X8413343Y-13508786D01*
X8408670Y-13512139D01*
X8404402Y-13516254D01*
X8400745Y-13521029D01*
X8397748Y-13526465D01*
X8395512Y-13532459D01*
X8394970Y-13535050D01*
X8414867Y-13535050D01*
X8417153Y-13529716D01*
X8422589Y-13524331D01*
X8429244Y-13522553D01*
X8436000Y-13524331D01*
X8441842Y-13529716D01*
X8444992Y-13534542D01*
X8445093Y-13537184D01*
X8441283Y-13538454D01*
X8432749Y-13539216D01*
X8422182Y-13539520D01*
X8416391Y-13538200D01*
X8414867Y-13535050D01*
X8394970Y-13535050D01*
X8394141Y-13539012D01*
X8392058Y-13554456D01*
X8427008Y-13554608D01*
X8434374Y-13555065D01*
X8439861Y-13555929D01*
X8443569Y-13557199D01*
X8445550Y-13558875D01*
X8445855Y-13561009D01*
X8444636Y-13563701D01*
X8441893Y-13566901D01*
X8436356Y-13570661D01*
X8429752Y-13572388D01*
X8422589Y-13571931D01*
X8412276Y-13568222D01*
X8409025Y-13568172D01*
X8405622Y-13569238D01*
X8402066Y-13571372D01*
X8398052Y-13574572D01*
X8396884Y-13576960D01*
X8398611Y-13579652D01*
X8403386Y-13583767D01*
X8407958Y-13586663D01*
X8413546Y-13588746D01*
X8419846Y-13590117D01*
X8426551Y-13590727D01*
X8433257Y-13590524D01*
X8439658Y-13589558D01*
X8445449Y-13587780D01*
X8450275Y-13585240D01*
X8453831Y-13581888D01*
X8457031Y-13577163D01*
X8459774Y-13571474D01*
X8461959Y-13564971D01*
X8463584Y-13557961D01*
X8464499Y-13550747D01*
X8464651Y-13543584D01*
X8463940Y-13536777D01*
X8461502Y-13526871D01*
X8457895Y-13519099D01*
X8452713Y-13512952D01*
X8445754Y-13507923D01*
X8440369Y-13505484D01*
X8434832Y-13504163D01*
G37*
G36*
X8576818Y-13504214D02*
G01*
X8568944Y-13504519D01*
X8561324Y-13505891D01*
X8554313Y-13508228D01*
X8548268Y-13511428D01*
X8543645Y-13515441D01*
X8540699Y-13520064D01*
X8540242Y-13521893D01*
X8539480Y-13528852D01*
X8538870Y-13539063D01*
X8538464Y-13558367D01*
X8557107Y-13558367D01*
X8558479Y-13555878D01*
X8561933Y-13554760D01*
X8568232Y-13554506D01*
X8578240Y-13555421D01*
X8585047Y-13557910D01*
X8588400Y-13561822D01*
X8588095Y-13567054D01*
X8586317Y-13569797D01*
X8583269Y-13571474D01*
X8578646Y-13572185D01*
X8572144Y-13571931D01*
X8565286Y-13571016D01*
X8560968Y-13569442D01*
X8558479Y-13566749D01*
X8557310Y-13562634D01*
X8557107Y-13558367D01*
X8538464Y-13558367D01*
X8538464Y-13589965D01*
X8564778Y-13590168D01*
X8578545Y-13590016D01*
X8587740Y-13588949D01*
X8594140Y-13586663D01*
X8599322Y-13582700D01*
X8602726Y-13578840D01*
X8605164Y-13574471D01*
X8606688Y-13569797D01*
X8607298Y-13564971D01*
X8606942Y-13560145D01*
X8605672Y-13555472D01*
X8603437Y-13551103D01*
X8600287Y-13547191D01*
X8595918Y-13543788D01*
X8590534Y-13541552D01*
X8583676Y-13540282D01*
X8565337Y-13539673D01*
X8559850Y-13538657D01*
X8557260Y-13536472D01*
X8556650Y-13532713D01*
X8559342Y-13526769D01*
X8566099Y-13523112D01*
X8574684Y-13522350D01*
X8583015Y-13525093D01*
X8586825Y-13527024D01*
X8590026Y-13527430D01*
X8593175Y-13526211D01*
X8596884Y-13523315D01*
X8600948Y-13518489D01*
X8601506Y-13514324D01*
X8598458Y-13510666D01*
X8591702Y-13507161D01*
X8584539Y-13505078D01*
G37*
G36*
X8917635Y-13504418D02*
G01*
X8911336Y-13504621D01*
X8904732Y-13505383D01*
X8898280Y-13506653D01*
X8892336Y-13508380D01*
X8887358Y-13510412D01*
X8883751Y-13512749D01*
X8881719Y-13514933D01*
X8880043Y-13517372D01*
X8878824Y-13520419D01*
X8877909Y-13524331D01*
X8877300Y-13529462D01*
X8876893Y-13536015D01*
X8876639Y-13557808D01*
X8894826Y-13557808D01*
X8898382Y-13555421D01*
X8906662Y-13554608D01*
X8916212Y-13555370D01*
X8923528Y-13557757D01*
X8927338Y-13562482D01*
X8926017Y-13567359D01*
X8920480Y-13571118D01*
X8911691Y-13572642D01*
X8904173Y-13571778D01*
X8898890Y-13569035D01*
X8895842Y-13564412D01*
X8894826Y-13557808D01*
X8876639Y-13557808D01*
X8876639Y-13590168D01*
X8902852Y-13590422D01*
X8916568Y-13590219D01*
X8925763Y-13589152D01*
X8932164Y-13586815D01*
X8937396Y-13582802D01*
X8941562Y-13578128D01*
X8944406Y-13573302D01*
X8945930Y-13568375D01*
X8946235Y-13563549D01*
X8945372Y-13558875D01*
X8943441Y-13554506D01*
X8940444Y-13550493D01*
X8936431Y-13546937D01*
X8931554Y-13544042D01*
X8925814Y-13541806D01*
X8919311Y-13540384D01*
X8912047Y-13539927D01*
X8903208Y-13539673D01*
X8897975Y-13538758D01*
X8895588Y-13536930D01*
X8895486Y-13533932D01*
X8898432Y-13527430D01*
X8903919Y-13523468D01*
X8911336Y-13522299D01*
X8919972Y-13524128D01*
X8925712Y-13525957D01*
X8929827Y-13526262D01*
X8933180Y-13524941D01*
X8936532Y-13521842D01*
X8939428Y-13517270D01*
X8939072Y-13513307D01*
X8935161Y-13509650D01*
X8927541Y-13505942D01*
X8923172Y-13504824D01*
G37*
G36*
X9766960Y-12723520D02*
G01*
X9753600Y-12723723D01*
X9739934Y-12724384D01*
X9726218Y-12725400D01*
X9712502Y-12726822D01*
X9698888Y-12728600D01*
X9685528Y-12730784D01*
X9672574Y-12733324D01*
X9660128Y-12736169D01*
X9648291Y-12739370D01*
X9636506Y-12743027D01*
X9624872Y-12746990D01*
X9613392Y-12751358D01*
X9602063Y-12756032D01*
X9590938Y-12761061D01*
X9579965Y-12766395D01*
X9569196Y-12772085D01*
X9558629Y-12778079D01*
X9548266Y-12784328D01*
X9538055Y-12790932D01*
X9528098Y-12797790D01*
X9518345Y-12805003D01*
X9508845Y-12812420D01*
X9499549Y-12820142D01*
X9490506Y-12828168D01*
X9481718Y-12836398D01*
X9473133Y-12844932D01*
X9464852Y-12853670D01*
X9456826Y-12862661D01*
X9449054Y-12871907D01*
X9441586Y-12881356D01*
X9434423Y-12891058D01*
X9427514Y-12900964D01*
X9420910Y-12911124D01*
X9414611Y-12921437D01*
X9408617Y-12931952D01*
X9402927Y-12942671D01*
X9397593Y-12953542D01*
X9392564Y-12964668D01*
X9387890Y-12975894D01*
X9383572Y-12987324D01*
X9379610Y-12998907D01*
X9375851Y-13011099D01*
X9372498Y-13023494D01*
X9369602Y-13035991D01*
X9367113Y-13048640D01*
X9365030Y-13061391D01*
X9363354Y-13074243D01*
X9362135Y-13087146D01*
X9361271Y-13100100D01*
X9360865Y-13113105D01*
X9360865Y-13126110D01*
X9361271Y-13139115D01*
X9362033Y-13152119D01*
X9363252Y-13165074D01*
X9364878Y-13177977D01*
X9366961Y-13190829D01*
X9369399Y-13203580D01*
X9372244Y-13216229D01*
X9375495Y-13228726D01*
X9379153Y-13241070D01*
X9383217Y-13253262D01*
X9387636Y-13265302D01*
X9392513Y-13277088D01*
X9397644Y-13288416D01*
X9403130Y-13299592D01*
X9409023Y-13310565D01*
X9415272Y-13321436D01*
X9421926Y-13332104D01*
X9428886Y-13342569D01*
X9436150Y-13352830D01*
X9443770Y-13362889D01*
X9451695Y-13372744D01*
X9459925Y-13382345D01*
X9468459Y-13391642D01*
X9477248Y-13400735D01*
X9486290Y-13409523D01*
X9495586Y-13418007D01*
X9505137Y-13426186D01*
X9514890Y-13434060D01*
X9524898Y-13441629D01*
X9535058Y-13448842D01*
X9545421Y-13455700D01*
X9555988Y-13462152D01*
X9566706Y-13468248D01*
X9577578Y-13473988D01*
X9594545Y-13482218D01*
X9609124Y-13488669D01*
X9621621Y-13493445D01*
X9627057Y-13495172D01*
X9632086Y-13496493D01*
X9636607Y-13497407D01*
X9640671Y-13497915D01*
X9644380Y-13498017D01*
X9647631Y-13497712D01*
X9650476Y-13497051D01*
X9653016Y-13495985D01*
X9655200Y-13494512D01*
X9657029Y-13492632D01*
X9657791Y-13491311D01*
X9658502Y-13489279D01*
X9659162Y-13486434D01*
X9660178Y-13478205D01*
X9660940Y-13466114D01*
X9661448Y-13449503D01*
X9662160Y-13384580D01*
X9662718Y-13368121D01*
X9663531Y-13354354D01*
X9664750Y-13342924D01*
X9666376Y-13333425D01*
X9668510Y-13325601D01*
X9669780Y-13322147D01*
X9672777Y-13316051D01*
X9676434Y-13310616D01*
X9680803Y-13305536D01*
X9684766Y-13300201D01*
X9685020Y-13296544D01*
X9681413Y-13294461D01*
X9669272Y-13293496D01*
X9663582Y-13292683D01*
X9656978Y-13291413D01*
X9641992Y-13287756D01*
X9625838Y-13282930D01*
X9610090Y-13277392D01*
X9602825Y-13274548D01*
X9596272Y-13271652D01*
X9590582Y-13268858D01*
X9584436Y-13265302D01*
X9578238Y-13261340D01*
X9572142Y-13257022D01*
X9566148Y-13252297D01*
X9560407Y-13247369D01*
X9554819Y-13242188D01*
X9549587Y-13236803D01*
X9544659Y-13231317D01*
X9540138Y-13225780D01*
X9536074Y-13220242D01*
X9532518Y-13214705D01*
X9529572Y-13209320D01*
X9523526Y-13196773D01*
X9518751Y-13185546D01*
X9515094Y-13174878D01*
X9512452Y-13164159D01*
X9511436Y-13158571D01*
X9509963Y-13146379D01*
X9509150Y-13132409D01*
X9508845Y-13115950D01*
X9508896Y-13096798D01*
X9509302Y-13079984D01*
X9510318Y-13066064D01*
X9511080Y-13060019D01*
X9512096Y-13054380D01*
X9513366Y-13049046D01*
X9514941Y-13044017D01*
X9516770Y-13039140D01*
X9518954Y-13034314D01*
X9521444Y-13029488D01*
X9524339Y-13024510D01*
X9531400Y-13013791D01*
X9541205Y-12999567D01*
X9544151Y-12993573D01*
X9544761Y-12988696D01*
X9542373Y-12980111D01*
X9541560Y-12975082D01*
X9540951Y-12969036D01*
X9540544Y-12962178D01*
X9540392Y-12954711D01*
X9540748Y-12939014D01*
X9541967Y-12923723D01*
X9542830Y-12916865D01*
X9543948Y-12910769D01*
X9545218Y-12905689D01*
X9549942Y-12890347D01*
X9568484Y-12890398D01*
X9573666Y-12890601D01*
X9578695Y-12891058D01*
X9583623Y-12891871D01*
X9588754Y-12893141D01*
X9594138Y-12894868D01*
X9599980Y-12897053D01*
X9613646Y-12903149D01*
X9624771Y-12908584D01*
X9635286Y-12914071D01*
X9644024Y-12918948D01*
X9655657Y-12926314D01*
X9661448Y-12927634D01*
X9670034Y-12926720D01*
X9689084Y-12922707D01*
X9699752Y-12921030D01*
X9712045Y-12919710D01*
X9725609Y-12918744D01*
X9739985Y-12918084D01*
X9754920Y-12917728D01*
X9769906Y-12917728D01*
X9784689Y-12918033D01*
X9798812Y-12918694D01*
X9811918Y-12919710D01*
X9823653Y-12921030D01*
X9833610Y-12922656D01*
X9860534Y-12929311D01*
X9891014Y-12911785D01*
X9905238Y-12904571D01*
X9919055Y-12898526D01*
X9925710Y-12895986D01*
X9938258Y-12892024D01*
X9944100Y-12890550D01*
X9949535Y-12889534D01*
X9954564Y-12888874D01*
X9959136Y-12888671D01*
X9966604Y-12888976D01*
X9971024Y-12890703D01*
X9973919Y-12894970D01*
X9976561Y-12902844D01*
X9979507Y-12914426D01*
X9980676Y-12920370D01*
X9982250Y-12932460D01*
X9982962Y-12944500D01*
X9982708Y-12956438D01*
X9981488Y-12967919D01*
X9978390Y-12985445D01*
X9978085Y-12989610D01*
X9978390Y-12993116D01*
X9979355Y-12996367D01*
X9981082Y-12999720D01*
X9990683Y-13013639D01*
X9994087Y-13018973D01*
X10000183Y-13029946D01*
X10002875Y-13035534D01*
X10005314Y-13041274D01*
X10007498Y-13047116D01*
X10011156Y-13059105D01*
X10012680Y-13065302D01*
X10014915Y-13078002D01*
X10016236Y-13091210D01*
X10016540Y-13097967D01*
X10016439Y-13111988D01*
X10016083Y-13119150D01*
X10014610Y-13133984D01*
X10012476Y-13147903D01*
X10009886Y-13161111D01*
X10006787Y-13173557D01*
X10003078Y-13185292D01*
X9998862Y-13196366D01*
X9994036Y-13206780D01*
X9988600Y-13216534D01*
X9982555Y-13225627D01*
X9975900Y-13234162D01*
X9968585Y-13242086D01*
X9960610Y-13249452D01*
X9951923Y-13256260D01*
X9942576Y-13262559D01*
X9932517Y-13268350D01*
X9921697Y-13273633D01*
X9910114Y-13278459D01*
X9897770Y-13282828D01*
X9884664Y-13286790D01*
X9874199Y-13289483D01*
X9864293Y-13291718D01*
X9856063Y-13293242D01*
X9843871Y-13294258D01*
X9841382Y-13294817D01*
X9840061Y-13295477D01*
X9840112Y-13297662D01*
X9841636Y-13302335D01*
X9844379Y-13308838D01*
X9851745Y-13324382D01*
X9854793Y-13331850D01*
X9856876Y-13338048D01*
X9857638Y-13342061D01*
X9858603Y-13345464D01*
X9861346Y-13348665D01*
X9865614Y-13351560D01*
X9871303Y-13354151D01*
X9878161Y-13356285D01*
X9885984Y-13357961D01*
X9894620Y-13359079D01*
X9903815Y-13359485D01*
X9909454Y-13359434D01*
X9914890Y-13359130D01*
X9920020Y-13358520D01*
X9924897Y-13357656D01*
X9929622Y-13356437D01*
X9934092Y-13354964D01*
X9938461Y-13353135D01*
X9942728Y-13350951D01*
X9946843Y-13348411D01*
X9950907Y-13345515D01*
X9954920Y-13342162D01*
X9958933Y-13338454D01*
X9962946Y-13334339D01*
X9971074Y-13324687D01*
X9980726Y-13312038D01*
X9985959Y-13305688D01*
X9990988Y-13300100D01*
X9995865Y-13295274D01*
X10000640Y-13291108D01*
X10005364Y-13287603D01*
X10010140Y-13284707D01*
X10014966Y-13282422D01*
X10019893Y-13280694D01*
X10025024Y-13279526D01*
X10030358Y-13278815D01*
X10035946Y-13278561D01*
X10042448Y-13278764D01*
X10047528Y-13279424D01*
X10051186Y-13280542D01*
X10053421Y-13282168D01*
X10054234Y-13284200D01*
X10053624Y-13286638D01*
X10051542Y-13289483D01*
X10047986Y-13292734D01*
X10036556Y-13302335D01*
X10027259Y-13310920D01*
X10019588Y-13319099D01*
X10016185Y-13323316D01*
X10009936Y-13332206D01*
X10003993Y-13342366D01*
X9997744Y-13353948D01*
X9991293Y-13364616D01*
X9987991Y-13369493D01*
X9981082Y-13378281D01*
X9973716Y-13385850D01*
X9969906Y-13389203D01*
X9965893Y-13392302D01*
X9961778Y-13395096D01*
X9957562Y-13397636D01*
X9953091Y-13399871D01*
X9948519Y-13401852D01*
X9943744Y-13403630D01*
X9938816Y-13405104D01*
X9928250Y-13407339D01*
X9922713Y-13408101D01*
X9910826Y-13408913D01*
X9898024Y-13408863D01*
X9861042Y-13406577D01*
X9861092Y-13454938D01*
X9861600Y-13468756D01*
X9862769Y-13479729D01*
X9863683Y-13484250D01*
X9864852Y-13488060D01*
X9866325Y-13491260D01*
X9868052Y-13493851D01*
X9870186Y-13495883D01*
X9872624Y-13497306D01*
X9875469Y-13498220D01*
X9878720Y-13498576D01*
X9882378Y-13498423D01*
X9886543Y-13497813D01*
X9891217Y-13496747D01*
X9902088Y-13493242D01*
X9915245Y-13488162D01*
X9926066Y-13483539D01*
X9936784Y-13478510D01*
X9947402Y-13473125D01*
X9957917Y-13467334D01*
X9968230Y-13461238D01*
X9978440Y-13454786D01*
X9988499Y-13447979D01*
X9998354Y-13440867D01*
X10012781Y-13429589D01*
X10022128Y-13421766D01*
X10031323Y-13413638D01*
X10040213Y-13405205D01*
X10048900Y-13396569D01*
X10057333Y-13387679D01*
X10065512Y-13378586D01*
X10073386Y-13369239D01*
X10080955Y-13359739D01*
X10088219Y-13350036D01*
X10095179Y-13340130D01*
X10101834Y-13330072D01*
X10108133Y-13319861D01*
X10114076Y-13309498D01*
X10119614Y-13299033D01*
X10124846Y-13288467D01*
X10129621Y-13277748D01*
X10139832Y-13252348D01*
X10144150Y-13240562D01*
X10147757Y-13229640D01*
X10150703Y-13219226D01*
X10153091Y-13208914D01*
X10154970Y-13198449D01*
X10156342Y-13187426D01*
X10157358Y-13175538D01*
X10158018Y-13162381D01*
X10158628Y-13130987D01*
X10158577Y-13091617D01*
X10158272Y-13076478D01*
X10157764Y-13064286D01*
X10156850Y-13054076D01*
X10155478Y-13044881D01*
X10153599Y-13035788D01*
X10151110Y-13025882D01*
X10147909Y-13014299D01*
X10144302Y-13002514D01*
X10140340Y-12990880D01*
X10136073Y-12979400D01*
X10131450Y-12968122D01*
X10126522Y-12956997D01*
X10121239Y-12946075D01*
X10115702Y-12935356D01*
X10109809Y-12924840D01*
X10103662Y-12914528D01*
X10097211Y-12904419D01*
X10090454Y-12894564D01*
X10083444Y-12884912D01*
X10076180Y-12875463D01*
X10068610Y-12866217D01*
X10060787Y-12857276D01*
X10052710Y-12848539D01*
X10044379Y-12840055D01*
X10035844Y-12831826D01*
X10022535Y-12819938D01*
X10013391Y-12812369D01*
X10004044Y-12805054D01*
X9994442Y-12797993D01*
X9984638Y-12791236D01*
X9974630Y-12784785D01*
X9964470Y-12778587D01*
X9954056Y-12772694D01*
X9943490Y-12767106D01*
X9932771Y-12761823D01*
X9921849Y-12756845D01*
X9910724Y-12752222D01*
X9899497Y-12747853D01*
X9888067Y-12743840D01*
X9876536Y-12740182D01*
X9864801Y-12736830D01*
X9852964Y-12733832D01*
X9841026Y-12731191D01*
X9828936Y-12728905D01*
X9816744Y-12726974D01*
X9804400Y-12725400D01*
X9792512Y-12724333D01*
X9779965Y-12723672D01*
G37*
G36*
X10015931Y-13286943D02*
G01*
X10013848Y-13287248D01*
X10012324Y-13288060D01*
X10011460Y-13289178D01*
X10011511Y-13290600D01*
X10012222Y-13292023D01*
X10013289Y-13293191D01*
X10014610Y-13294004D01*
X10015931Y-13294258D01*
X10017302Y-13294004D01*
X10018572Y-13293191D01*
X10019690Y-13292023D01*
X10020401Y-13290600D01*
X10020452Y-13289178D01*
X10019588Y-13288060D01*
X10018064Y-13287248D01*
G37*
G36*
X10001961Y-13301065D02*
G01*
X10000081Y-13301319D01*
X9998252Y-13302386D01*
X9996525Y-13304164D01*
X9995154Y-13306450D01*
X9994341Y-13308888D01*
X9994138Y-13311378D01*
X9994646Y-13313003D01*
X9995865Y-13313714D01*
X9997744Y-13313460D01*
X9999624Y-13312394D01*
X10001351Y-13310616D01*
X10002672Y-13308330D01*
X10003536Y-13305840D01*
X10003688Y-13303402D01*
X10003180Y-13301776D01*
G37*
G36*
X9985756Y-13321893D02*
G01*
X9982352Y-13322147D01*
X9979253Y-13324636D01*
X9977424Y-13328954D01*
X9977323Y-13331240D01*
X9978085Y-13333018D01*
X9979456Y-13334187D01*
X9981438Y-13334644D01*
X9985654Y-13333679D01*
X9988550Y-13331240D01*
X9989616Y-13327888D01*
X9988600Y-13324230D01*
G37*
G36*
X9967163Y-13345210D02*
G01*
X9964369Y-13345413D01*
X9961880Y-13346379D01*
X9959644Y-13348106D01*
X9957917Y-13350341D01*
X9956952Y-13352830D01*
X9956749Y-13355624D01*
X9957460Y-13357351D01*
X9959187Y-13358063D01*
X9961981Y-13357860D01*
X9964521Y-13356894D01*
X9966756Y-13355218D01*
X9968433Y-13352932D01*
X9969398Y-13350443D01*
X9969601Y-13347649D01*
X9968890Y-13345922D01*
G37*
G36*
X9936226Y-13361974D02*
G01*
X9931044Y-13362686D01*
X9927183Y-13365632D01*
X9926828Y-13369086D01*
X9929266Y-13372033D01*
X9933432Y-13373607D01*
X9938207Y-13373100D01*
X9939985Y-13372033D01*
X9941407Y-13370458D01*
X9942423Y-13368578D01*
X9942779Y-13366597D01*
X9940798Y-13363295D01*
G37*
G36*
X9868408Y-13362127D02*
G01*
X9865512Y-13363600D01*
X9864445Y-13367054D01*
X9866020Y-13371525D01*
X9869881Y-13374217D01*
X9874707Y-13374674D01*
X9879126Y-13372388D01*
X9880803Y-13370306D01*
X9881209Y-13368528D01*
X9880295Y-13366902D01*
X9878060Y-13365175D01*
X9872726Y-13362635D01*
G37*
G36*
X9902799Y-13366038D02*
G01*
X9898583Y-13367766D01*
X9895941Y-13371220D01*
X9896602Y-13374979D01*
X9900208Y-13377519D01*
X9905034Y-13378180D01*
X9909352Y-13376198D01*
X9910521Y-13374522D01*
X9911130Y-13372541D01*
X9911130Y-13370560D01*
X9910470Y-13368782D01*
X9907219Y-13366292D01*
G37*
D16*
X8375015Y-14409978D02*
G01*
X9035011Y-14409978D01*
G36*
X10611358Y-12834112D02*
G01*
X10611358Y-12453874D01*
X10701782Y-12453874D01*
X10701782Y-12834112D01*
G37*
G36*
X10711434Y-12834112D02*
G01*
X10711434Y-12453874D01*
X10801858Y-12453874D01*
X10801858Y-12834112D01*
G37*
G36*
X10811510Y-12834112D02*
G01*
X10811510Y-12453874D01*
X10901680Y-12453874D01*
X10901680Y-12834112D01*
G37*
G36*
X10911332Y-12834112D02*
G01*
X10911332Y-12453874D01*
X11001756Y-12453874D01*
X11001756Y-12834112D01*
G37*
G36*
X11011408Y-12834112D02*
G01*
X11011408Y-12453874D01*
X11101832Y-12453874D01*
X11101832Y-12834112D01*
G37*
G36*
X11111484Y-12834112D02*
G01*
X11111484Y-12453874D01*
X11201654Y-12453874D01*
X11201654Y-12834112D01*
G37*
G36*
X11211560Y-12834112D02*
G01*
X11211560Y-12453874D01*
X11301730Y-12453874D01*
X11301730Y-12834112D01*
G37*
G36*
X11311382Y-12834112D02*
G01*
X11311382Y-12453874D01*
X11401806Y-12453874D01*
X11401806Y-12834112D01*
G37*
G36*
X11411458Y-12834112D02*
G01*
X11411458Y-12453874D01*
X11501882Y-12453874D01*
X11501882Y-12834112D01*
G37*
G36*
X11511534Y-12834112D02*
G01*
X11511534Y-12453874D01*
X11601704Y-12453874D01*
X11601704Y-12834112D01*
G37*
G36*
X11611356Y-12834112D02*
G01*
X11611356Y-12453874D01*
X11701780Y-12453874D01*
X11701780Y-12834112D01*
G37*
G36*
X11911330Y-12834112D02*
G01*
X11911330Y-12453874D01*
X12001754Y-12453874D01*
X12001754Y-12834112D01*
G37*
G36*
X12011406Y-12834112D02*
G01*
X12011406Y-12453874D01*
X12101830Y-12453874D01*
X12101830Y-12834112D01*
G37*
G36*
X12111482Y-12834112D02*
G01*
X12111482Y-12453874D01*
X12201652Y-12453874D01*
X12201652Y-12834112D01*
G37*
G36*
X12211558Y-12834112D02*
G01*
X12211558Y-12453874D01*
X12301728Y-12453874D01*
X12301728Y-12834112D01*
G37*
G36*
X12311380Y-12834112D02*
G01*
X12311380Y-12453874D01*
X12401804Y-12453874D01*
X12401804Y-12834112D01*
G37*
G36*
X12411456Y-12834112D02*
G01*
X12411456Y-12453874D01*
X12501880Y-12453874D01*
X12501880Y-12834112D01*
G37*
G36*
X12511532Y-12834112D02*
G01*
X12511532Y-12453874D01*
X12601702Y-12453874D01*
X12601702Y-12834112D01*
G37*
G36*
X12611354Y-12834112D02*
G01*
X12611354Y-12453874D01*
X12701778Y-12453874D01*
X12701778Y-12834112D01*
G37*
G36*
X12711430Y-12834112D02*
G01*
X12711430Y-12453874D01*
X12801854Y-12453874D01*
X12801854Y-12834112D01*
G37*
G36*
X12811506Y-12834112D02*
G01*
X12811506Y-12453874D01*
X12901676Y-12453874D01*
X12901676Y-12834112D01*
G37*
G36*
X12911328Y-12834112D02*
G01*
X12911328Y-12453874D01*
X13001752Y-12453874D01*
X13001752Y-12834112D01*
G37*
G36*
X13011404Y-12834112D02*
G01*
X13011404Y-12453874D01*
X13101828Y-12453874D01*
X13101828Y-12834112D01*
G37*
G36*
X13111480Y-12834112D02*
G01*
X13111480Y-12453874D01*
X13201650Y-12453874D01*
X13201650Y-12834112D01*
G37*
G36*
X13211556Y-12834112D02*
G01*
X13211556Y-12453874D01*
X13301726Y-12453874D01*
X13301726Y-12834112D01*
G37*
G36*
X13311378Y-12834112D02*
G01*
X13311378Y-12453874D01*
X13401801Y-12453874D01*
X13401801Y-12834112D01*
G37*
G36*
X13411454Y-12834112D02*
G01*
X13411454Y-12453874D01*
X13501878Y-12453874D01*
X13501878Y-12834112D01*
G37*
G36*
X13511530Y-12834112D02*
G01*
X13511530Y-12453874D01*
X13601700Y-12453874D01*
X13601700Y-12834112D01*
G37*
G36*
X13611351Y-12834112D02*
G01*
X13611351Y-12453874D01*
X13701776Y-12453874D01*
X13701776Y-12834112D01*
G37*
G36*
X13711428Y-12834112D02*
G01*
X13711428Y-12453874D01*
X13801851Y-12453874D01*
X13801851Y-12834112D01*
G37*
G36*
X13811504Y-12834112D02*
G01*
X13811504Y-12453874D01*
X13901674Y-12453874D01*
X13901674Y-12834112D01*
G37*
G36*
X13911326Y-12834112D02*
G01*
X13911326Y-12453874D01*
X14001750Y-12453874D01*
X14001750Y-12834112D01*
G37*
G36*
X14011401Y-12834112D02*
G01*
X14011401Y-12453874D01*
X14101826Y-12453874D01*
X14101826Y-12834112D01*
G37*
G36*
X14111478Y-12834112D02*
G01*
X14111478Y-12453874D01*
X14201648Y-12453874D01*
X14201648Y-12834112D01*
G37*
G36*
X14211554Y-12834112D02*
G01*
X14211554Y-12453874D01*
X14301724Y-12453874D01*
X14301724Y-12834112D01*
G37*
G36*
X14311376Y-12834112D02*
G01*
X14311376Y-12453874D01*
X14401800Y-12453874D01*
X14401800Y-12834112D01*
G37*
G36*
X14411451Y-12834112D02*
G01*
X14411451Y-12453874D01*
X14501876Y-12453874D01*
X14501876Y-12834112D01*
G37*
G36*
X14511528Y-12834112D02*
G01*
X14511528Y-12453874D01*
X14601698Y-12453874D01*
X14601698Y-12834112D01*
G37*
G36*
X14611350Y-12834112D02*
G01*
X14611350Y-12453874D01*
X14701774Y-12453874D01*
X14701774Y-12834112D01*
G37*
G36*
X14711426Y-12834112D02*
G01*
X14711426Y-12453874D01*
X14801850Y-12453874D01*
X14801850Y-12834112D01*
G37*
G36*
X14811501Y-12834112D02*
G01*
X14811501Y-12453874D01*
X14901672Y-12453874D01*
X14901672Y-12834112D01*
G37*
G36*
X14911324Y-12834112D02*
G01*
X14911324Y-12453874D01*
X15001748Y-12453874D01*
X15001748Y-12834112D01*
G37*
G36*
X15011400Y-12834112D02*
G01*
X15011400Y-12453874D01*
X15101824Y-12453874D01*
X15101824Y-12834112D01*
G37*
G36*
X15111476Y-12834112D02*
G01*
X15111476Y-12453874D01*
X15201646Y-12453874D01*
X15201646Y-12834112D01*
G37*
G36*
X15211551Y-12834112D02*
G01*
X15211551Y-12453874D01*
X15301722Y-12453874D01*
X15301722Y-12834112D01*
G37*
G36*
X15311374Y-12834112D02*
G01*
X15311374Y-12453874D01*
X15401798Y-12453874D01*
X15401798Y-12834112D01*
G37*
G36*
X15411450Y-12834112D02*
G01*
X15411450Y-12453874D01*
X15501874Y-12453874D01*
X15501874Y-12834112D01*
G37*
G36*
X15511526Y-12834112D02*
G01*
X15511526Y-12453874D01*
X15601696Y-12453874D01*
X15601696Y-12834112D01*
G37*
G36*
X15611348Y-12834112D02*
G01*
X15611348Y-12453874D01*
X15701772Y-12453874D01*
X15701772Y-12834112D01*
G37*
G36*
X16654780Y-15225268D02*
G01*
X16654780Y-14774926D01*
X16745204Y-14774926D01*
X16745204Y-15225268D01*
G37*
G36*
X16554704Y-15225268D02*
G01*
X16554704Y-14774926D01*
X16645128Y-14774926D01*
X16645128Y-15225268D01*
G37*
G36*
X16454882Y-15225268D02*
G01*
X16454882Y-14774926D01*
X16545051Y-14774926D01*
X16545051Y-15225268D01*
G37*
G36*
X16354806Y-15225268D02*
G01*
X16354806Y-14774926D01*
X16445230Y-14774926D01*
X16445230Y-15225268D01*
G37*
G36*
X16254730Y-15225268D02*
G01*
X16254730Y-14774926D01*
X16345154Y-14774926D01*
X16345154Y-15225268D01*
G37*
G36*
X16154907Y-15225268D02*
G01*
X16154907Y-14774926D01*
X16245078Y-14774926D01*
X16245078Y-15225268D01*
G37*
G36*
X16054832Y-15225268D02*
G01*
X16054832Y-14774926D01*
X16145256Y-14774926D01*
X16145256Y-15225268D01*
G37*
G36*
X15954756Y-15225268D02*
G01*
X15954756Y-14774926D01*
X16045180Y-14774926D01*
X16045180Y-15225268D01*
G37*
G36*
X15854934Y-15225268D02*
G01*
X15854934Y-14774926D01*
X15945104Y-14774926D01*
X15945104Y-15225268D01*
G37*
G36*
X15754857Y-15225268D02*
G01*
X15754857Y-14774926D01*
X15845028Y-14774926D01*
X15845028Y-15225268D01*
G37*
G36*
X15654782Y-15225268D02*
G01*
X15654782Y-14774926D01*
X15745206Y-14774926D01*
X15745206Y-15225268D01*
G37*
G36*
X15554706Y-15225268D02*
G01*
X15554706Y-14774926D01*
X15645130Y-14774926D01*
X15645130Y-15225268D01*
G37*
G36*
X15454884Y-15225268D02*
G01*
X15454884Y-14774926D01*
X15545054Y-14774926D01*
X15545054Y-15225268D01*
G37*
G36*
X15354807Y-15225268D02*
G01*
X15354807Y-14774926D01*
X15445232Y-14774926D01*
X15445232Y-15225268D01*
G37*
G36*
X15254732Y-15225268D02*
G01*
X15254732Y-14774926D01*
X15345156Y-14774926D01*
X15345156Y-15225268D01*
G37*
G36*
X15154910Y-15225268D02*
G01*
X15154910Y-14774926D01*
X15245080Y-14774926D01*
X15245080Y-15225268D01*
G37*
G36*
X15054834Y-15225268D02*
G01*
X15054834Y-14774926D01*
X15145257Y-14774926D01*
X15145257Y-15225268D01*
G37*
G36*
X14954757Y-15225268D02*
G01*
X14954757Y-14774926D01*
X15045182Y-14774926D01*
X15045182Y-15225268D01*
G37*
G36*
X14854936Y-15225268D02*
G01*
X14854936Y-14774926D01*
X14945106Y-14774926D01*
X14945106Y-15225268D01*
G37*
G36*
X14754860Y-15225268D02*
G01*
X14754860Y-14774926D01*
X14845030Y-14774926D01*
X14845030Y-15225268D01*
G37*
G36*
X14654784Y-15225268D02*
G01*
X14654784Y-14774926D01*
X14745207Y-14774926D01*
X14745207Y-15225268D01*
G37*
G36*
X14554707Y-15225268D02*
G01*
X14554707Y-14774926D01*
X14645132Y-14774926D01*
X14645132Y-15225268D01*
G37*
G36*
X14454886Y-15225268D02*
G01*
X14454886Y-14774926D01*
X14545056Y-14774926D01*
X14545056Y-15225268D01*
G37*
G36*
X12454890Y-15115032D02*
G01*
X12454890Y-14774926D01*
X12545060Y-14774926D01*
X12545060Y-15115032D01*
G37*
G36*
X12554712Y-15225268D02*
G01*
X12554712Y-14774926D01*
X12645136Y-14774926D01*
X12645136Y-15225268D01*
G37*
G36*
X12654788Y-15225268D02*
G01*
X12654788Y-14774926D01*
X12745212Y-14774926D01*
X12745212Y-15225268D01*
G37*
G36*
X12754864Y-15225268D02*
G01*
X12754864Y-14774926D01*
X12845034Y-14774926D01*
X12845034Y-15225268D01*
G37*
G36*
X12854940Y-15225268D02*
G01*
X12854940Y-14774926D01*
X12945110Y-14774926D01*
X12945110Y-15225268D01*
G37*
G36*
X12954762Y-15225268D02*
G01*
X12954762Y-14774926D01*
X13045186Y-14774926D01*
X13045186Y-15225268D01*
G37*
G36*
X13054838Y-15225268D02*
G01*
X13054838Y-14774926D01*
X13145262Y-14774926D01*
X13145262Y-15225268D01*
G37*
G36*
X13154913Y-15225268D02*
G01*
X13154913Y-14774926D01*
X13245084Y-14774926D01*
X13245084Y-15225268D01*
G37*
G36*
X13254736Y-15225268D02*
G01*
X13254736Y-14774926D01*
X13345160Y-14774926D01*
X13345160Y-15225268D01*
G37*
G36*
X13354812Y-15225268D02*
G01*
X13354812Y-14774926D01*
X13445236Y-14774926D01*
X13445236Y-15225268D01*
G37*
G36*
X13454888Y-15225268D02*
G01*
X13454888Y-14774926D01*
X13545057Y-14774926D01*
X13545057Y-15225268D01*
G37*
G36*
X13954760Y-15225268D02*
G01*
X13954760Y-14774926D01*
X14045184Y-14774926D01*
X14045184Y-15225268D01*
G37*
G36*
X14054836Y-15225268D02*
G01*
X14054836Y-14774926D01*
X14145260Y-14774926D01*
X14145260Y-15225268D01*
G37*
G36*
X14154912Y-15225268D02*
G01*
X14154912Y-14774926D01*
X14245082Y-14774926D01*
X14245082Y-15225268D01*
G37*
G36*
X14254734Y-15225268D02*
G01*
X14254734Y-14774926D01*
X14345157Y-14774926D01*
X14345157Y-15225268D01*
G37*
G36*
X14354810Y-15225268D02*
G01*
X14354810Y-14774926D01*
X14445234Y-14774926D01*
X14445234Y-15225268D01*
G37*
G36*
X13754862Y-15225268D02*
G01*
X13754862Y-14774926D01*
X13845032Y-14774926D01*
X13845032Y-15225268D01*
G37*
G36*
X13854938Y-15225268D02*
G01*
X13854938Y-14774926D01*
X13945107Y-14774926D01*
X13945107Y-15225268D01*
G37*
G36*
X16754856Y-15225268D02*
G01*
X16754856Y-14774926D01*
X16845026Y-14774926D01*
X16845026Y-15225268D01*
G37*
G36*
X16854932Y-15225268D02*
G01*
X16854932Y-14774926D01*
X16945102Y-14774926D01*
X16945102Y-15225268D01*
G37*
G36*
X16954754Y-15225268D02*
G01*
X16954754Y-14774926D01*
X17045178Y-14774926D01*
X17045178Y-15225268D01*
G37*
G36*
X17054830Y-15225268D02*
G01*
X17054830Y-14774926D01*
X17145254Y-14774926D01*
X17145254Y-15225268D01*
G37*
G36*
X17154906Y-15225268D02*
G01*
X17154906Y-14774926D01*
X17245076Y-14774926D01*
X17245076Y-15225268D01*
G37*
G36*
X17254728Y-15225268D02*
G01*
X17254728Y-14774926D01*
X17345152Y-14774926D01*
X17345152Y-15225268D01*
G37*
G36*
X17354804Y-15225268D02*
G01*
X17354804Y-14774926D01*
X17445228Y-14774926D01*
X17445228Y-15225268D01*
G37*
G36*
X17454880Y-15225268D02*
G01*
X17454880Y-14774926D01*
X17545050Y-14774926D01*
X17545050Y-15225268D01*
G37*
G36*
X12369800Y-14782800D02*
G01*
X17703800Y-14782800D01*
X17703800Y-15468600D01*
X12369800Y-15468600D01*
G37*
M02*
